<svg xmlns="http://www.w3.org/2000/svg" xmlns:xlink="http://www.w3.org/1999/xlink" version="1.1" x="0px" y="0px" viewBox="0 0 226.8 283.5" enable-background="new 0 0 226.8 226.8" xml:space="preserve"><path d="M181,113.9c0-1.9-1.6-3.5-3.5-3.5h-68.9c-1.9,0-3.5,1.6-3.5,3.5s1.6,3.5,3.5,3.5h68.9C179.4,117.4,181,115.8,181,113.9z   M169.5,132.4c0-1.9-1.6-3.5-3.5-3.5h-57.5c-1.9,0-3.5,1.6-3.5,3.5s1.6,3.5,3.5,3.5H166C167.9,135.9,169.5,134.4,169.5,132.4z   M193.4,184.3l-24.3-19H87.4c-7.2,0-13.1-5.9-13.1-13.1V91.5c0-7.2,5.9-13.1,13.1-13.1h111c7.2,0,13.1,5.9,13.1,13.1v60.8  c0,7.2-5.9,13.1-13.1,13.1h-5L193.4,184.3z M87.4,85.2c-3.4,0-6.2,2.8-6.2,6.2v60.8c0,3.4,2.8,6.2,6.2,6.2h85.5l13.7,10.4l0-10.4  l11.9,0c3.4,0,6.2-2.8,6.2-6.2V91.5c0-3.4-2.8-6.2-6.2-6.2H87.4z M69.2,135.3h-8.6l-24.3,19l0-19h-5c-7.2,0-13.1-5.9-13.1-13.1V61.5  c0-7.2,5.9-13.1,13.1-13.1h111c7.2,0,13.1,5.9,13.1,13.1v12.4h-6.8V61.5c0-3.4-2.8-6.2-6.2-6.2h-111c-3.4,0-6.2,2.8-6.2,6.2v60.8  c0,3.4,2.8,6.2,6.2,6.2l11.9,0l0,10.4l13.7-10.4h12.3V135.3z"/><text x="0" y="241.8" fill="#000000" font-size="5px" font-weight="bold" font-family="'Helvetica Neue', Helvetica, Arial-Unicode, Arial, Sans-serif">Created by dilayorganci</text><text x="0" y="246.8" fill="#000000" font-size="5px" font-weight="bold" font-family="'Helvetica Neue', Helvetica, Arial-Unicode, Arial, Sans-serif">from the Noun Project</text></svg>