<svg xmlns="http://www.w3.org/2000/svg" xmlns:xlink="http://www.w3.org/1999/xlink" version="1.1" x="0px" y="0px" viewBox="0 0 100 125" enable-background="new 0 0 100 100" xml:space="preserve"><g><path d="M56.489,51.924H43.508c-5.444,0.498-9.708,5.074-9.708,10.648c0,5.323,3.891,5.586,8.986,5.586   c0.556,0,1.125-0.004,1.708-0.004h11.013c0.579,0,1.15,0.004,1.705,0.004c5.095,0,8.987-0.262,8.987-5.586   C66.199,56.997,61.935,52.421,56.489,51.924z"/><circle cx="49.999" cy="41.08" r="9.238"/></g><g><path d="M87.447,51.496H77.351c-4.234,0.387-7.552,3.946-7.552,8.282c0,4.141,3.026,4.345,6.99,4.345   c0.432,0,0.875-0.003,1.328-0.003h8.566c0.449,0,0.894,0.003,1.326,0.003c3.963,0,6.99-0.203,6.99-4.345   C94.999,55.441,91.683,51.883,87.447,51.496z"/><circle cx="82.399" cy="43.062" r="7.185"/></g><g><path d="M22.648,51.496H12.551C8.317,51.883,5,55.442,5,59.778c0,4.141,3.026,4.345,6.988,4.345c0.432,0,0.876-0.003,1.329-0.003   h8.565c0.451,0,0.896,0.003,1.328,0.003c3.962,0,6.99-0.203,6.99-4.345C30.199,55.441,26.882,51.883,22.648,51.496z"/><circle cx="17.6" cy="43.062" r="7.185"/></g><text x="0" y="115" fill="#000000" font-size="5px" font-weight="bold" font-family="'Helvetica Neue', Helvetica, Arial-Unicode, Arial, Sans-serif">Created by Wilson Joseph</text><text x="0" y="120" fill="#000000" font-size="5px" font-weight="bold" font-family="'Helvetica Neue', Helvetica, Arial-Unicode, Arial, Sans-serif">from the Noun Project</text></svg>