<svg width="516" height="551" data-name="Layer 1" version="1.1" viewBox="0 0 516 551" xmlns="http://www.w3.org/2000/svg">
 <g transform="rotate(-45.2 358 281)">
  <path d="m408 19.3-0.15-0.31a307 307 0 0 0-173 113h-0.01a304 304 0 0 0-46.9 88.7q-2.68 8.06-4.91 16.3l20 20q2.22-8.24 4.91-16.3a304 304 0 0 1 46.9-88.7h0.01a307 307 0 0 1 167-111 130 130 0 0 1-13-21.4z" fill="#d4e1f4"/>
  <g fill="#0635c9">
   <path d="m165 123a29.6 29.6 0 0 1 21.1 8.72 41.9 41.9 0 0 0 52.3 5.48l-6.55-10.1a29.9 29.9 0 0 1-37.3-3.91 41.8 41.8 0 0 0-59-0.03l-59.4 58.6a6 6 0 0 0 0 8.54l34.4 34a59.1 59.1 0 0 0 83-0.258l-8.49-8.48a47 47 0 0 1-66.1 0.205l-30.1-29.7 55.1-54.3a29.6 29.6 0 0 1 21.1-8.72z"/>
   <path d="m362 257-10.1-6.55a41.9 41.9 0 0 0 5.48 52.3 29.8 29.8 0 0 1-0.03 42.1l-54.3 55.1-29.7-30.1a47 47 0 0 1 0.206-66.1l-8.48-8.48a59.1 59.1 0 0 0-0.258 83l34 34.6a6.22 6.22 0 0 0 4.27 2 6.22 6.22 0 0 0 4.27-2l58.5-59.5a41.9 41.9 0 0 0 0-59.1 30 30 0 0 1-3.91-37.3z"/>
   <path d="m154 385a41.7 41.7 0 0 1-9.71 1.12h-9.45a6 6 0 0 0 0 12h9.45a53.7 53.7 0 0 0 12.5-1.45 6 6 0 0 0-2.8-11.7z"/>
   <path d="m197 333a53.3 53.3 0 0 0-6.27-15.7l20.8 20.8a6 6 0 0 0 10.1-2.8l12.8-51.7-11.6-2.88-10.2 41.4-45.3-45.3 42.4-8.99-2.49-11.7-53.3 11.3a6 6 0 0 0-3 10.1l21.3 21.3a53.2 53.2 0 0 0-15.5-6.22c-1.74-0.393-3.48-0.7-5.16-0.91a53.4 53.4 0 0 0-6.35-0.425 52.7 52.7 0 0 0-37.8 15.5 53.9 53.9 0 0 0-16.1 38.5 6 6 0 0 0 5.85 6l4.52 0.115a57.4 57.4 0 0 0-10.3 42 5.98 5.98 0 0 0 5.89 4.81h16.4a6 6 0 0 0 0-12h-10.9c-0.17-8 1.59-23.2 16.1-36a5.99 5.99 0 0 0-3.82-10.5l-11.4-0.286a42.1 42.1 0 0 1 12.2-24.2 40.9 40.9 0 0 1 29-12.1h0.313c0.955 6e-3 1.91 0.057 2.87 0.13a27.7 27.7 0 0 0-13.4 20.5l-3.44 27.8a6 6 0 0 0 5.95 6.74 6.1 6.1 0 0 0 0.737-0.045l27.8-3.44a27.8 27.8 0 0 0 20.5-13.5c0.086 1.08 0.145 2.17 0.147 3.27a41.3 41.3 0 0 1-12.2 29.4 6 6 0 1 0 8.48 8.48 53.4 53.4 0 0 0 15.3-44.5c-0.2-1.67-0.492-3.37-0.866-5.06zm-19.6-1.42a15.8 15.8 0 0 1-13.3 11.4l-20.2 2.5 2.5-20.2a16 16 0 0 1 11.8-13.4 15.8 15.8 0 0 1 19.2 19.7z"/>
   <path d="m396 261a5.97 5.97 0 0 0 3.82-1.38c4.28-3.54 8.52-7.25 12.6-11a6 6 0 1 0-8.14-8.82c-3.93 3.63-8.01 7.19-12.1 10.6a6 6 0 0 0 3.83 10.6z"/>
   <path d="m495 103a6 6 0 0 0-7.48 4.01 297 297 0 0 1-19.5 48.5c-2.88 5.66-5.98 11.3-9.22 16.8-3.98 6.73-8.29 13.4-12.8 19.8a301 301 0 0 1-23.3 29.1 6 6 0 0 0 8.88 8.07 313 313 0 0 0 24.2-30.2c4.69-6.66 9.17-13.6 13.3-20.6 3.37-5.7 6.6-11.6 9.59-17.5a309 309 0 0 0 20.2-50.4 6 6 0 0 0-4-7.48z"/>
   <g fill="#f60">
    <path d="m29.8 236a6 6 0 0 0-8.48 0l-4.6 4.6a6 6 0 1 0 8.48 8.48l4.6-4.6a6 6 0 0 0 5e-3 -8.48z"/>
    <path d="m42.9 231 20.5-20.5a6 6 0 1 0-8.48-8.49l-20.5 20.5a6 6 0 1 0 8.48 8.49z"/>
    <path d="m30 273a5.98 5.98 0 0 0 4.24-1.76l24.1-24.1a6 6 0 0 0-8.49-8.48l-24.1 24.1a6 6 0 0 0 4.24 10.2z"/>
    <path d="m66 237a5.98 5.98 0 0 0 4.24-1.76l8.92-8.92a6 6 0 1 0-8.48-8.49l-8.92 8.92a6 6 0 0 0 4.24 10.2z"/>
    <path d="m41.4 279-26.7 26.7a6 6 0 0 0 8.48 8.48l26.7-26.7a6 6 0 1 0-8.48-8.48z"/>
    <path d="m94.9 234a6 6 0 0 0-8.48 0l-31.2 31.2a6 6 0 1 0 8.48 8.49l31.2-31.2a6 6 0 0 0 0-8.48z"/>
    <path d="m221 427a6 6 0 0 0-8.48 0l-4.6 4.59a6 6 0 0 0 8.49 8.48l4.59-4.6a6 6 0 0 0 0-8.48z"/>
    <path d="m246 394-20.5 20.5a6 6 0 1 0 8.48 8.48l20.5-20.5a6 6 0 0 0-8.48-8.48z"/>
    <path d="m222 464a5.98 5.98 0 0 0 4.24-1.76l24.1-24.1a6 6 0 1 0-8.48-8.48l-24.1 24.1a6 6 0 0 0 4.24 10.2z"/>
    <path d="m258 429a5.99 5.99 0 0 0 4.24-1.76l8.92-8.92a6 6 0 0 0-8.49-8.48l-8.92 8.92a6 6 0 0 0 4.24 10.2z"/>
    <path d="m233 470-26.7 26.7a6 6 0 1 0 8.48 8.49l26.7-26.7a6 6 0 1 0-8.48-8.48z"/>
    <path d="m278 425-31.2 31.2a6 6 0 1 0 8.48 8.48l31.2-31.2a6 6 0 1 0-8.48-8.49z"/>
   </g>
   <path d="m448 352a33.6 33.6 0 0 1-21.1-21.2 6 6 0 0 0-11.4 0 33.6 33.6 0 0 1-21.1 21.2 6 6 0 0 0 0 11.4 33.6 33.6 0 0 1 21.1 21.2 6 6 0 0 0 11.4 0 33.6 33.6 0 0 1 21.1-21.2 6 6 0 0 0 0-11.4zm-26.8 17.4a45.9 45.9 0 0 0-11.7-11.7 45.9 45.9 0 0 0 11.7-11.7 45.9 45.9 0 0 0 11.7 11.7 45.9 45.9 0 0 0-11.7 11.7z"/>
   <path d="m22.2 111a6 6 0 0 0 0 11.4 33.6 33.6 0 0 1 21.1 21.2 6 6 0 0 0 11.4 0 33.6 33.6 0 0 1 21.1-21.2 6 6 0 0 0 0-11.4 33.6 33.6 0 0 1-21.1-21.2 6 6 0 0 0-11.4 0 33.6 33.6 0 0 1-21.1 21.2zm26.8-6a45.9 45.9 0 0 0 11.7 11.7 45.9 45.9 0 0 0-11.7 11.7 45.9 45.9 0 0 0-11.7-11.7 45.9 45.9 0 0 0 11.7-11.7z"/>
   <ellipse cx="127" cy="54" rx="11" ry="11"/>
   <ellipse cx="402" cy="445" rx="11" ry="11"/>
  </g>
  <path d="m478 5a310 310 0 0 0-191 65.5c-53.4 41.5-92.4 100-110 165a6 6 0 0 0 1.55 5.81l68.5 68.5a6.01 6.01 0 0 0 5.78 1.56c136-35.9 231-159 231-300a6 6 0 0 0-6-6zm-12.2 66.4a125 125 0 0 1-48.4-48.2 297 297 0 0 1 54.5-6.14 298 298 0 0 1-6.09 54.3zm-212 227-63.6-63.6c17.2-60.8 54.3-116 105-155a299 299 0 0 1 84.8-46.3q12.7-4.46 25.8-7.73a137 137 0 0 0 57.7 57.5c-25.7 102-105 186-209 215z" fill="#f60"/>
  <path d="m337 108a43.9 43.9 0 1 0 31 74.9 43.9 43.9 0 0 0-31-74.9zm22.5 66.4a31.9 31.9 0 1 1 0-45.1 31.9 31.9 0 0 1 0 45.1z" fill="#0635c9"/>
 </g>
</svg>
