<svg enable-background="new 0 0 612.002 612.002" version="1.1" viewBox="0 0 612 612" xmlns="http://www.w3.org/2000/svg">
 <g transform="matrix(-1 0 0 1 612 0)">
  <path d="m377 0c-30.7 0-55.6 24.9-55.6 55.6 0 30.7 24.9 55.6 55.6 55.6 59.8 0 108 48.6 108 108v38.7c0 59.8-48.6 108-108 108h-195l39.3-39.3c21.7-21.7 21.7-56.9 0-78.6-21.7-21.7-56.9-21.7-78.6 0l-94.5 94.5c-21.1 21.1-32.7 49.2-32.7 79s11.6 57.9 32.7 79l94.5 94.5c10.9 10.9 25.1 16.3 39.3 16.3s28.5-5.43 39.3-16.3c21.7-21.7 21.7-56.9 0-78.6l-39.3-39.3h195c121 0 220-98.5 220-220v-38.7c-1e-3 -121-98.5-220-220-220z"/>
 </g>
</svg>
