<?xml version="1.0" encoding="UTF-8" standalone="no"?>
<svg
   xmlns:dc="http://purl.org/dc/elements/1.1/"
   xmlns:cc="http://creativecommons.org/ns#"
   xmlns:rdf="http://www.w3.org/1999/02/22-rdf-syntax-ns#"
   xmlns:svg="http://www.w3.org/2000/svg"
   xmlns="http://www.w3.org/2000/svg"
   xmlns:sodipodi="http://sodipodi.sourceforge.net/DTD/sodipodi-0.dtd"
   xmlns:inkscape="http://www.inkscape.org/namespaces/inkscape"
   id="svg8"
   version="1.1"
   viewBox="0 0 89.958306 89.958333"
   height="340"
   width="340"
   sodipodi:docname="culture2.svg"
   inkscape:version="0.92.4 (5da689c313, 2019-01-14)">
  <sodipodi:namedview
     pagecolor="#ffffff"
     bordercolor="#666666"
     borderopacity="1"
     objecttolerance="10"
     gridtolerance="10"
     guidetolerance="10"
     inkscape:pageopacity="0"
     inkscape:pageshadow="2"
     inkscape:window-width="1366"
     inkscape:window-height="705"
     id="namedview11"
     showgrid="false"
     inkscape:zoom="0.69411765"
     inkscape:cx="76.910271"
     inkscape:cy="367.06999"
     inkscape:window-x="-8"
     inkscape:window-y="-8"
     inkscape:window-maximized="1"
     inkscape:current-layer="svg8" />
  <defs
     id="defs2" />
  <metadata
     id="metadata5">
    <rdf:RDF>
      <cc:Work
         rdf:about="">
        <dc:format>image/svg+xml</dc:format>
        <dc:type
           rdf:resource="http://purl.org/dc/dcmitype/StillImage" />
        <dc:title></dc:title>
      </cc:Work>
    </rdf:RDF>
  </metadata>
  <g
     id="g2042"
     transform="matrix(1.480761,0,0,1.480761,-156.01515,-140.69542)"
     style="fill:#00aa00">
    <path
       inkscape:connector-curvature="0"
       id="path831"
       d="m 137.61888,146.85291 c -0.13024,0.13025 -0.21786,0.29595 -0.25502,0.4746 l -1.3164,6.58438 c -0.0614,0.30515 0.0355,0.61984 0.25503,0.84146 0.17695,0.17695 0.41527,0.27173 0.65939,0.27173 0.0593,0 0.12103,-0.005 0.1824,-0.0184 l 6.58234,-1.3164 c 0.1824,-0.0375 0.3481,-0.12479 0.47664,-0.25537 l 14.73234,-14.73234 -6.58234,-6.582 z m 0,0"
       style="stroke-width:0.08728255;fill:#00aa00" />
    <path
       inkscape:connector-curvature="0"
       id="path833"
       d="m 163.48622,127.5679 c -1.8152,-1.81554 -4.76849,-1.81554 -6.58233,0 l -2.57688,2.57688 6.58233,6.58234 2.57688,-2.57723 c 0.87896,-0.87691 1.36311,-2.04636 1.36311,-3.29014 0,-1.24378 -0.48415,-2.41323 -1.36311,-3.29185 z m 0,0"
       style="stroke-width:0.08728255;fill:#00aa00" />
  </g>
  <path
     inkscape:connector-curvature="0"
     d="m 68.696575,36.13277 c 1.650098,-2.761057 2.744719,-6.253224 2.95711,-9.708623 0.134779,-2.217832 -0.359433,-4.545937 -1.42955,-6.735168 C 68.545452,16.249904 65.661872,14.317984 62.876307,12.451423 60.797354,11.058638 58.832758,9.7434577 57.444056,7.86464 L 57.194909,7.5297145 C 56.373941,6.4269313 55.446786,5.1771092 55.299744,4.1274179 55.152712,3.0654704 54.188792,2.3098588 53.135019,2.3711284 52.064904,2.444711 51.235772,3.3309601 51.235772,4.4051524 V 40.797144 c -1.711368,-1.037434 -3.818915,-1.674596 -6.126601,-1.674596 -5.628299,0 -10.210997,3.663697 -10.210997,8.168799 0,4.50509 4.582698,8.168797 10.210997,8.168797 5.628299,0 10.210995,-3.663707 10.210995,-8.168797 V 23.487471 c 3.067388,1.17222 8.087118,4.157919 9.46764,11.129987 -0.257319,0.37985 -0.502384,0.78829 -0.788286,1.115038 -0.747449,0.845471 -0.665757,2.136141 0.183797,2.879507 0.841383,0.751522 2.13205,0.661663 2.879499,-0.183808 0.54731,-0.620828 1.03335,-1.347849 1.498978,-2.10755 0.04905,-0.05719 0.09408,-0.118439 0.134781,-0.187875 z"
     id="path1443"
     style="stroke-width:0.12763746;fill:#8800aa" />
  <g
     transform="matrix(0.13103911,0,0,0.10823149,-2.3594203,46.330201)"
     id="g5"
     style="fill:#ff0000">
    <g
       id="Layer_8_16_"
       style="fill:#ff0000">
      <path
         inkscape:connector-curvature="0"
         d="M 61.792,2.588 C 64.771,0.864 68.105,0 71.444,0 c 3.33,0 6.663,0.864 9.655,2.588 l 230.116,167.2 c 5.963,3.445 9.656,9.823 9.656,16.719 0,6.895 -3.683,13.272 -9.656,16.713 L 81.099,370.427 c -5.972,3.441 -13.334,3.441 -19.302,0 -5.973,-3.453 -9.66,-9.833 -9.66,-16.724 V 19.305 c 0,-6.892 3.681,-13.269 9.655,-16.717 z"
         id="path2"
         style="fill:#ff0000" />
    </g>
  </g>
</svg>
