<?xml version="1.0" encoding="UTF-8" standalone="no"?>
<svg
   xmlns:ooo="http://xml.openoffice.org/svg/export"
   xmlns:dc="http://purl.org/dc/elements/1.1/"
   xmlns:cc="http://creativecommons.org/ns#"
   xmlns:rdf="http://www.w3.org/1999/02/22-rdf-syntax-ns#"
   xmlns:svg="http://www.w3.org/2000/svg"
   xmlns="http://www.w3.org/2000/svg"
   xmlns:sodipodi="http://sodipodi.sourceforge.net/DTD/sodipodi-0.dtd"
   xmlns:inkscape="http://www.inkscape.org/namespaces/inkscape"
   version="1.2"
   width="7.1162539mm"
   height="6.3722777mm"
   viewBox="-2345 -88 711.62538 637.22777"
   preserveAspectRatio="xMidYMid"
   xml:space="preserve"
   id="svg74"
   sodipodi:docname="InformIcon.svg"
   style="fill-rule:evenodd;stroke-width:28.22200012;stroke-linejoin:round"
   inkscape:version="0.92.4 (5da689c313, 2019-01-14)"><metadata
   id="metadata78"><rdf:RDF><cc:Work
       rdf:about=""><dc:format>image/svg+xml</dc:format><dc:type
         rdf:resource="http://purl.org/dc/dcmitype/StillImage" /><dc:title></dc:title></cc:Work></rdf:RDF></metadata><sodipodi:namedview
   pagecolor="#ffffff"
   bordercolor="#666666"
   borderopacity="1"
   objecttolerance="10"
   gridtolerance="10"
   guidetolerance="10"
   inkscape:pageopacity="0"
   inkscape:pageshadow="2"
   inkscape:window-width="1366"
   inkscape:window-height="705"
   id="namedview76"
   showgrid="false"
   inkscape:zoom="5.7391237"
   inkscape:cx="-12.12876"
   inkscape:cy="12.035464"
   inkscape:window-x="-8"
   inkscape:window-y="-8"
   inkscape:window-maximized="1"
   inkscape:current-layer="svg74"
   fit-margin-top="0"
   fit-margin-left="0"
   fit-margin-right="0"
   fit-margin-bottom="0" />
 <defs
   class="ClipPathGroup"
   id="defs8">
  <clipPath
   id="presentation_clip_path"
   clipPathUnits="userSpaceOnUse">
   <rect
   x="-2345"
   y="-88"
   width="1163"
   height="1088"
   id="rect2" />
  </clipPath>
  <clipPath
   id="presentation_clip_path_shrink"
   clipPathUnits="userSpaceOnUse">
   <rect
   x="-2344"
   y="-87"
   width="1161"
   height="1086"
   id="rect5" />
  </clipPath>
 </defs>
 <defs
   class="TextShapeIndex"
   id="defs12">
  <g
   ooo:slide="id1"
   ooo:id-list="id3 id4"
   id="g10" />
 </defs>
 <defs
   class="EmbeddedBulletChars"
   id="defs44">
  <g
   id="bullet-char-template-57356"
   transform="matrix(4.8828125e-4,0,0,-4.8828125e-4,0,0)">
   <path
   d="M 580,1141 1163,571 580,0 -4,571 Z"
   id="path14"
   inkscape:connector-curvature="0" />
  </g>
  <g
   id="bullet-char-template-57354"
   transform="matrix(4.8828125e-4,0,0,-4.8828125e-4,0,0)">
   <path
   d="M 8,1128 H 1137 V 0 H 8 Z"
   id="path17"
   inkscape:connector-curvature="0" />
  </g>
  <g
   id="bullet-char-template-10146"
   transform="matrix(4.8828125e-4,0,0,-4.8828125e-4,0,0)">
   <path
   d="M 174,0 602,739 174,1481 1456,739 Z M 1358,739 309,1346 659,739 Z"
   id="path20"
   inkscape:connector-curvature="0" />
  </g>
  <g
   id="bullet-char-template-10132"
   transform="matrix(4.8828125e-4,0,0,-4.8828125e-4,0,0)">
   <path
   d="M 2015,739 1276,0 H 717 l 543,543 H 174 v 393 h 1086 l -543,545 h 557 z"
   id="path23"
   inkscape:connector-curvature="0" />
  </g>
  <g
   id="bullet-char-template-10007"
   transform="matrix(4.8828125e-4,0,0,-4.8828125e-4,0,0)">
   <path
   d="m 0,-2 c -7,16 -16,29 -25,39 l 381,530 c -94,256 -141,385 -141,387 0,25 13,38 40,38 9,0 21,-2 34,-5 21,4 42,12 65,25 l 27,-13 111,-251 280,301 64,-25 24,25 c 21,-10 41,-24 62,-43 C 886,937 835,863 770,784 769,783 710,716 594,584 L 774,223 c 0,-27 -21,-55 -63,-84 l 16,-20 C 717,90 699,76 672,76 641,76 570,178 457,381 L 164,-76 c -22,-34 -53,-51 -92,-51 -42,0 -63,17 -64,51 -7,9 -10,24 -10,44 0,9 1,19 2,30 z"
   id="path26"
   inkscape:connector-curvature="0" />
  </g>
  <g
   id="bullet-char-template-10004"
   transform="matrix(4.8828125e-4,0,0,-4.8828125e-4,0,0)">
   <path
   d="M 285,-33 C 182,-33 111,30 74,156 52,228 41,333 41,471 c 0,78 14,145 41,201 34,71 87,106 158,106 53,0 88,-31 106,-94 l 23,-176 c 8,-64 28,-97 59,-98 l 735,706 c 11,11 33,17 66,17 42,0 63,-15 63,-46 V 965 c 0,-36 -10,-64 -30,-84 L 442,47 C 390,-6 338,-33 285,-33 Z"
   id="path29"
   inkscape:connector-curvature="0" />
  </g>
  <g
   id="bullet-char-template-9679"
   transform="matrix(4.8828125e-4,0,0,-4.8828125e-4,0,0)">
   <path
   d="M 813,0 C 632,0 489,54 383,161 276,268 223,411 223,592 c 0,181 53,324 160,431 106,107 249,161 430,161 179,0 323,-54 432,-161 108,-107 162,-251 162,-431 0,-180 -54,-324 -162,-431 C 1136,54 992,0 813,0 Z"
   id="path32"
   inkscape:connector-curvature="0" />
  </g>
  <g
   id="bullet-char-template-8226"
   transform="matrix(4.8828125e-4,0,0,-4.8828125e-4,0,0)">
   <path
   d="m 346,457 c -73,0 -137,26 -191,78 -54,51 -81,114 -81,188 0,73 27,136 81,188 54,52 118,78 191,78 73,0 134,-26 185,-79 51,-51 77,-114 77,-187 0,-75 -25,-137 -76,-188 -50,-52 -112,-78 -186,-78 z"
   id="path35"
   inkscape:connector-curvature="0" />
  </g>
  <g
   id="bullet-char-template-8211"
   transform="matrix(4.8828125e-4,0,0,-4.8828125e-4,0,0)">
   <path
   d="M -4,459 H 1135 V 606 H -4 Z"
   id="path38"
   inkscape:connector-curvature="0" />
  </g>
  <g
   id="bullet-char-template-61548"
   transform="matrix(4.8828125e-4,0,0,-4.8828125e-4,0,0)">
   <path
   d="m 173,740 c 0,163 58,303 173,419 116,115 255,173 419,173 163,0 302,-58 418,-173 116,-116 174,-256 174,-419 0,-163 -58,-303 -174,-418 C 1067,206 928,148 765,148 601,148 462,206 346,322 231,437 173,577 173,740 Z"
   id="path41"
   inkscape:connector-curvature="0" />
  </g>
 </defs>
 <defs
   class="TextEmbeddedBitmaps"
   id="defs46" />
 <g
   class="SlideGroup"
   id="g72"
   clip-path="none"
   transform="translate(-38,-225.21053)">
  <g
   id="g70">
   <g
   id="container-id1">
    <g
   id="id1"
   class="Slide"
   clip-path="url(#presentation_clip_path)">
     <g
   class="Page"
   id="g66">
      <g
   class="Group"
   id="g64">
       <g
   class="Graphic"
   id="g55">
        <g
   id="id3">
         <rect
   class="BoundingBox"
   x="-2270"
   y="-88"
   width="1089"
   height="1089"
   id="rect48"
   style="fill:none;stroke:none" />
         
         
        </g>
       </g>
       <g
   class="com.sun.star.drawing.ClosedBezierShape"
   id="g62">
        <g
   id="id4">
         <rect
   class="BoundingBox"
   x="-2345"
   y="187"
   width="182"
   height="480"
   id="rect57"
   style="fill:none;stroke:none" />
         
        </g>
       </g>
      </g>
     </g>
    </g>
   </g>
  </g>
 </g>
<g
   inkscape:groupmode="layer"
   id="layer1"
   inkscape:label="Layer 1"
   style="display:none"
   transform="translate(-61.050843,-225.21053)" /><path
   d="m -1970,277.78952 c -8,8.99999 -18,13.99997 -30,18 -12,2.99998 -23,2.99998 -35,0 -11,-4.00003 -21,-9.00001 -30,-18 -8,-9.00002 -14,-18 -17,-30.00002 -3,-11.99999 -3,-22.99999 0,-35.00001 3,-11.99999 9,-21 17,-29.99999 9,-8 19,-14 30,-17 12,-3 23,-3 35,0 12,3 22,9 30,17 9,8.99999 14.0001,18 18,29.99999 3.0001,12.00002 3.0001,23.00002 0,35.00001 -3.9999,12.00002 -9,21 -18,30.00002 z"
   id="path50"
   inkscape:connector-curvature="0"
   style="fill:#000000;stroke:none;stroke-width:1.00000012"
   inkscape:export-xdpi="96"
   inkscape:export-ydpi="96" /><path
   d="m -1930,48.789491 c -15,15 -16,39 -4,56.999999 53.0001,75 53.0001,175.00001 0,250.00001 -12,17.00001 -11,41.00002 4,57.00001 19,18 50,17.00001 65,-4 77.0001,-105.99999 77.0001,-250.00001 0,-356.000019 -15,-21 -46,-23.00001 -65,-4 z m 124.0001,-124.00001 c -16.0001,16 -17,41 -3,58 118,144.000009 118,352.000039 0,495.000059 -14,18 -13.0001,43 3,58.99999 18,18 48,16.00001 65,-3.00001 143,-176.00001 144,-430.00003 0,-606.000039 -16.0001,-20.00001 -47,-21.00001 -65,-3 z"
   id="path52"
   inkscape:connector-curvature="0"
   style="fill:#000000;stroke:none;stroke-width:1.00000012"
   inkscape:export-xdpi="96"
   inkscape:export-ydpi="96" /><path
   d="m -2203,54.789417 c 0,14 -5,25.00001 -15,34.00001 -11,8 -23,13.000003 -33,13.000003 -11,0 -22,-5.000003 -32,-15.000003 -10,-9 -16,-20.00001 -16,-32.00001 0,-13 6,-24 16,-33 11,-9 21,-13.9999997 32,-13.9999997 32,0 48,15.9999997 48,46.9999997 z m 39,432.000043 h -173 v -41 c 21,0 33,-1.00012 37,-1.99998 5,-4.99999 8,-18 8,-37.99999 V 294.78946 c 0,-30.99999 -1,-50.00001 -3,-58 -1,-3 -3,-5.99998 -5,-5.99998 -3,0 -13,2.99998 -32,6.99997 l -13,-37.00002 104,-41 h 32 v 246.00004 c 0,20.99998 2,32.99999 8,36 3,2.99998 16,3.99999 37,3.99999 z"
   id="path59"
   inkscape:connector-curvature="0"
   style="fill:#000000;stroke:none;stroke-width:1.00000012"
   inkscape:export-xdpi="96"
   inkscape:export-ydpi="96" /></svg>