<svg width="62.8" height="61.4" clip-rule="evenodd" fill-rule="evenodd" image-rendering="optimizeQuality" shape-rendering="geometricPrecision" text-rendering="geometricPrecision" version="1.1" viewBox="0 0 62.8 61.4" xmlns="http://www.w3.org/2000/svg">
 <defs>
  <style type="text/css">.fil0 {fill:black;fill-rule:nonzero}</style>
 </defs>
 <g transform="translate(-18.6 -19.3)">
  <path class="fil0" d="m81.4 57.2c0 4.69-3.93 8.62-8.61 8.62h-8.74l-16.4 14.4c-1.41 1.24-3.62 0.2-3.61-1.64l-0.01-12.7h-16.8c-4.72 0-8.61-3.89-8.61-8.62v-29.3c0-4.73 3.88-8.61 8.61-8.61h45.5c4.71 0 8.61 3.89 8.61 8.61zm-19.8-18.2c1.95 0 3.54 1.59 3.54 3.55 0 1.95-1.59 3.54-3.54 3.54-1.96 0-3.54-1.59-3.54-3.54 0-1.96 1.58-3.55 3.54-3.55zm-11.6 0c1.95 0 3.54 1.59 3.54 3.55 0 1.95-1.59 3.54-3.54 3.54-1.96 0-3.54-1.59-3.54-3.54 0-1.96 1.58-3.55 3.54-3.55zm-11.6 0c1.95 0 3.54 1.59 3.54 3.55 0 1.95-1.59 3.54-3.54 3.54-1.96 0-3.55-1.59-3.55-3.54 0-1.96 1.59-3.55 3.55-3.55zm38.6 18.2v-29.3c0-2.32-1.94-4.25-4.25-4.25h-45.5c-2.33 0-4.25 1.91-4.25 4.25v29.3c0 2.33 1.92 4.25 4.25 4.25h19c1.2 0 2.18 0.98 2.18 2.18v10.1l13.3-11.7c0.39-0.37 0.92-0.6 1.5-0.6h9.56c2.28 0 4.25-1.96 4.25-4.25z" fill-rule="nonzero"/>
 </g>
</svg>
