<svg width="49" height="49" enable-background="new 0 0 100 100" version="1.1" viewBox="0 0 49 49" xmlns="http://www.w3.org/2000/svg">
 <path d="m3.65 37.3c-2.39-3.86-3.65-8.29-3.65-12.9 0-13.5 11-24.5 24.5-24.5s24.5 11 24.5 24.5-11 24.5-24.5 24.5c-4.57 0-9-1.26-12.9-3.65l-9.61 3.56c-0.17 0.062-0.346 0.093-0.521 0.093-0.391 0-0.774-0.153-1.06-0.439-0.414-0.414-0.55-1.03-0.347-1.58zm7.64 4.91c0.448-0.166 0.949-0.107 1.35 0.157 3.52 2.33 7.62 3.56 11.8 3.56 11.8 0 21.5-9.64 21.5-21.5s-9.64-21.5-21.5-21.5-21.5 9.64-21.5 21.5c0 4.23 1.23 8.33 3.56 11.8 0.265 0.398 0.323 0.899 0.157 1.35l-2.68 7.25zm23.3-20.3c1.4 0 2.53 1.13 2.53 2.53s-1.13 2.53-2.53 2.53-2.53-1.13-2.53-2.53 1.13-2.53 2.53-2.53zm-10.1 0c1.4 0 2.53 1.13 2.53 2.53s-1.13 2.53-2.53 2.53c-1.4 0-2.53-1.13-2.53-2.53s1.13-2.53 2.53-2.53zm-10.1 0c1.4 0 2.53 1.13 2.53 2.53s-1.13 2.53-2.53 2.53c-1.4 0-2.53-1.13-2.53-2.53-1e-3 -1.4 1.13-2.53 2.53-2.53z"/>
</svg>
