<svg width="53" height="37" version="1.1" viewBox="0 0 53 37" xmlns="http://www.w3.org/2000/svg">
 <title>7.3</title>
 <desc>Created with Sketch.</desc>
 <g transform="translate(-23.5,-31.5)" fill="none" fill-rule="evenodd">
  <g fill="#000">
   <path d="m73.5 31.5c1.66 0 3 1.34 3 3v31c0 1.65-1.34 3-3 3h-47c-1.66 0-3-1.34-3-3v-31c0-1.65 1.34-3 3-3zm-25.8 21.6-20.4-16.1c-0.431-0.342-0.782-0.169-0.782 0.386v27.2c0 0.558 0.449 1 1 1h45c0.553 0 1-0.45 1-1v-27.2c0-0.558-0.35-0.728-0.782-0.386l-20.4 16.1c-1.29 1.02-3.4 1.03-4.7 0zm22.3-18.6h-39.9c-0.552 0-0.644 0.278-0.211 0.62l19.4 15.3c0.437 0.346 1.13 0.342 1.57 0l19.4-15.3c0.437-0.346 0.338-0.62-0.211-0.62z"/>
  </g>
 </g>
</svg>
