<svg width="51" height="56.5" version="1.1" viewBox="0 0 51 56.5" xmlns="http://www.w3.org/2000/svg">
 <title>Bell v2.3</title>
 <desc>Created with Sketch.</desc>
 <g transform="translate(-24.5,-22)" fill="none">
  <g fill="#000">
   <path d="m58.4 71c-0.495 4.22-4.09 7.5-8.44 7.5s-7.95-3.28-8.44-7.5h-11.5c-3.04 0-5.51-2.46-5.51-5.5 0-3.03 2.46-5.5 5.5-5.5 0.272 0 0.498-0.226 0.498-0.502v-12c0-8.55 5.55-16 13.5-18.6v-0.939c0-3.31 2.69-6 6-6 3.32 0 6 2.68 6 6v0.939c7.95 2.56 13.5 10 13.5 18.6v12c0 0.281 0.22 0.502 0.498 0.502 3.03 0 5.5 2.46 5.5 5.5 0 3.04-2.47 5.5-5.51 5.5zm-3.03 0h-10.8c0.47 2.56 2.71 4.5 5.41 4.5s4.94-1.94 5.41-4.5zm-9.54-39.5c-7.23 1.86-12.4 8.41-12.4 16v12c0 1.93-1.57 3.5-3.5 3.5-1.38 0-2.5 1.12-2.5 2.5 0 1.38 1.12 2.5 2.51 2.5h40c1.39 0 2.51-1.12 2.51-2.5 0-1.38-1.13-2.5-2.5-2.5-1.93 0-3.5-1.56-3.5-3.5v-12c0-7.57-5.14-14.1-12.4-16l-1.13-0.29v-3.23c0-1.66-1.34-3-3-3-1.65 0-3 1.35-3 3v3.23z"/>
  </g>
 </g>
</svg>
