<svg width="32.9mm" height="32.9mm" fill-rule="evenodd" stroke-linejoin="round" stroke-width="28.2" preserveAspectRatio="xMidYMid" version="1.2" viewBox="181 11 3294 3294" xmlns="http://www.w3.org/2000/svg">
 <defs class="EmbeddedBulletChars"></defs>
 <g class="Page">
  <g class="Group">
   <g class="Group">
    <g class="com.sun.star.drawing.PolyPolygonShape">
     <rect class="BoundingBox" x="1248" y="1072" width="1164" height="1164" fill="none"/>
     <path d="m2e3 1830-405 405-351-352 809-810 352 352z"/>
    </g>
    <g class="com.sun.star.drawing.ClosedBezierShape">
     <rect class="BoundingBox" x="927" y="2022" width="536" height="538" fill="none"/>
     <path d="m1023 2110c-11 11-16 21-22 37l-71 319c-13 53 34 101 90 90l317-77c13-2 27-10 37-21l88-87-352-348z"/>
    </g>
    <g class="com.sun.star.drawing.ClosedBezierShape">
     <rect class="BoundingBox" x="2196" y="757" width="531" height="531" fill="none"/>
     <path d="m2704 1025-246-246c-30-29-77-29-106 0l-156 156 351 352 157-156c29-29 29-77 0-106z"/>
    </g>
   </g>
   <g class="com.sun.star.drawing.CustomShape">
    <g fill="none">
     <rect class="BoundingBox" x="181" y="11" width="3294" height="3294"/>
     <path d="m3403 1658c0 276-73 548-211 787-138 240-337 439-577 577-239 138-511 211-787 211-277 0-549-73-788-211-240-138-439-337-577-577-138-239-211-511-211-787 0-277 73-549 211-788 138-240 337-439 577-577 239-138 511-211 787-211 277 0 549 73 788 211 240 138 439 337 577 577 138 239 211 511 211 787z" stroke="#3465a4" stroke-linejoin="round" stroke-width="141"/>
    </g>
   </g>
  </g>
 </g>
</svg>
