<svg width="505" height="512" version="1.1" viewBox="0 0 505 512" xmlns="http://www.w3.org/2000/svg">
 <g transform="translate(8.65)">
  <g>
   <path d="m406 332c-29.6 0-55.8 14.6-72.2 36.8l-142-72.6c2.36-8.03 4.01-16.3 4.01-25.1 0-11.9-2.44-23.2-6.66-33.6l148-89.3c16.5 19.4 40.8 32 68.2 32 49.6 0 90-40.4 90-90s-40.4-90-90-90-90 40.4-90 90c0 11.4 2.36 22.3 6.26 32.4l-149 89.6c-16.5-18.8-40.4-30.9-67.4-30.9-49.6 0-90 40.4-90 90s40.4 90 90 90c30.1 0 56.7-15 73-37.8l141 72.4c-2.6 8.41-4.41 17.2-4.41 26.4 0 49.6 40.4 90 90 90s90-40.4 90-90-40.4-90-90-90z"/>
  </g>
 </g>
 <g transform="matrix(.78 0 0 .78 -42.6 158)">
  <circle cx="197" cy="138" r="131" fill="#7fb2f9"/>
  <path d="m197 7c-11.3 0-22.2 1.43-32.7 4.12 56.4 14.5 98 65.7 98 127s-41.7 112-98 127c10.4 2.69 21.4 4.12 32.7 4.12 72.2 0 131-58.5 131-131s-58.5-131-131-131z" fill="#60a0f7"/>
  <g stroke-width=".707">
   <path d="m154 154c0 2.89 2.35 5.24 5.24 5.24 2.89 0 5.24-2.35 5.24-5.24s-2.35-5.24-5.24-5.24c-2.89 0-5.24 2.35-5.24 5.24z"/>
   <path d="m228 154c0 2.89 2.35 5.24 5.24 5.24s5.24-2.35 5.24-5.24-2.35-5.24-5.24-5.24-5.24 2.35-5.24 5.24z"/>
   <path d="m140 120-6.35 18.1-6.25-18.3c-6e-3 -0.0155-0.0128-0.0297-0.0184-0.0453-1.67-4.74-8.28-4.68-9.97-0.0601-5e-3 0.0128-0.0113 0.0248-0.0155 0.0382l-6.61 18.5-6.25-18.2c-0.955-2.77-3.97-4.24-6.74-3.3-2.77 0.955-4.24 3.97-3.3 6.74l11.2 32.5c0.736 2.13 2.73 3.57 4.99 3.58h0.0297c2.24 0 4.24-1.41 4.99-3.52l6.59-18.5 6.29 18.4c0.729 2.14 2.74 3.58 5 3.59h0.0219c2.25 0 4.26-1.42 5.01-3.55l11.4-32.6c0.969-2.77-0.487-5.79-3.25-6.76-2.77-0.969-5.79 0.487-6.76 3.25z"/>
   <path d="m214 120-6.35 18.1-6.25-18.3c-6e-3 -0.0155-0.0128-0.0297-0.0184-0.0453-1.64-4.67-8.28-4.75-9.97-0.0601-5e-3 0.0128-0.0113 0.0248-0.0155 0.0382l-6.61 18.5-6.25-18.2c-0.955-2.77-3.97-4.24-6.74-3.3-2.77 0.955-4.24 3.97-3.3 6.74l11.2 32.5c0.736 2.13 2.73 3.57 4.99 3.58h0.0305c2.24 0 4.24-1.41 4.99-3.52l6.59-18.5 6.29 18.5c0.729 2.14 2.74 3.58 5 3.59h0.0219c2.25 0 4.26-1.42 5.01-3.55l11.4-32.6c0.969-2.77-0.487-5.79-3.25-6.76-2.76-0.969-5.79 0.487-6.76 3.25z"/>
   <path d="m287 120-6.35 18.1-6.25-18.3c-1.65-4.77-8.28-4.74-9.97-0.106-5e-3 0.0128-0.0113 0.0248-0.0155 0.0382l-6.61 18.5-6.25-18.2c-0.955-2.77-3.97-4.24-6.74-3.3-2.77 0.955-4.24 3.97-3.3 6.74l11.2 32.5c0.736 2.13 2.73 3.57 4.99 3.58h0.0305c2.24 0 4.24-1.41 4.99-3.52l6.59-18.5 6.29 18.5c0.729 2.14 2.74 3.58 5 3.59h0.0219c2.25 0 4.26-1.42 5.01-3.55l11.4-32.6c0.969-2.77-0.487-5.79-3.25-6.76-2.77-0.969-5.79 0.487-6.76 3.25z"/>
  </g>
  <circle cx="199" cy="138" r="137" fill="none" stroke="#000018" stroke-linecap="round" stroke-linejoin="round" stroke-width="14.3"/>
  <g transform="matrix(.744 0 0 .744 145 -20.3)">
   <circle cx="591" cy="-90" r="131" fill="#7fb2f9"/>
   <path d="m591-221c-11.3 0-22.2 1.43-32.7 4.12 56.4 14.5 98 65.7 98 127 0 61.3-41.7 112-98 127 10.4 2.69 21.4 4.12 32.7 4.12 72.2 0 131-58.5 131-131 0-72.5-58.5-131-131-131z" fill="#60a0f7"/>
  </g>
  <g transform="matrix(.744 0 0 .744 146 404)">
   <circle cx="591" cy="-90" r="131" fill="#7fb2f9"/>
   <path d="m591-221c-11.3 0-22.2 1.43-32.7 4.12 56.4 14.5 98 65.7 98 127 0 61.3-41.7 112-98 127 10.4 2.69 21.4 4.12 32.7 4.12 72.2 0 131-58.5 131-131 0-72.5-58.5-131-131-131z" fill="#60a0f7"/>
  </g>
 </g>
</svg>
