<?xml version="1.0" encoding="UTF-8"?>
<!DOCTYPE svg PUBLIC "-//W3C//DTD SVG 1.1//EN" "http://www.w3.org/Graphics/SVG/1.1/DTD/svg11.dtd">
<svg version="1.2" width="142.57mm" height="142.58mm" viewBox="4277 7820 14257 14258" preserveAspectRatio="xMidYMid" fill-rule="evenodd" stroke-width="28.222" stroke-linejoin="round" xmlns="http://www.w3.org/2000/svg" xmlns:ooo="http://xml.openoffice.org/svg/export" xmlns:xlink="http://www.w3.org/1999/xlink" xmlns:presentation="http://sun.com/xmlns/staroffice/presentation" xmlns:smil="http://www.w3.org/2001/SMIL20/" xmlns:anim="urn:oasis:names:tc:opendocument:xmlns:animation:1.0" xml:space="preserve">
 <defs class="EmbeddedBulletChars">
  <g id="bullet-char-template-57356" transform="scale(0.00048828125,-0.00048828125)">
   <path d="M 580,1141 L 1163,571 580,0 -4,571 580,1141 Z"/>
  </g>
  <g id="bullet-char-template-57354" transform="scale(0.00048828125,-0.00048828125)">
   <path d="M 8,1128 L 1137,1128 1137,0 8,0 8,1128 Z"/>
  </g>
  <g id="bullet-char-template-10146" transform="scale(0.00048828125,-0.00048828125)">
   <path d="M 174,0 L 602,739 174,1481 1456,739 174,0 Z M 1358,739 L 309,1346 659,739 1358,739 Z"/>
  </g>
  <g id="bullet-char-template-10132" transform="scale(0.00048828125,-0.00048828125)">
   <path d="M 2015,739 L 1276,0 717,0 1260,543 174,543 174,936 1260,936 717,1481 1274,1481 2015,739 Z"/>
  </g>
  <g id="bullet-char-template-10007" transform="scale(0.00048828125,-0.00048828125)">
   <path d="M 0,-2 C -7,14 -16,27 -25,37 L 356,567 C 262,823 215,952 215,954 215,979 228,992 255,992 264,992 276,990 289,987 310,991 331,999 354,1012 L 381,999 492,748 772,1049 836,1024 860,1049 C 881,1039 901,1025 922,1006 886,937 835,863 770,784 769,783 710,716 594,584 L 774,223 C 774,196 753,168 711,139 L 727,119 C 717,90 699,76 672,76 641,76 570,178 457,381 L 164,-76 C 142,-110 111,-127 72,-127 30,-127 9,-110 8,-76 1,-67 -2,-52 -2,-32 -2,-23 -1,-13 0,-2 Z"/>
  </g>
  <g id="bullet-char-template-10004" transform="scale(0.00048828125,-0.00048828125)">
   <path d="M 285,-33 C 182,-33 111,30 74,156 52,228 41,333 41,471 41,549 55,616 82,672 116,743 169,778 240,778 293,778 328,747 346,684 L 369,508 C 377,444 397,411 428,410 L 1163,1116 C 1174,1127 1196,1133 1229,1133 1271,1133 1292,1118 1292,1087 L 1292,965 C 1292,929 1282,901 1262,881 L 442,47 C 390,-6 338,-33 285,-33 Z"/>
  </g>
  <g id="bullet-char-template-9679" transform="scale(0.00048828125,-0.00048828125)">
   <path d="M 813,0 C 632,0 489,54 383,161 276,268 223,411 223,592 223,773 276,916 383,1023 489,1130 632,1184 813,1184 992,1184 1136,1130 1245,1023 1353,916 1407,772 1407,592 1407,412 1353,268 1245,161 1136,54 992,0 813,0 Z"/>
  </g>
  <g id="bullet-char-template-8226" transform="scale(0.00048828125,-0.00048828125)">
   <path d="M 346,457 C 273,457 209,483 155,535 101,586 74,649 74,723 74,796 101,859 155,911 209,963 273,989 346,989 419,989 480,963 531,910 582,859 608,796 608,723 608,648 583,586 532,535 482,483 420,457 346,457 Z"/>
  </g>
  <g id="bullet-char-template-8211" transform="scale(0.00048828125,-0.00048828125)">
   <path d="M -4,459 L 1135,459 1135,606 -4,606 -4,459 Z"/>
  </g>
  <g id="bullet-char-template-61548" transform="scale(0.00048828125,-0.00048828125)">
   <path d="M 173,740 C 173,903 231,1043 346,1159 462,1274 601,1332 765,1332 928,1332 1067,1274 1183,1159 1299,1043 1357,903 1357,740 1357,577 1299,437 1183,322 1067,206 928,148 765,148 601,148 462,206 346,322 231,437 173,577 173,740 Z"/>
  </g>
 </defs>
 <g class="Page">
  <g class="com.sun.star.drawing.ClosedBezierShape">
   <g id="id3">
    <rect class="BoundingBox" stroke="none" fill="none" x="4277" y="7820" width="14257" height="14258"/>
    <path fill="rgb(180,199,220)" stroke="none" d="M 14210,12266 C 14054,12239 13906,12341 13877,12495 L 13836,12720 C 13129,12270 12262,12142 11455,12370 10278,12676 9350,13582 9018,14753 8781,15522 8923,16359 9401,17008 9837,17621 10543,17986 11295,17988 12215,17963 13051,17453 13496,16649 13954,17527 14887,18053 15877,17988 17351,17853 18473,16606 18453,15124 18453,11331 15376,8253 11581,8253 7787,8253 4710,11330 4710,15124 4710,18919 7787,21997 11581,21997 13134,22003 14643,21477 15855,20507 15982,20414 16010,20235 15916,20108 15823,19980 15644,19952 15516,20046 15510,20050 15504,20055 15499,20060 14387,20949 13005,21430 11581,21424 8103,21424 5283,18603 5283,15124 5283,11646 8103,8826 11581,8826 15060,8826 17881,11646 17881,15124 17898,16288 17032,17278 15877,17416 14952,17416 13873,16965 13868,15749 L 14441,12599 C 14468,12444 14365,12295 14210,12266 Z M 11295,17416 C 10726,17412 10193,17135 9864,16671 9493,16170 9383,15523 9565,14927 9831,13942 10607,13178 11596,12929 12312,12713 13088,12863 13673,13330 13689,13342 13704,13352 13722,13361 L 13315,15621 C 13315,15626 13308,15630 13307,15636 13113,16613 12290,17341 11295,17416 Z"/>
    <path fill="none" stroke="rgb(180,199,220)" stroke-width="159" stroke-linejoin="miter" d="M 14210,12266 C 14054,12239 13906,12341 13877,12495 L 13836,12720 C 13129,12270 12262,12142 11455,12370 10278,12676 9350,13582 9018,14753 8781,15522 8923,16359 9401,17008 9837,17621 10543,17986 11295,17988 12215,17963 13051,17453 13496,16649 13954,17527 14887,18053 15877,17988 17351,17853 18473,16606 18453,15124 18453,11331 15376,8253 11581,8253 7787,8253 4710,11330 4710,15124 4710,18919 7787,21997 11581,21997 13134,22003 14643,21477 15855,20507 15982,20414 16010,20235 15916,20108 15823,19980 15644,19952 15516,20046 15510,20050 15504,20055 15499,20060 14387,20949 13005,21430 11581,21424 8103,21424 5283,18603 5283,15124 5283,11646 8103,8826 11581,8826 15060,8826 17881,11646 17881,15124 17898,16288 17032,17278 15877,17416 14952,17416 13873,16965 13868,15749 L 14441,12599 C 14468,12444 14365,12295 14210,12266 Z"/>
    <path fill="none" stroke="rgb(180,199,220)" stroke-width="159" stroke-linejoin="miter" d="M 11295,17416 C 10726,17412 10193,17135 9864,16671 9493,16170 9383,15523 9565,14927 9831,13942 10607,13178 11596,12929 12312,12713 13088,12863 13673,13330 13689,13342 13704,13352 13722,13361 L 13315,15621 C 13315,15626 13308,15630 13307,15636 13113,16613 12290,17341 11295,17416 Z"/>
    <path fill="rgb(0,81,252)" stroke="none" d="M 13857,11913 C 13701,11886 13553,11988 13524,12142 L 13483,12367 C 12776,11917 11909,11789 11102,12017 9925,12323 8997,13229 8665,14400 8428,15169 8570,16006 9048,16655 9484,17268 10190,17633 10942,17635 11862,17610 12698,17100 13143,16296 13601,17174 14534,17700 15524,17635 16998,17500 18120,16253 18100,14771 18100,10978 15023,7900 11228,7900 7434,7900 4357,10977 4357,14771 4357,18566 7434,21644 11228,21644 12781,21650 14290,21124 15502,20154 15629,20061 15657,19882 15563,19755 15470,19627 15291,19599 15163,19693 15157,19697 15151,19702 15146,19707 14034,20596 12652,21077 11228,21071 7750,21071 4930,18250 4930,14771 4930,11293 7750,8473 11228,8473 14707,8473 17528,11293 17528,14771 17545,15935 16679,16925 15524,17063 14599,17063 13520,16612 13515,15396 L 14088,12246 C 14115,12091 14012,11942 13857,11913 Z M 10942,17063 C 10373,17059 9840,16782 9511,16318 9140,15817 9030,15170 9212,14574 9478,13589 10254,12825 11243,12576 11959,12360 12735,12510 13320,12977 13336,12989 13351,12999 13369,13008 L 12962,15268 C 12962,15273 12955,15277 12954,15283 12760,16260 11937,16988 10942,17063 Z"/>
    <path fill="none" stroke="rgb(0,81,252)" stroke-width="159" stroke-linejoin="miter" d="M 13857,11913 C 13701,11886 13553,11988 13524,12142 L 13483,12367 C 12776,11917 11909,11789 11102,12017 9925,12323 8997,13229 8665,14400 8428,15169 8570,16006 9048,16655 9484,17268 10190,17633 10942,17635 11862,17610 12698,17100 13143,16296 13601,17174 14534,17700 15524,17635 16998,17500 18120,16253 18100,14771 18100,10978 15023,7900 11228,7900 7434,7900 4357,10977 4357,14771 4357,18566 7434,21644 11228,21644 12781,21650 14290,21124 15502,20154 15629,20061 15657,19882 15563,19755 15470,19627 15291,19599 15163,19693 15157,19697 15151,19702 15146,19707 14034,20596 12652,21077 11228,21071 7750,21071 4930,18250 4930,14771 4930,11293 7750,8473 11228,8473 14707,8473 17528,11293 17528,14771 17545,15935 16679,16925 15524,17063 14599,17063 13520,16612 13515,15396 L 14088,12246 C 14115,12091 14012,11942 13857,11913 Z"/>
    <path fill="none" stroke="rgb(0,81,252)" stroke-width="159" stroke-linejoin="miter" d="M 10942,17063 C 10373,17059 9840,16782 9511,16318 9140,15817 9030,15170 9212,14574 9478,13589 10254,12825 11243,12576 11959,12360 12735,12510 13320,12977 13336,12989 13351,12999 13369,13008 L 12962,15268 C 12962,15273 12955,15277 12954,15283 12760,16260 11937,16988 10942,17063 Z"/>
   </g>
  </g>
 </g>
</svg>