<?xml version="1.0" encoding="UTF-8"?>
<!DOCTYPE svg PUBLIC "-//W3C//DTD SVG 1.1//EN" "http://www.w3.org/Graphics/SVG/1.1/DTD/svg11.dtd">
<svg version="1.2" width="132.02mm" height="135.48mm" viewBox="4400 7540 13202 13548" preserveAspectRatio="xMidYMid" fill-rule="evenodd" stroke-width="28.222" stroke-linejoin="round" xmlns="http://www.w3.org/2000/svg" xmlns:ooo="http://xml.openoffice.org/svg/export" xmlns:xlink="http://www.w3.org/1999/xlink" xmlns:presentation="http://sun.com/xmlns/staroffice/presentation" xmlns:smil="http://www.w3.org/2001/SMIL20/" xmlns:anim="urn:oasis:names:tc:opendocument:xmlns:animation:1.0" xml:space="preserve">
 <defs class="EmbeddedBulletChars">
  <g id="bullet-char-template-57356" transform="scale(0.00048828125,-0.00048828125)">
   <path d="M 580,1141 L 1163,571 580,0 -4,571 580,1141 Z"/>
  </g>
  <g id="bullet-char-template-57354" transform="scale(0.00048828125,-0.00048828125)">
   <path d="M 8,1128 L 1137,1128 1137,0 8,0 8,1128 Z"/>
  </g>
  <g id="bullet-char-template-10146" transform="scale(0.00048828125,-0.00048828125)">
   <path d="M 174,0 L 602,739 174,1481 1456,739 174,0 Z M 1358,739 L 309,1346 659,739 1358,739 Z"/>
  </g>
  <g id="bullet-char-template-10132" transform="scale(0.00048828125,-0.00048828125)">
   <path d="M 2015,739 L 1276,0 717,0 1260,543 174,543 174,936 1260,936 717,1481 1274,1481 2015,739 Z"/>
  </g>
  <g id="bullet-char-template-10007" transform="scale(0.00048828125,-0.00048828125)">
   <path d="M 0,-2 C -7,14 -16,27 -25,37 L 356,567 C 262,823 215,952 215,954 215,979 228,992 255,992 264,992 276,990 289,987 310,991 331,999 354,1012 L 381,999 492,748 772,1049 836,1024 860,1049 C 881,1039 901,1025 922,1006 886,937 835,863 770,784 769,783 710,716 594,584 L 774,223 C 774,196 753,168 711,139 L 727,119 C 717,90 699,76 672,76 641,76 570,178 457,381 L 164,-76 C 142,-110 111,-127 72,-127 30,-127 9,-110 8,-76 1,-67 -2,-52 -2,-32 -2,-23 -1,-13 0,-2 Z"/>
  </g>
  <g id="bullet-char-template-10004" transform="scale(0.00048828125,-0.00048828125)">
   <path d="M 285,-33 C 182,-33 111,30 74,156 52,228 41,333 41,471 41,549 55,616 82,672 116,743 169,778 240,778 293,778 328,747 346,684 L 369,508 C 377,444 397,411 428,410 L 1163,1116 C 1174,1127 1196,1133 1229,1133 1271,1133 1292,1118 1292,1087 L 1292,965 C 1292,929 1282,901 1262,881 L 442,47 C 390,-6 338,-33 285,-33 Z"/>
  </g>
  <g id="bullet-char-template-9679" transform="scale(0.00048828125,-0.00048828125)">
   <path d="M 813,0 C 632,0 489,54 383,161 276,268 223,411 223,592 223,773 276,916 383,1023 489,1130 632,1184 813,1184 992,1184 1136,1130 1245,1023 1353,916 1407,772 1407,592 1407,412 1353,268 1245,161 1136,54 992,0 813,0 Z"/>
  </g>
  <g id="bullet-char-template-8226" transform="scale(0.00048828125,-0.00048828125)">
   <path d="M 346,457 C 273,457 209,483 155,535 101,586 74,649 74,723 74,796 101,859 155,911 209,963 273,989 346,989 419,989 480,963 531,910 582,859 608,796 608,723 608,648 583,586 532,535 482,483 420,457 346,457 Z"/>
  </g>
  <g id="bullet-char-template-8211" transform="scale(0.00048828125,-0.00048828125)">
   <path d="M -4,459 L 1135,459 1135,606 -4,606 -4,459 Z"/>
  </g>
  <g id="bullet-char-template-61548" transform="scale(0.00048828125,-0.00048828125)">
   <path d="M 173,740 C 173,903 231,1043 346,1159 462,1274 601,1332 765,1332 928,1332 1067,1274 1183,1159 1299,1043 1357,903 1357,740 1357,577 1299,437 1183,322 1067,206 928,148 765,148 601,148 462,206 346,322 231,437 173,577 173,740 Z"/>
  </g>
 </defs>
 <g class="Page">
  <g class="Group">
   <g class="com.sun.star.drawing.ClosedBezierShape">
    <g id="id3">
     <rect class="BoundingBox" stroke="none" fill="none" x="4450" y="7540" width="13072" height="13548"/>
     <path fill="rgb(37,107,255)" stroke="none" d="M 16329,11377 L 16038,11377 16038,11264 C 16038,10754 15845,10269 15494,9899 L 13846,8160 C 13473,7767 12948,7541 12406,7541 L 7123,7541 C 6467,7541 5933,8075 5933,8732 L 5933,11377 5642,11377 C 4985,11377 4451,11911 4451,12568 L 4451,17329 C 4451,17985 4985,18520 5642,18520 L 5933,18520 5933,19895 C 5933,20552 6467,21086 7123,21086 L 14848,21086 C 15504,21086 16038,20552 16038,19895 L 16038,18520 16329,18520 C 16986,18520 17520,17985 17520,17329 L 17520,12568 C 17520,11911 16986,11377 16329,11377 Z M 6727,8732 C 6727,8513 6905,8335 7123,8335 L 12406,8335 C 12731,8335 13046,8470 13270,8706 L 14918,10445 C 15128,10667 15244,10958 15244,11264 L 15244,11377 6727,11377 6727,8732 Z M 15244,19895 C 15244,20114 15066,20292 14848,20292 L 7123,20292 C 6905,20292 6727,20114 6727,19895 L 6727,18520 15244,18520 15244,19895 Z M 16726,17329 C 16726,17548 16548,17726 16329,17726 L 5642,17726 C 5423,17726 5245,17548 5245,17329 L 5245,12568 C 5245,12349 5423,12171 5642,12171 L 16329,12171 C 16548,12171 16726,12349 16726,12568 L 16726,17329 Z"/>
    </g>
   </g>
   <g class="com.sun.star.drawing.CustomShape">
    <g id="id4">
     <rect class="BoundingBox" stroke="none" fill="none" x="4400" y="11300" width="13202" height="7302"/>
     <path fill="rgb(255,0,0)" stroke="none" d="M 5616,11300 L 5617,11300 C 5403,11300 5193,11356 5008,11463 4823,11570 4670,11723 4563,11908 4456,12093 4400,12303 4400,12517 L 4400,17384 4400,17384 C 4400,17598 4456,17808 4563,17993 4670,18178 4823,18331 5008,18438 5193,18545 5403,18601 5617,18601 L 16384,18600 16384,18601 C 16598,18601 16808,18545 16993,18438 17178,18331 17331,18178 17438,17993 17545,17808 17601,17598 17601,17384 L 17601,12516 17601,12517 17601,12517 C 17601,12303 17545,12093 17438,11908 17331,11723 17178,11570 16993,11463 16808,11356 16598,11300 16384,11300 L 5616,11300 Z"/>
    </g>
   </g>
   <g class="com.sun.star.drawing.ClosedBezierShape">
    <g id="id5">
     <rect class="BoundingBox" stroke="none" fill="none" x="6355" y="13070" width="2503" height="3811"/>
     <path fill="rgb(255,255,255)" stroke="none" d="M 6753,13071 C 6648,13071 6546,13112 6472,13187 6397,13261 6356,13363 6356,13469 L 6362,16482 C 6362,16701 6540,16879 6759,16879 6978,16879 7156,16701 7156,16482 L 7156,15567 C 7318,15566 7491,15565 7593,15565 8290,15565 8857,15006 8857,14317 8857,13629 8290,13071 7593,13071 L 6753,13071 Z M 7154,14773 C 7153,14604 7152,14422 7152,14317 7152,14229 7151,14041 7151,13864 L 7593,13864 C 7848,13864 8064,14071 8064,14317 8064,14564 7848,14772 7593,14772 7490,14772 7316,14772 7154,14773 Z"/>
    </g>
   </g>
   <g class="com.sun.star.drawing.ClosedBezierShape">
    <g id="id6">
     <rect class="BoundingBox" stroke="none" fill="none" x="9742" y="13070" width="2806" height="3722"/>
     <path fill="rgb(255,255,255)" stroke="none" d="M 10139,13071 C 10034,13071 9933,13112 9859,13187 9784,13262 9742,13363 9743,13468 9743,13468 9748,16384 9748,16394 9749,16500 9791,16600 9866,16675 9940,16748 10041,16790 10145,16790 L 10147,16790 C 10172,16790 10763,16787 10998,16783 11895,16768 12546,15988 12546,14930 12546,13818 11912,13071 10968,13071 L 10139,13071 Z M 10986,15990 C 10883,15992 10706,15993 10541,15994 10540,15649 10538,14222 10537,13864 L 10968,13864 C 11696,13864 11752,14680 11752,14930 11752,15451 11515,15981 10986,15990 Z"/>
    </g>
   </g>
   <g class="com.sun.star.drawing.ClosedBezierShape">
    <g id="id7">
     <rect class="BoundingBox" stroke="none" fill="none" x="13551" y="13039" width="2009" height="3789"/>
     <path fill="rgb(255,255,255)" stroke="none" d="M 15161,13834 C 15381,13834 15558,13656 15558,13437 15558,13218 15381,13040 15161,13040 L 13948,13040 C 13729,13040 13551,13218 13551,13437 L 13551,16429 C 13551,16649 13729,16826 13948,16826 14167,16826 14345,16649 14345,16429 L 14345,15301 15065,15301 C 15284,15301 15462,15123 15462,14904 15462,14685 15284,14507 15065,14507 L 14345,14507 14345,13834 15161,13834 Z"/>
    </g>
   </g>
  </g>
 </g>
</svg>