<?xml version="1.0" encoding="UTF-8"?>
<!DOCTYPE svg PUBLIC "-//W3C//DTD SVG 1.1//EN" "http://www.w3.org/Graphics/SVG/1.1/DTD/svg11.dtd">
<svg version="1.2" width="114.06mm" height="145.25mm" viewBox="4671 6873 11406 14525" preserveAspectRatio="xMidYMid" fill-rule="evenodd" stroke-width="28.222" stroke-linejoin="round" xmlns="http://www.w3.org/2000/svg" xmlns:ooo="http://xml.openoffice.org/svg/export" xmlns:xlink="http://www.w3.org/1999/xlink" xmlns:presentation="http://sun.com/xmlns/staroffice/presentation" xmlns:smil="http://www.w3.org/2001/SMIL20/" xmlns:anim="urn:oasis:names:tc:opendocument:xmlns:animation:1.0" xml:space="preserve">
 <defs class="EmbeddedBulletChars">
  <g id="bullet-char-template-57356" transform="scale(0.00048828125,-0.00048828125)">
   <path d="M 580,1141 L 1163,571 580,0 -4,571 580,1141 Z"/>
  </g>
  <g id="bullet-char-template-57354" transform="scale(0.00048828125,-0.00048828125)">
   <path d="M 8,1128 L 1137,1128 1137,0 8,0 8,1128 Z"/>
  </g>
  <g id="bullet-char-template-10146" transform="scale(0.00048828125,-0.00048828125)">
   <path d="M 174,0 L 602,739 174,1481 1456,739 174,0 Z M 1358,739 L 309,1346 659,739 1358,739 Z"/>
  </g>
  <g id="bullet-char-template-10132" transform="scale(0.00048828125,-0.00048828125)">
   <path d="M 2015,739 L 1276,0 717,0 1260,543 174,543 174,936 1260,936 717,1481 1274,1481 2015,739 Z"/>
  </g>
  <g id="bullet-char-template-10007" transform="scale(0.00048828125,-0.00048828125)">
   <path d="M 0,-2 C -7,14 -16,27 -25,37 L 356,567 C 262,823 215,952 215,954 215,979 228,992 255,992 264,992 276,990 289,987 310,991 331,999 354,1012 L 381,999 492,748 772,1049 836,1024 860,1049 C 881,1039 901,1025 922,1006 886,937 835,863 770,784 769,783 710,716 594,584 L 774,223 C 774,196 753,168 711,139 L 727,119 C 717,90 699,76 672,76 641,76 570,178 457,381 L 164,-76 C 142,-110 111,-127 72,-127 30,-127 9,-110 8,-76 1,-67 -2,-52 -2,-32 -2,-23 -1,-13 0,-2 Z"/>
  </g>
  <g id="bullet-char-template-10004" transform="scale(0.00048828125,-0.00048828125)">
   <path d="M 285,-33 C 182,-33 111,30 74,156 52,228 41,333 41,471 41,549 55,616 82,672 116,743 169,778 240,778 293,778 328,747 346,684 L 369,508 C 377,444 397,411 428,410 L 1163,1116 C 1174,1127 1196,1133 1229,1133 1271,1133 1292,1118 1292,1087 L 1292,965 C 1292,929 1282,901 1262,881 L 442,47 C 390,-6 338,-33 285,-33 Z"/>
  </g>
  <g id="bullet-char-template-9679" transform="scale(0.00048828125,-0.00048828125)">
   <path d="M 813,0 C 632,0 489,54 383,161 276,268 223,411 223,592 223,773 276,916 383,1023 489,1130 632,1184 813,1184 992,1184 1136,1130 1245,1023 1353,916 1407,772 1407,592 1407,412 1353,268 1245,161 1136,54 992,0 813,0 Z"/>
  </g>
  <g id="bullet-char-template-8226" transform="scale(0.00048828125,-0.00048828125)">
   <path d="M 346,457 C 273,457 209,483 155,535 101,586 74,649 74,723 74,796 101,859 155,911 209,963 273,989 346,989 419,989 480,963 531,910 582,859 608,796 608,723 608,648 583,586 532,535 482,483 420,457 346,457 Z"/>
  </g>
  <g id="bullet-char-template-8211" transform="scale(0.00048828125,-0.00048828125)">
   <path d="M -4,459 L 1135,459 1135,606 -4,606 -4,459 Z"/>
  </g>
  <g id="bullet-char-template-61548" transform="scale(0.00048828125,-0.00048828125)">
   <path d="M 173,740 C 173,903 231,1043 346,1159 462,1274 601,1332 765,1332 928,1332 1067,1274 1183,1159 1299,1043 1357,903 1357,740 1357,577 1299,437 1183,322 1067,206 928,148 765,148 601,148 462,206 346,322 231,437 173,577 173,740 Z"/>
  </g>
 </defs>
 <g class="Page">
  <g class="Group">
   <g class="com.sun.star.drawing.ClosedBezierShape">
    <g id="id3">
     <rect class="BoundingBox" stroke="none" fill="none" x="4671" y="6873" width="11404" height="14525"/>
     <path fill="rgb(5,133,45)" stroke="none" d="M 16074,10703 L 13004,9852 12127,6873 5987,6873 C 5260,6873 4671,7445 4671,8150 L 4671,20119 C 4671,20825 5260,21396 5987,21396 L 14758,21396 C 15485,21396 16074,20825 16074,20119 L 16074,10703 Z"/>
    </g>
   </g>
   <g class="com.sun.star.drawing.ClosedBezierShape">
    <g id="id4">
     <rect class="BoundingBox" stroke="none" fill="none" x="10373" y="6873" width="5704" height="14525"/>
     <path fill="rgb(1,170,54)" stroke="none" d="M 16075,10703 L 16075,20119 C 16075,20825 15486,21396 14759,21396 L 10373,21396 10373,6873 12127,6873 13005,9852 16075,10703 Z"/>
    </g>
   </g>
   <g class="com.sun.star.drawing.ClosedBezierShape">
    <g id="id5">
     <rect class="BoundingBox" stroke="none" fill="none" x="12125" y="6873" width="3949" height="3831"/>
     <path fill="rgb(5,133,45)" stroke="none" d="M 16073,10703 L 13003,10703 C 12521,10703 12125,10320 12125,9852 L 12125,6873 C 12240,6873 12354,6916 12432,7001 L 15941,10405 C 16029,10481 16073,10592 16073,10703 Z"/>
    </g>
   </g>
   <g class="com.sun.star.drawing.ClosedBezierShape">
    <g id="id6">
     <rect class="BoundingBox" stroke="none" fill="none" x="7302" y="12108" width="6142" height="853"/>
     <path fill="rgb(255,245,245)" stroke="none" d="M 13004,12959 L 7741,12959 C 7499,12959 7302,12769 7302,12534 7302,12298 7499,12108 7741,12108 L 13004,12108 C 13246,12108 13443,12298 13443,12534 13443,12769 13246,12959 13004,12959 Z"/>
    </g>
   </g>
   <g class="com.sun.star.drawing.ClosedBezierShape">
    <g id="id7">
     <rect class="BoundingBox" stroke="none" fill="none" x="7302" y="14347" width="6142" height="853"/>
     <path fill="rgb(255,245,245)" stroke="none" d="M 13004,15198 L 7741,15198 C 7499,15198 7302,15007 7302,14773 7302,14537 7499,14347 7741,14347 L 13004,14347 C 13246,14347 13443,14537 13443,14773 13443,15007 13246,15198 13004,15198 Z"/>
    </g>
   </g>
   <g class="com.sun.star.drawing.ClosedBezierShape">
    <g id="id8">
     <rect class="BoundingBox" stroke="none" fill="none" x="7302" y="16263" width="6142" height="853"/>
     <path fill="rgb(255,245,245)" stroke="none" d="M 13004,17114 L 7741,17114 C 7499,17114 7302,16923 7302,16689 7302,16454 7499,16263 7741,16263 L 13004,16263 C 13246,16263 13443,16454 13443,16689 13443,16923 13246,17114 13004,17114 Z"/>
    </g>
   </g>
   <g class="com.sun.star.drawing.ClosedBezierShape">
    <g id="id9">
     <rect class="BoundingBox" stroke="none" fill="none" x="7302" y="18394" width="4388" height="852"/>
     <path fill="rgb(255,245,245)" stroke="none" d="M 11250,19244 L 7741,19244 C 7499,19244 7302,19053 7302,18819 7302,18583 7499,18394 7741,18394 L 11250,18394 C 11492,18394 11689,18583 11689,18819 11689,19053 11492,19244 11250,19244 Z"/>
    </g>
   </g>
   <g class="com.sun.star.drawing.ClosedBezierShape">
    <g id="id10">
     <rect class="BoundingBox" stroke="none" fill="none" x="9047" y="18394" width="1318" height="852"/>
     <path fill="rgb(227,231,234)" stroke="none" d="M 9047,19244 L 9925,19244 C 10167,19244 10363,19053 10363,18819 10363,18583 10167,18394 9925,18394 L 9047,18394 9047,19244 Z"/>
    </g>
   </g>
   <g class="com.sun.star.drawing.ClosedBezierShape">
    <g id="id11">
     <rect class="BoundingBox" stroke="none" fill="none" x="10373" y="16263" width="3072" height="853"/>
     <path fill="rgb(227,231,234)" stroke="none" d="M 10373,17114 L 13005,17114 C 13247,17114 13443,16923 13443,16689 13443,16454 13247,16263 13005,16263 L 10373,16263 10373,17114 Z"/>
    </g>
   </g>
   <g class="com.sun.star.drawing.ClosedBezierShape">
    <g id="id12">
     <rect class="BoundingBox" stroke="none" fill="none" x="10373" y="14347" width="3072" height="853"/>
     <path fill="rgb(227,231,234)" stroke="none" d="M 10373,15198 L 13005,15198 C 13247,15198 13443,15007 13443,14773 13443,14537 13247,14347 13005,14347 L 10373,14347 10373,15198 Z"/>
    </g>
   </g>
   <g class="com.sun.star.drawing.ClosedBezierShape">
    <g id="id13">
     <rect class="BoundingBox" stroke="none" fill="none" x="10373" y="12108" width="3072" height="853"/>
     <path fill="rgb(227,231,234)" stroke="none" d="M 10373,12959 L 13005,12959 C 13247,12959 13443,12769 13443,12534 13443,12298 13247,12108 13005,12108 L 10373,12108 10373,12959 Z"/>
    </g>
   </g>
   <g class="com.sun.star.drawing.CustomShape">
    <g id="id14">
     <rect class="BoundingBox" stroke="none" fill="none" x="7722" y="12383" width="5301" height="301"/>
     <path fill="rgb(255,165,0)" stroke="none" d="M 10372,12683 L 7722,12683 7722,12383 13022,12383 13022,12683 10372,12683 Z"/>
    </g>
   </g>
   <g class="com.sun.star.drawing.CustomShape">
    <g id="id15">
     <rect class="BoundingBox" stroke="none" fill="none" x="7722" y="14622" width="5301" height="301"/>
     <path fill="rgb(255,165,0)" stroke="none" d="M 10372,14922 L 7722,14922 7722,14622 13022,14622 13022,14922 10372,14922 Z"/>
    </g>
   </g>
   <g class="com.sun.star.drawing.CustomShape">
    <g id="id16">
     <rect class="BoundingBox" stroke="none" fill="none" x="7722" y="16538" width="5301" height="301"/>
     <path fill="rgb(255,165,0)" stroke="none" d="M 10372,16838 L 7722,16838 7722,16538 13022,16538 13022,16838 10372,16838 Z"/>
    </g>
   </g>
   <g class="com.sun.star.drawing.CustomShape">
    <g id="id17">
     <rect class="BoundingBox" stroke="none" fill="none" x="8116" y="18669" width="3179" height="301"/>
     <path fill="rgb(255,165,0)" stroke="none" d="M 9705,18969 L 8116,18969 8116,18669 11294,18669 11294,18969 9705,18969 Z"/>
    </g>
   </g>
  </g>
 </g>
</svg>