<?xml version="1.0" encoding="UTF-8" standalone="no"?>
<svg
   xmlns:dc="http://purl.org/dc/elements/1.1/"
   xmlns:cc="http://creativecommons.org/ns#"
   xmlns:rdf="http://www.w3.org/1999/02/22-rdf-syntax-ns#"
   xmlns:svg="http://www.w3.org/2000/svg"
   xmlns="http://www.w3.org/2000/svg"
   xmlns:sodipodi="http://sodipodi.sourceforge.net/DTD/sodipodi-0.dtd"
   xmlns:inkscape="http://www.inkscape.org/namespaces/inkscape"
   version="1.2"
   width="107.64mm"
   height="101.21mm"
   viewBox="5304 8099 10764 10121"
   preserveAspectRatio="xMidYMid"
   fill-rule="evenodd"
   stroke-width="28.222"
   stroke-linejoin="round"
   xml:space="preserve"
   id="svg73"
   sodipodi:docname="geodomains.svg"
   inkscape:version="0.92.4 (5da689c313, 2019-01-14)"><metadata
   id="metadata77"><rdf:RDF><cc:Work
       rdf:about=""><dc:format>image/svg+xml</dc:format><dc:type
         rdf:resource="http://purl.org/dc/dcmitype/StillImage" /></cc:Work></rdf:RDF></metadata><sodipodi:namedview
   pagecolor="#ffffff"
   bordercolor="#666666"
   borderopacity="1"
   objecttolerance="10"
   gridtolerance="10"
   guidetolerance="10"
   inkscape:pageopacity="0"
   inkscape:pageshadow="2"
   inkscape:window-width="1366"
   inkscape:window-height="705"
   id="namedview75"
   showgrid="false"
   inkscape:zoom="0.61695156"
   inkscape:cx="203.41417"
   inkscape:cy="191.26299"
   inkscape:window-x="-8"
   inkscape:window-y="-8"
   inkscape:window-maximized="1"
   inkscape:current-layer="g69" />
 <defs
   class="EmbeddedBulletChars"
   id="defs32">
  <g
   id="bullet-char-template-57356"
   transform="scale(0.00048828125,-0.00048828125)">
   <path
   d="M 580,1141 L 1163,571 580,0 -4,571 580,1141 Z"
   id="path2" />
  </g>
  <g
   id="bullet-char-template-57354"
   transform="scale(0.00048828125,-0.00048828125)">
   <path
   d="M 8,1128 L 1137,1128 1137,0 8,0 8,1128 Z"
   id="path5" />
  </g>
  <g
   id="bullet-char-template-10146"
   transform="scale(0.00048828125,-0.00048828125)">
   <path
   d="M 174,0 L 602,739 174,1481 1456,739 174,0 Z M 1358,739 L 309,1346 659,739 1358,739 Z"
   id="path8" />
  </g>
  <g
   id="bullet-char-template-10132"
   transform="scale(0.00048828125,-0.00048828125)">
   <path
   d="M 2015,739 L 1276,0 717,0 1260,543 174,543 174,936 1260,936 717,1481 1274,1481 2015,739 Z"
   id="path11" />
  </g>
  <g
   id="bullet-char-template-10007"
   transform="scale(0.00048828125,-0.00048828125)">
   <path
   d="M 0,-2 C -7,14 -16,27 -25,37 L 356,567 C 262,823 215,952 215,954 215,979 228,992 255,992 264,992 276,990 289,987 310,991 331,999 354,1012 L 381,999 492,748 772,1049 836,1024 860,1049 C 881,1039 901,1025 922,1006 886,937 835,863 770,784 769,783 710,716 594,584 L 774,223 C 774,196 753,168 711,139 L 727,119 C 717,90 699,76 672,76 641,76 570,178 457,381 L 164,-76 C 142,-110 111,-127 72,-127 30,-127 9,-110 8,-76 1,-67 -2,-52 -2,-32 -2,-23 -1,-13 0,-2 Z"
   id="path14" />
  </g>
  <g
   id="bullet-char-template-10004"
   transform="scale(0.00048828125,-0.00048828125)">
   <path
   d="M 285,-33 C 182,-33 111,30 74,156 52,228 41,333 41,471 41,549 55,616 82,672 116,743 169,778 240,778 293,778 328,747 346,684 L 369,508 C 377,444 397,411 428,410 L 1163,1116 C 1174,1127 1196,1133 1229,1133 1271,1133 1292,1118 1292,1087 L 1292,965 C 1292,929 1282,901 1262,881 L 442,47 C 390,-6 338,-33 285,-33 Z"
   id="path17" />
  </g>
  <g
   id="bullet-char-template-9679"
   transform="scale(0.00048828125,-0.00048828125)">
   <path
   d="M 813,0 C 632,0 489,54 383,161 276,268 223,411 223,592 223,773 276,916 383,1023 489,1130 632,1184 813,1184 992,1184 1136,1130 1245,1023 1353,916 1407,772 1407,592 1407,412 1353,268 1245,161 1136,54 992,0 813,0 Z"
   id="path20" />
  </g>
  <g
   id="bullet-char-template-8226"
   transform="scale(0.00048828125,-0.00048828125)">
   <path
   d="M 346,457 C 273,457 209,483 155,535 101,586 74,649 74,723 74,796 101,859 155,911 209,963 273,989 346,989 419,989 480,963 531,910 582,859 608,796 608,723 608,648 583,586 532,535 482,483 420,457 346,457 Z"
   id="path23" />
  </g>
  <g
   id="bullet-char-template-8211"
   transform="scale(0.00048828125,-0.00048828125)">
   <path
   d="M -4,459 L 1135,459 1135,606 -4,606 -4,459 Z"
   id="path26" />
  </g>
  <g
   id="bullet-char-template-61548"
   transform="scale(0.00048828125,-0.00048828125)">
   <path
   d="M 173,740 C 173,903 231,1043 346,1159 462,1274 601,1332 765,1332 928,1332 1067,1274 1183,1159 1299,1043 1357,903 1357,740 1357,577 1299,437 1183,322 1067,206 928,148 765,148 601,148 462,206 346,322 231,437 173,577 173,740 Z"
   id="path29" />
  </g>
 </defs>
 <g
   class="Page"
   id="g71">
  <g
   class="Group"
   id="g69">
   <g
   class="com.sun.star.drawing.ClosedBezierShape"
   id="g39">
    <g
   id="id3">
     <rect
   class="BoundingBox"
   stroke="none"
   fill="none"
   x="5304"
   y="14260"
   width="10764"
   height="3960"
   id="rect34" />
     <path
   fill="rgb(0,81,252)"
   stroke="none"
   d="M 12090,14260 C 11662,14937 11193,15586 10686,16204 10178,15586 9709,14937 9281,14260 6991,14491 5305,15274 5305,16204 5305,17317 7714,18218 10686,18218 13657,18218 16066,17317 16066,16204 16066,15274 14381,14491 12090,14260 Z"
   id="path36"
   style="fill:#5599ff" />
    </g>
   </g>
   <g
   class="com.sun.star.drawing.ClosedBezierShape"
   id="g46">
    <g
   id="id4">
     <rect
   class="BoundingBox"
   stroke="none"
   fill="none"
   x="7435"
   y="8099"
   width="6502"
   height="8407"
   id="rect41" />
     <path
   fill="rgb(255,0,0)"
   stroke="none"
   d="M 9061,8459 C 8567,8693 8156,9032 7871,9439 7586,9847 7436,10308 7436,10779 7417,13335 10686,16504 10686,16504 10686,16504 13954,13335 13935,10779 13935,10308 13785,9847 13500,9439 13215,9032 12804,8693 12310,8459 11816,8224 11256,8100 10686,8100 10115,8100 9555,8224 9061,8459 Z M 9997,11763 C 9787,11663 9613,11519 9492,11347 9371,11174 9307,10978 9307,10779 9307,10579 9371,10384 9492,10211 9613,10038 9787,9894 9997,9795 10206,9695 10444,9642 10686,9642 10927,9642 11165,9695 11374,9795 11584,9894 11758,10038 11879,10211 12000,10384 12064,10579 12064,10779 12064,10978 12000,11174 11879,11347 11758,11519 11584,11663 11374,11763 11165,11863 10927,11915 10686,11915 10444,11915 10206,11863 9997,11763 Z"
   id="path43"
   style="fill:#2c5aa0" />
    </g>
   </g>
   <g
   class="com.sun.star.drawing.ClosedBezierShape"
   id="g53">
    <g
   id="id5">
     <rect
   class="BoundingBox"
   stroke="none"
   fill="none"
   x="7029"
   y="16410"
   width="2305"
   height="921"
   id="rect48" />
     <path
   fill="rgb(180,199,220)"
   stroke="none"
   d="M 9148,17329 C 9140,17329 9133,17329 9125,17328 8252,17216 7540,17013 7121,16755 7093,16739 7071,16716 7055,16688 7038,16660 7030,16628 7030,16595 7030,16563 7038,16531 7055,16503 7071,16475 7094,16451 7123,16435 7151,16419 7182,16410 7215,16410 7247,16410 7280,16419 7308,16435 7310,16436 7313,16438 7315,16439 7690,16670 8350,16855 9172,16961 9196,16964 9219,16972 9240,16984 9268,17000 9292,17024 9308,17052 9324,17081 9333,17112 9333,17144 9333,17177 9324,17209 9308,17237 9292,17265 9268,17288 9240,17304 9212,17321 9181,17329 9149,17329 9148,17329 9148,17329 9148,17329 Z"
   id="path50" />
    </g>
   </g>
   <g
   class="com.sun.star.drawing.ClosedBezierShape"
   id="g60">
    <g
   id="id6">
     <rect
   class="BoundingBox"
   stroke="none"
   fill="none"
   x="10015"
   y="17044"
   width="1173"
   height="381"
   id="rect55" />
     <path
   fill="rgb(180,199,220)"
   stroke="none"
   d="M 10194,17414 C 10164,17413 10134,17404 10108,17389 10080,17373 10056,17351 10040,17322 10023,17294 10016,17262 10016,17229 10016,17197 10023,17164 10040,17136 10056,17108 10080,17085 10108,17068 10136,17052 10168,17044 10201,17044 10203,17044 10206,17044 10208,17044 10470,17053 10738,17054 10996,17049 10998,17049 11000,17049 11002,17049 11035,17049 11066,17057 11094,17073 11122,17089 11145,17112 11161,17140 11177,17167 11185,17198 11186,17230 11186,17231 11186,17232 11186,17234 11186,17266 11177,17298 11161,17326 11145,17355 11121,17378 11093,17394 11066,17410 11036,17418 11005,17419 10899,17422 10793,17423 10686,17423 10522,17423 10357,17420 10194,17414 Z"
   id="path57" />
    </g>
   </g>
   <g
   class="com.sun.star.drawing.CustomShape"
   id="g67">
    <g
   id="id7">
     <rect
   class="BoundingBox"
   stroke="none"
   fill="none"
   x="9135"
   y="9400"
   width="3102"
   height="3102"
   id="rect62" />
     <path
   fill="rgb(255,255,255)"
   stroke="none"
   d="M 12236,10951 C 12236,11223 12164,11490 12028,11726 11892,11961 11696,12157 11461,12293 11225,12429 10958,12501 10686,12501 10413,12501 10146,12429 9910,12293 9675,12157 9479,11961 9343,11726 9207,11490 9135,11223 9135,10951 9135,10678 9207,10411 9343,10175 9479,9940 9675,9744 9910,9608 10146,9472 10413,9400 10685,9400 10958,9400 11225,9472 11461,9608 11696,9744 11892,9940 12028,10175 12164,10411 12236,10678 12236,10950 L 12236,10951 Z"
   id="path64" />
    </g>
   </g>
  </g>
 </g>
</svg>