<?xml version="1.0" encoding="UTF-8"?>
<!DOCTYPE svg PUBLIC "-//W3C//DTD SVG 1.1//EN" "http://www.w3.org/Graphics/SVG/1.1/DTD/svg11.dtd">
<svg version="1.2" width="118.95mm" height="108.51mm" viewBox="4757 16081 11895 10851" preserveAspectRatio="xMidYMid" fill-rule="evenodd" stroke-width="28.222" stroke-linejoin="round" xmlns="http://www.w3.org/2000/svg" xmlns:ooo="http://xml.openoffice.org/svg/export" xmlns:xlink="http://www.w3.org/1999/xlink" xmlns:presentation="http://sun.com/xmlns/staroffice/presentation" xmlns:smil="http://www.w3.org/2001/SMIL20/" xmlns:anim="urn:oasis:names:tc:opendocument:xmlns:animation:1.0" xml:space="preserve">
 <defs class="EmbeddedBulletChars">
  <g id="bullet-char-template-57356" transform="scale(0.00048828125,-0.00048828125)">
   <path d="M 580,1141 L 1163,571 580,0 -4,571 580,1141 Z"/>
  </g>
  <g id="bullet-char-template-57354" transform="scale(0.00048828125,-0.00048828125)">
   <path d="M 8,1128 L 1137,1128 1137,0 8,0 8,1128 Z"/>
  </g>
  <g id="bullet-char-template-10146" transform="scale(0.00048828125,-0.00048828125)">
   <path d="M 174,0 L 602,739 174,1481 1456,739 174,0 Z M 1358,739 L 309,1346 659,739 1358,739 Z"/>
  </g>
  <g id="bullet-char-template-10132" transform="scale(0.00048828125,-0.00048828125)">
   <path d="M 2015,739 L 1276,0 717,0 1260,543 174,543 174,936 1260,936 717,1481 1274,1481 2015,739 Z"/>
  </g>
  <g id="bullet-char-template-10007" transform="scale(0.00048828125,-0.00048828125)">
   <path d="M 0,-2 C -7,14 -16,27 -25,37 L 356,567 C 262,823 215,952 215,954 215,979 228,992 255,992 264,992 276,990 289,987 310,991 331,999 354,1012 L 381,999 492,748 772,1049 836,1024 860,1049 C 881,1039 901,1025 922,1006 886,937 835,863 770,784 769,783 710,716 594,584 L 774,223 C 774,196 753,168 711,139 L 727,119 C 717,90 699,76 672,76 641,76 570,178 457,381 L 164,-76 C 142,-110 111,-127 72,-127 30,-127 9,-110 8,-76 1,-67 -2,-52 -2,-32 -2,-23 -1,-13 0,-2 Z"/>
  </g>
  <g id="bullet-char-template-10004" transform="scale(0.00048828125,-0.00048828125)">
   <path d="M 285,-33 C 182,-33 111,30 74,156 52,228 41,333 41,471 41,549 55,616 82,672 116,743 169,778 240,778 293,778 328,747 346,684 L 369,508 C 377,444 397,411 428,410 L 1163,1116 C 1174,1127 1196,1133 1229,1133 1271,1133 1292,1118 1292,1087 L 1292,965 C 1292,929 1282,901 1262,881 L 442,47 C 390,-6 338,-33 285,-33 Z"/>
  </g>
  <g id="bullet-char-template-9679" transform="scale(0.00048828125,-0.00048828125)">
   <path d="M 813,0 C 632,0 489,54 383,161 276,268 223,411 223,592 223,773 276,916 383,1023 489,1130 632,1184 813,1184 992,1184 1136,1130 1245,1023 1353,916 1407,772 1407,592 1407,412 1353,268 1245,161 1136,54 992,0 813,0 Z"/>
  </g>
  <g id="bullet-char-template-8226" transform="scale(0.00048828125,-0.00048828125)">
   <path d="M 346,457 C 273,457 209,483 155,535 101,586 74,649 74,723 74,796 101,859 155,911 209,963 273,989 346,989 419,989 480,963 531,910 582,859 608,796 608,723 608,648 583,586 532,535 482,483 420,457 346,457 Z"/>
  </g>
  <g id="bullet-char-template-8211" transform="scale(0.00048828125,-0.00048828125)">
   <path d="M -4,459 L 1135,459 1135,606 -4,606 -4,459 Z"/>
  </g>
  <g id="bullet-char-template-61548" transform="scale(0.00048828125,-0.00048828125)">
   <path d="M 173,740 C 173,903 231,1043 346,1159 462,1274 601,1332 765,1332 928,1332 1067,1274 1183,1159 1299,1043 1357,903 1357,740 1357,577 1299,437 1183,322 1067,206 928,148 765,148 601,148 462,206 346,322 231,437 173,577 173,740 Z"/>
  </g>
 </defs>
 <g class="Page">
  <g class="Group">
   <g class="com.sun.star.drawing.ClosedBezierShape">
    <g id="id3">
     <rect class="BoundingBox" stroke="none" fill="none" x="4757" y="22687" width="11895" height="4245"/>
     <path fill="rgb(255,165,0)" stroke="none" d="M 12257,22687 C 11784,23413 11266,24109 10704,24771 10143,24109 9625,23413 9152,22687 6621,22935 4757,23774 4757,24771 4757,25965 7420,26931 10704,26931 13988,26931 16651,25965 16651,24771 16651,23774 14788,22935 12257,22687 Z"/>
    </g>
   </g>
   <g class="com.sun.star.drawing.ClosedBezierShape">
    <g id="id4">
     <rect class="BoundingBox" stroke="none" fill="none" x="7113" y="16081" width="7186" height="9012"/>
     <path fill="rgb(5,133,45)" stroke="none" d="M 8909,16466 C 8363,16717 7909,17080 7594,17517 7279,17954 7113,18448 7113,18953 7092,21694 10705,25092 10705,25092 10705,25092 14318,21694 14297,18953 14297,18448 14132,17954 13817,17517 13502,17080 13047,16717 12501,16466 11955,16214 11336,16081 10705,16081 10074,16081 9455,16214 8909,16466 Z M 9944,20008 C 9712,19901 9519,19747 9386,19562 9252,19377 9181,19167 9181,18953 9181,18739 9252,18530 9386,18344 9519,18159 9712,18005 9944,17898 10175,17791 10438,17734 10705,17734 10973,17734 11235,17791 11467,17898 11698,18005 11891,18159 12025,18344 12159,18530 12229,18739 12229,18953 12229,19167 12159,19377 12025,19562 11891,19747 11698,19901 11467,20008 11235,20116 10973,20173 10705,20173 10438,20173 10175,20116 9944,20008 Z"/>
    </g>
   </g>
   <g class="com.sun.star.drawing.ClosedBezierShape">
    <g id="id5">
     <rect class="BoundingBox" stroke="none" fill="none" x="6665" y="24991" width="2547" height="987"/>
     <path fill="rgb(5,133,45)" stroke="none" d="M 9006,25976 C 8997,25976 8989,25976 8981,25975 8016,25855 7229,25638 6766,25361 6735,25344 6710,25319 6693,25289 6674,25259 6665,25224 6665,25189 6665,25154 6674,25121 6693,25091 6710,25061 6736,25035 6768,25018 6799,25001 6833,24991 6869,24991 6905,24991 6941,25001 6972,25018 6974,25019 6978,25021 6980,25022 7394,25270 8124,25468 9032,25582 9059,25585 9084,25594 9108,25606 9139,25624 9165,25648 9183,25679 9200,25709 9210,25743 9210,25778 9210,25812 9200,25848 9183,25878 9165,25908 9139,25932 9108,25950 9077,25968 9042,25976 9007,25976 9006,25976 9006,25976 9006,25976 Z"/>
    </g>
   </g>
   <g class="com.sun.star.drawing.ClosedBezierShape">
    <g id="id6">
     <rect class="BoundingBox" stroke="none" fill="none" x="9964" y="25671" width="1296" height="408"/>
     <path fill="rgb(5,133,45)" stroke="none" d="M 10161,26068 C 10128,26067 10094,26057 10066,26041 10035,26024 10009,25999 9991,25969 9972,25938 9964,25904 9964,25869 9964,25834 9972,25800 9991,25770 10008,25740 10035,25714 10066,25697 10097,25679 10132,25671 10168,25671 10171,25671 10174,25671 10176,25671 10466,25681 10763,25682 11048,25676 11050,25676 11053,25676 11055,25676 11091,25676 11126,25685 11157,25702 11188,25719 11213,25744 11231,25774 11248,25803 11257,25836 11258,25870 11258,25872 11258,25873 11258,25875 11258,25909 11248,25942 11231,25973 11213,26003 11186,26029 11155,26046 11126,26063 11092,26072 11058,26073 10941,26076 10824,26077 10705,26077 10523,26077 10341,26074 10161,26068 Z"/>
    </g>
   </g>
   <g class="com.sun.star.drawing.CustomShape">
    <g id="id7">
     <rect class="BoundingBox" stroke="none" fill="none" x="8991" y="17475" width="3428" height="3327"/>
     <path fill="rgb(255,255,255)" stroke="none" d="M 12418,19138 C 12418,19430 12339,19717 12188,19970 12038,20222 11822,20432 11561,20578 11301,20724 11005,20801 10704,20801 10404,20801 10108,20724 9848,20578 9587,20432 9371,20222 9221,19970 9070,19717 8991,19430 8991,19138 8991,18847 9070,18560 9221,18307 9371,18055 9587,17845 9848,17699 10108,17553 10404,17476 10704,17476 11005,17476 11301,17553 11561,17699 11822,17845 12038,18055 12188,18307 12339,18560 12418,18847 12418,19138 L 12418,19138 Z"/>
    </g>
   </g>
  </g>
 </g>
</svg>