<?xml version="1.0" encoding="UTF-8"?>
<!DOCTYPE svg PUBLIC "-//W3C//DTD SVG 1.1//EN" "http://www.w3.org/Graphics/SVG/1.1/DTD/svg11.dtd">
<svg version="1.2" width="139.01mm" height="83.37mm" viewBox="4054 7618 13901 8337" preserveAspectRatio="xMidYMid" fill-rule="evenodd" stroke-width="28.222" stroke-linejoin="round" xmlns="http://www.w3.org/2000/svg" xmlns:ooo="http://xml.openoffice.org/svg/export" xmlns:xlink="http://www.w3.org/1999/xlink" xmlns:presentation="http://sun.com/xmlns/staroffice/presentation" xmlns:smil="http://www.w3.org/2001/SMIL20/" xmlns:anim="urn:oasis:names:tc:opendocument:xmlns:animation:1.0" xml:space="preserve">
 <defs class="EmbeddedBulletChars">
  <g id="bullet-char-template-57356" transform="scale(0.00048828125,-0.00048828125)">
   <path d="M 580,1141 L 1163,571 580,0 -4,571 580,1141 Z"/>
  </g>
  <g id="bullet-char-template-57354" transform="scale(0.00048828125,-0.00048828125)">
   <path d="M 8,1128 L 1137,1128 1137,0 8,0 8,1128 Z"/>
  </g>
  <g id="bullet-char-template-10146" transform="scale(0.00048828125,-0.00048828125)">
   <path d="M 174,0 L 602,739 174,1481 1456,739 174,0 Z M 1358,739 L 309,1346 659,739 1358,739 Z"/>
  </g>
  <g id="bullet-char-template-10132" transform="scale(0.00048828125,-0.00048828125)">
   <path d="M 2015,739 L 1276,0 717,0 1260,543 174,543 174,936 1260,936 717,1481 1274,1481 2015,739 Z"/>
  </g>
  <g id="bullet-char-template-10007" transform="scale(0.00048828125,-0.00048828125)">
   <path d="M 0,-2 C -7,14 -16,27 -25,37 L 356,567 C 262,823 215,952 215,954 215,979 228,992 255,992 264,992 276,990 289,987 310,991 331,999 354,1012 L 381,999 492,748 772,1049 836,1024 860,1049 C 881,1039 901,1025 922,1006 886,937 835,863 770,784 769,783 710,716 594,584 L 774,223 C 774,196 753,168 711,139 L 727,119 C 717,90 699,76 672,76 641,76 570,178 457,381 L 164,-76 C 142,-110 111,-127 72,-127 30,-127 9,-110 8,-76 1,-67 -2,-52 -2,-32 -2,-23 -1,-13 0,-2 Z"/>
  </g>
  <g id="bullet-char-template-10004" transform="scale(0.00048828125,-0.00048828125)">
   <path d="M 285,-33 C 182,-33 111,30 74,156 52,228 41,333 41,471 41,549 55,616 82,672 116,743 169,778 240,778 293,778 328,747 346,684 L 369,508 C 377,444 397,411 428,410 L 1163,1116 C 1174,1127 1196,1133 1229,1133 1271,1133 1292,1118 1292,1087 L 1292,965 C 1292,929 1282,901 1262,881 L 442,47 C 390,-6 338,-33 285,-33 Z"/>
  </g>
  <g id="bullet-char-template-9679" transform="scale(0.00048828125,-0.00048828125)">
   <path d="M 813,0 C 632,0 489,54 383,161 276,268 223,411 223,592 223,773 276,916 383,1023 489,1130 632,1184 813,1184 992,1184 1136,1130 1245,1023 1353,916 1407,772 1407,592 1407,412 1353,268 1245,161 1136,54 992,0 813,0 Z"/>
  </g>
  <g id="bullet-char-template-8226" transform="scale(0.00048828125,-0.00048828125)">
   <path d="M 346,457 C 273,457 209,483 155,535 101,586 74,649 74,723 74,796 101,859 155,911 209,963 273,989 346,989 419,989 480,963 531,910 582,859 608,796 608,723 608,648 583,586 532,535 482,483 420,457 346,457 Z"/>
  </g>
  <g id="bullet-char-template-8211" transform="scale(0.00048828125,-0.00048828125)">
   <path d="M -4,459 L 1135,459 1135,606 -4,606 -4,459 Z"/>
  </g>
  <g id="bullet-char-template-61548" transform="scale(0.00048828125,-0.00048828125)">
   <path d="M 173,740 C 173,903 231,1043 346,1159 462,1274 601,1332 765,1332 928,1332 1067,1274 1183,1159 1299,1043 1357,903 1357,740 1357,577 1299,437 1183,322 1067,206 928,148 765,148 601,148 462,206 346,322 231,437 173,577 173,740 Z"/>
  </g>
 </defs>
 <g class="Page">
  <g class="com.sun.star.drawing.ClosedBezierShape">
   <g id="id3">
    <rect class="BoundingBox" stroke="none" fill="none" x="4054" y="7618" width="13901" height="8337"/>
    <path fill="rgb(180,199,220)" stroke="none" d="M 16864,8698 L 10093,8698 C 9585,8044 9052,7972 8303,7972 L 8278,7972 C 7262,7972 6488,8673 6247,8939 L 5376,8939 C 4844,8939 4408,9375 4408,9907 L 4408,14284 C 4408,14816 4844,15227 5376,15227 L 6271,15227 C 7214,15929 7553,15953 9246,15953 10141,15953 11157,15711 11446,15663 12002,15808 12583,15518 12776,14961 12849,14744 12849,14478 12776,14260 13212,14260 13623,13970 13768,13534 L 13792,13510 C 13889,13244 13865,12930 13744,12688 13723,12646 13699,12605 13672,12567 14180,12469 14566,12010 14566,11479 14566,11262 14494,11044 14373,10875 L 16864,10875 C 17469,10875 17953,10391 17953,9786 17953,9181 17469,8698 16864,8698 Z M 6488,14792 C 6440,14768 6392,14744 6343,14744 L 5376,14744 C 5110,14744 4892,14526 4892,14284 L 4892,9907 C 4892,9641 5110,9423 5376,9423 L 6343,9423 C 6416,9423 6488,9399 6537,9326 6537,9326 7262,8480 8254,8456 L 8278,8456 C 9028,8456 9367,8504 9754,9085 L 9778,9109 9967,9333 C 10550,10097 11182,10937 11422,11286 11664,11673 11736,11986 11591,12180 11489,12302 11285,12355 11094,12326 11066,12320 11038,12312 11012,12301 10721,12180 10213,11842 9657,11382 9632,11363 9604,11349 9576,11340 8917,10787 8304,10158 8182,9859 8133,9738 7988,9689 7867,9738 7746,9786 7698,9931 7746,10052 7898,10406 8486,11031 9136,11595 9082,11673 9040,11758 9004,11842 L 8980,11890 C 8887,12157 8906,12436 9013,12675 8641,12748 8312,13014 8182,13389 7988,13945 8303,14574 8859,14768 L 10515,15341 C 10131,15409 9670,15469 9246,15469 7553,15469 7359,15445 6488,14792 Z M 9415,13171 L 11301,13824 11946,14049 C 12060,14093 12152,14162 12218,14247 12237,14274 12254,14303 12268,14332 12341,14478 12341,14647 12293,14792 12196,15106 11857,15276 11519,15155 11495,15155 11471,15149 11447,15146 L 9028,14308 C 8690,14187 8544,13849 8641,13534 8690,13389 8811,13268 8956,13196 9028,13147 9125,13123 9222,13123 9294,13123 9367,13147 9415,13171 Z M 12946,12615 C 13091,12663 13212,12760 13284,12905 13357,13026 13357,13196 13309,13341 L 13284,13389 C 13248,13498 13185,13592 13095,13664 12950,13758 12767,13784 12583,13728 L 12099,13558 C 12053,13543 12010,13540 11971,13547 L 11446,13365 9778,12784 C 9464,12663 9319,12349 9415,12035 L 9439,11986 C 9439,11963 9464,11915 9488,11890 9508,11906 9527,11921 9547,11936 9980,12279 10407,12567 10723,12706 10730,12709 10736,12712 10743,12715 10760,12722 10777,12730 10794,12736 10911,12785 11037,12808 11165,12808 11178,12808 11191,12809 11204,12809 11372,12809 11539,12768 11684,12692 11874,12607 12046,12479 12172,12325 L 12946,12615 Z M 13478,12059 L 13381,12059 12825,11986 C 12787,11986 12749,11993 12714,12007 L 12172,11818 C 12157,11812 12143,11808 12129,11805 12105,11590 12015,11329 11809,11020 11782,10975 11749,10924 11711,10868 L 13526,10826 C 13671,10826 13817,10899 13913,10995 14010,11116 14083,11262 14083,11431 14083,11769 13817,12059 13478,12059 Z M 16864,10391 L 13526,10391 C 13502,10391 13502,10391 13478,10391 L 11422,10391 C 11406,10391 11392,10392 11377,10394 11111,10027 10776,9586 10464,9181 L 16864,9181 C 17203,9181 17469,9447 17469,9786 17469,10125 17203,10391 16864,10391 Z"/>
    <path fill="rgb(0,81,252)" stroke="none" d="M 16511,8345 L 9740,8345 C 9232,7691 8699,7619 7950,7619 L 7925,7619 C 6909,7619 6135,8320 5894,8586 L 5023,8586 C 4491,8586 4055,9022 4055,9554 L 4055,13931 C 4055,14463 4491,14874 5023,14874 L 5918,14874 C 6861,15576 7200,15600 8893,15600 9788,15600 10804,15358 11093,15310 11649,15455 12230,15165 12423,14608 12496,14391 12496,14125 12423,13907 12859,13907 13270,13617 13415,13181 L 13439,13157 C 13536,12891 13512,12577 13391,12335 13370,12293 13346,12252 13319,12214 13827,12116 14213,11657 14213,11126 14213,10909 14141,10691 14020,10522 L 16511,10522 C 17116,10522 17600,10038 17600,9433 17600,8828 17116,8345 16511,8345 Z M 6135,14439 C 6087,14415 6039,14391 5990,14391 L 5023,14391 C 4757,14391 4539,14173 4539,13931 L 4539,9554 C 4539,9288 4757,9070 5023,9070 L 5990,9070 C 6063,9070 6135,9046 6184,8973 6184,8973 6909,8127 7901,8103 L 7925,8103 C 8675,8103 9014,8151 9401,8732 L 9425,8756 9614,8980 C 10197,9744 10829,10584 11069,10933 11311,11320 11383,11633 11238,11827 11136,11949 10932,12002 10741,11973 10713,11967 10685,11959 10659,11948 10368,11827 9860,11489 9304,11029 9279,11010 9251,10996 9223,10987 8564,10434 7951,9805 7829,9506 7780,9385 7635,9336 7514,9385 7393,9433 7345,9578 7393,9699 7545,10053 8133,10678 8783,11242 8729,11320 8687,11405 8651,11489 L 8627,11537 C 8534,11804 8553,12083 8660,12322 8288,12395 7959,12661 7829,13036 7635,13592 7950,14221 8506,14415 L 10162,14988 C 9778,15056 9317,15116 8893,15116 7200,15116 7006,15092 6135,14439 Z M 9062,12818 L 10948,13471 11593,13696 C 11707,13740 11799,13809 11865,13894 11884,13921 11901,13950 11915,13979 11988,14125 11988,14294 11940,14439 11843,14753 11504,14923 11166,14802 11142,14802 11118,14796 11094,14793 L 8675,13955 C 8337,13834 8191,13496 8288,13181 8337,13036 8458,12915 8603,12843 8675,12794 8772,12770 8869,12770 8941,12770 9014,12794 9062,12818 Z M 12593,12262 C 12738,12310 12859,12407 12931,12552 13004,12673 13004,12843 12956,12988 L 12931,13036 C 12895,13145 12832,13239 12742,13311 12597,13405 12414,13431 12230,13375 L 11746,13205 C 11700,13190 11657,13187 11618,13194 L 11093,13012 9425,12431 C 9111,12310 8966,11996 9062,11682 L 9086,11633 C 9086,11610 9111,11562 9135,11537 9155,11553 9174,11568 9194,11583 9627,11926 10054,12214 10370,12353 10377,12356 10383,12359 10390,12362 10407,12369 10424,12377 10441,12383 10558,12432 10684,12455 10812,12455 10825,12455 10838,12456 10851,12456 11019,12456 11186,12415 11331,12339 11521,12254 11693,12126 11819,11972 L 12593,12262 Z M 13125,11706 L 13028,11706 12472,11633 C 12434,11633 12396,11640 12361,11654 L 11819,11465 C 11804,11459 11790,11455 11776,11452 11752,11237 11662,10976 11456,10667 11429,10622 11396,10571 11358,10515 L 13173,10473 C 13318,10473 13464,10546 13560,10642 13657,10763 13730,10909 13730,11078 13730,11416 13464,11706 13125,11706 Z M 16511,10038 L 13173,10038 C 13149,10038 13149,10038 13125,10038 L 11069,10038 C 11053,10038 11039,10039 11024,10041 10758,9674 10423,9233 10111,8828 L 16511,8828 C 16850,8828 17116,9094 17116,9433 17116,9772 16850,10038 16511,10038 Z"/>
   </g>
  </g>
 </g>
</svg>