<?xml version="1.0" encoding="UTF-8"?>
<!DOCTYPE svg PUBLIC "-//W3C//DTD SVG 1.1//EN" "http://www.w3.org/Graphics/SVG/1.1/DTD/svg11.dtd">
<svg version="1.2" width="153.25mm" height="89.12mm" viewBox="3395 14717 15325 8912" preserveAspectRatio="xMidYMid" fill-rule="evenodd" stroke-width="28.222" stroke-linejoin="round" xmlns="http://www.w3.org/2000/svg" xmlns:ooo="http://xml.openoffice.org/svg/export" xmlns:xlink="http://www.w3.org/1999/xlink" xmlns:presentation="http://sun.com/xmlns/staroffice/presentation" xmlns:smil="http://www.w3.org/2001/SMIL20/" xmlns:anim="urn:oasis:names:tc:opendocument:xmlns:animation:1.0" xml:space="preserve">
 <defs class="EmbeddedBulletChars">
  <g id="bullet-char-template-57356" transform="scale(0.00048828125,-0.00048828125)">
   <path d="M 580,1141 L 1163,571 580,0 -4,571 580,1141 Z"/>
  </g>
  <g id="bullet-char-template-57354" transform="scale(0.00048828125,-0.00048828125)">
   <path d="M 8,1128 L 1137,1128 1137,0 8,0 8,1128 Z"/>
  </g>
  <g id="bullet-char-template-10146" transform="scale(0.00048828125,-0.00048828125)">
   <path d="M 174,0 L 602,739 174,1481 1456,739 174,0 Z M 1358,739 L 309,1346 659,739 1358,739 Z"/>
  </g>
  <g id="bullet-char-template-10132" transform="scale(0.00048828125,-0.00048828125)">
   <path d="M 2015,739 L 1276,0 717,0 1260,543 174,543 174,936 1260,936 717,1481 1274,1481 2015,739 Z"/>
  </g>
  <g id="bullet-char-template-10007" transform="scale(0.00048828125,-0.00048828125)">
   <path d="M 0,-2 C -7,14 -16,27 -25,37 L 356,567 C 262,823 215,952 215,954 215,979 228,992 255,992 264,992 276,990 289,987 310,991 331,999 354,1012 L 381,999 492,748 772,1049 836,1024 860,1049 C 881,1039 901,1025 922,1006 886,937 835,863 770,784 769,783 710,716 594,584 L 774,223 C 774,196 753,168 711,139 L 727,119 C 717,90 699,76 672,76 641,76 570,178 457,381 L 164,-76 C 142,-110 111,-127 72,-127 30,-127 9,-110 8,-76 1,-67 -2,-52 -2,-32 -2,-23 -1,-13 0,-2 Z"/>
  </g>
  <g id="bullet-char-template-10004" transform="scale(0.00048828125,-0.00048828125)">
   <path d="M 285,-33 C 182,-33 111,30 74,156 52,228 41,333 41,471 41,549 55,616 82,672 116,743 169,778 240,778 293,778 328,747 346,684 L 369,508 C 377,444 397,411 428,410 L 1163,1116 C 1174,1127 1196,1133 1229,1133 1271,1133 1292,1118 1292,1087 L 1292,965 C 1292,929 1282,901 1262,881 L 442,47 C 390,-6 338,-33 285,-33 Z"/>
  </g>
  <g id="bullet-char-template-9679" transform="scale(0.00048828125,-0.00048828125)">
   <path d="M 813,0 C 632,0 489,54 383,161 276,268 223,411 223,592 223,773 276,916 383,1023 489,1130 632,1184 813,1184 992,1184 1136,1130 1245,1023 1353,916 1407,772 1407,592 1407,412 1353,268 1245,161 1136,54 992,0 813,0 Z"/>
  </g>
  <g id="bullet-char-template-8226" transform="scale(0.00048828125,-0.00048828125)">
   <path d="M 346,457 C 273,457 209,483 155,535 101,586 74,649 74,723 74,796 101,859 155,911 209,963 273,989 346,989 419,989 480,963 531,910 582,859 608,796 608,723 608,648 583,586 532,535 482,483 420,457 346,457 Z"/>
  </g>
  <g id="bullet-char-template-8211" transform="scale(0.00048828125,-0.00048828125)">
   <path d="M -4,459 L 1135,459 1135,606 -4,606 -4,459 Z"/>
  </g>
  <g id="bullet-char-template-61548" transform="scale(0.00048828125,-0.00048828125)">
   <path d="M 173,740 C 173,903 231,1043 346,1159 462,1274 601,1332 765,1332 928,1332 1067,1274 1183,1159 1299,1043 1357,903 1357,740 1357,577 1299,437 1183,322 1067,206 928,148 765,148 601,148 462,206 346,322 231,437 173,577 173,740 Z"/>
  </g>
 </defs>
 <g class="Page">
  <g class="com.sun.star.drawing.ClosedBezierShape">
   <g id="id3">
    <rect class="BoundingBox" stroke="none" fill="none" x="3395" y="14717" width="15325" height="8912"/>
    <path fill="rgb(255,165,0)" stroke="none" d="M 17515,15848 L 10031,15848 C 9470,15147 8881,15070 8053,15070 L 8025,15070 C 6902,15070 6047,15822 5781,16107 L 4818,16107 C 4230,16107 3748,16574 3748,17145 L 3748,21839 C 3748,22408 4230,22849 4818,22849 L 5807,22849 C 6849,23602 7224,23627 9095,23627 10084,23627 11207,23368 11527,23316 12141,23472 12784,23161 12997,22564 13078,22332 13078,22047 12997,21813 13479,21813 13933,21502 14093,21035 L 14120,21009 C 14227,20724 14200,20387 14067,20128 14044,20083 14017,20039 13987,19998 14549,19893 14975,19401 14975,18830 14975,18598 14896,18364 14762,18183 L 17515,18183 C 18184,18183 18719,17664 18719,17015 18719,16366 18184,15848 17515,15848 Z M 6047,22382 C 5994,22357 5941,22332 5887,22332 L 4818,22332 C 4524,22332 4283,22098 4283,21839 L 4283,17145 C 4283,16860 4524,16626 4818,16626 L 5887,16626 C 5967,16626 6047,16600 6101,16522 6101,16522 6902,15615 7999,15589 L 8025,15589 C 8854,15589 9229,15640 9657,16263 L 9683,16289 9892,16529 C 10537,17348 11236,18249 11500,18623 11768,19038 11847,19375 11687,19583 11574,19714 11349,19771 11138,19739 11107,19733 11076,19724 11047,19713 10726,19583 10164,19219 9550,18726 9522,18706 9491,18691 9460,18681 8732,18088 8054,17414 7919,17093 7865,16964 7705,16911 7571,16964 7437,17015 7384,17170 7437,17300 7605,17680 8255,18350 8974,18955 8914,19038 8868,19129 8828,19219 L 8801,19271 C 8698,19558 8719,19857 8838,20114 8427,20192 8063,20477 7919,20879 7705,21475 8053,22150 8668,22357 L 10498,22971 C 10073,23044 9564,23108 9095,23108 7224,23108 7010,23083 6047,22382 Z M 9282,20645 L 11367,21346 12079,21587 C 12205,21634 12307,21708 12380,21799 12401,21828 12420,21859 12435,21890 12516,22047 12516,22228 12463,22382 12356,22719 11981,22901 11608,22772 11581,22772 11554,22765 11528,22762 L 8854,21865 C 8481,21735 8319,21372 8427,21035 8481,20879 8614,20749 8775,20672 8854,20620 8962,20594 9069,20594 9148,20594 9229,20620 9282,20645 Z M 13185,20049 C 13345,20101 13479,20205 13558,20360 13639,20490 13639,20672 13586,20828 L 13558,20879 C 13519,20996 13449,21097 13349,21174 13189,21275 12987,21303 12784,21243 L 12249,21060 C 12198,21044 12150,21041 12107,21049 L 11527,20853 9683,20231 C 9336,20101 9176,19764 9282,19427 L 9309,19375 C 9309,19349 9336,19298 9363,19271 9385,19288 9406,19304 9428,19320 9907,19689 10378,19998 10728,20147 10735,20150 10742,20153 10750,20157 10769,20164 10787,20173 10806,20179 10936,20232 11075,20256 11216,20256 11231,20256 11246,20257 11259,20257 11445,20257 11630,20213 11790,20132 12000,20041 12190,19903 12329,19738 L 13185,20049 Z M 13773,19453 L 13666,19453 13051,19375 C 13009,19375 12967,19382 12928,19397 L 12329,19194 C 12313,19187 12297,19183 12282,19180 12255,18949 12156,18669 11928,18338 11898,18290 11862,18235 11820,18175 L 13826,18130 C 13986,18130 14147,18208 14254,18311 14361,18441 14441,18598 14441,18779 14441,19141 14147,19453 13773,19453 Z M 17515,17664 L 13826,17664 C 13799,17664 13799,17664 13773,17664 L 11500,17664 C 11483,17664 11467,17665 11451,17667 11157,17273 10786,16801 10441,16366 L 17515,16366 C 17890,16366 18184,16651 18184,17015 18184,17378 17890,17664 17515,17664 Z"/>
    <path fill="rgb(5,133,45)" stroke="none" d="M 17162,15495 L 9678,15495 C 9117,14794 8528,14717 7700,14717 L 7672,14717 C 6549,14717 5694,15469 5428,15754 L 4465,15754 C 3877,15754 3395,16221 3395,16792 L 3395,21486 C 3395,22055 3877,22496 4465,22496 L 5454,22496 C 6496,23249 6871,23274 8742,23274 9731,23274 10854,23015 11174,22963 11788,23119 12431,22808 12644,22211 12725,21979 12725,21694 12644,21460 13126,21460 13580,21149 13740,20682 L 13767,20656 C 13874,20371 13847,20034 13714,19775 13691,19730 13664,19686 13634,19645 14196,19540 14622,19048 14622,18477 14622,18245 14543,18011 14409,17830 L 17162,17830 C 17831,17830 18366,17311 18366,16662 18366,16013 17831,15495 17162,15495 Z M 5694,22029 C 5641,22004 5588,21979 5534,21979 L 4465,21979 C 4171,21979 3930,21745 3930,21486 L 3930,16792 C 3930,16507 4171,16273 4465,16273 L 5534,16273 C 5614,16273 5694,16247 5748,16169 5748,16169 6549,15262 7646,15236 L 7672,15236 C 8501,15236 8876,15287 9304,15910 L 9330,15936 9539,16176 C 10184,16995 10883,17896 11147,18270 11415,18685 11494,19022 11334,19230 11221,19361 10996,19418 10785,19386 10754,19380 10723,19371 10694,19360 10373,19230 9811,18866 9197,18373 9169,18353 9138,18338 9107,18328 8379,17735 7701,17061 7566,16740 7512,16611 7352,16558 7218,16611 7084,16662 7031,16817 7084,16947 7252,17327 7902,17997 8621,18602 8561,18685 8515,18776 8475,18866 L 8448,18918 C 8345,19205 8366,19504 8485,19761 8074,19839 7710,20124 7566,20526 7352,21122 7700,21797 8315,22004 L 10145,22618 C 9720,22691 9211,22755 8742,22755 6871,22755 6657,22730 5694,22029 Z M 8929,20292 L 11014,20993 11726,21234 C 11852,21281 11954,21355 12027,21446 12048,21475 12067,21506 12082,21537 12163,21694 12163,21875 12110,22029 12003,22366 11628,22548 11255,22419 11228,22419 11201,22412 11175,22409 L 8501,21512 C 8128,21382 7966,21019 8074,20682 8128,20526 8261,20396 8422,20319 8501,20267 8609,20241 8716,20241 8795,20241 8876,20267 8929,20292 Z M 12832,19696 C 12992,19748 13126,19852 13205,20007 13286,20137 13286,20319 13233,20475 L 13205,20526 C 13166,20643 13096,20744 12996,20821 12836,20922 12634,20950 12431,20890 L 11896,20707 C 11845,20691 11797,20688 11754,20696 L 11174,20500 9330,19878 C 8983,19748 8823,19411 8929,19074 L 8956,19022 C 8956,18996 8983,18945 9010,18918 9032,18935 9053,18951 9075,18967 9554,19336 10025,19645 10375,19794 10382,19797 10389,19800 10397,19804 10416,19811 10434,19820 10453,19826 10583,19879 10722,19903 10863,19903 10878,19903 10893,19904 10906,19904 11092,19904 11277,19860 11437,19779 11647,19688 11837,19550 11976,19385 L 12832,19696 Z M 13420,19100 L 13313,19100 12698,19022 C 12656,19022 12614,19029 12575,19044 L 11976,18841 C 11960,18834 11944,18830 11929,18827 11902,18596 11803,18316 11575,17985 11545,17937 11509,17882 11467,17822 L 13473,17777 C 13633,17777 13794,17855 13901,17958 14008,18088 14088,18245 14088,18426 14088,18788 13794,19100 13420,19100 Z M 17162,17311 L 13473,17311 C 13446,17311 13446,17311 13420,17311 L 11147,17311 C 11130,17311 11114,17312 11098,17314 10804,16920 10433,16448 10088,16013 L 17162,16013 C 17537,16013 17831,16298 17831,16662 17831,17025 17537,17311 17162,17311 Z"/>
   </g>
  </g>
 </g>
</svg>