<?xml version="1.0" encoding="UTF-8" standalone="no"?>
<svg
   xmlns:dc="http://purl.org/dc/elements/1.1/"
   xmlns:cc="http://creativecommons.org/ns#"
   xmlns:rdf="http://www.w3.org/1999/02/22-rdf-syntax-ns#"
   xmlns:svg="http://www.w3.org/2000/svg"
   xmlns="http://www.w3.org/2000/svg"
   xmlns:sodipodi="http://sodipodi.sourceforge.net/DTD/sodipodi-0.dtd"
   xmlns:inkscape="http://www.inkscape.org/namespaces/inkscape"
   version="1.1"
   x="0px"
   y="0px"
   viewBox="0 0 38.299999 47"
   enable-background="new 0 0 48 48"
   xml:space="preserve"
   id="svg28"
   sodipodi:docname="owners.svg"
   width="38.299999"
   height="47"
   inkscape:version="0.92.4 (5da689c313, 2019-01-14)"><metadata
     id="metadata34"><rdf:RDF><cc:Work
         rdf:about=""><dc:format>image/svg+xml</dc:format><dc:type
           rdf:resource="http://purl.org/dc/dcmitype/StillImage" /></cc:Work></rdf:RDF></metadata><defs
     id="defs32" /><sodipodi:namedview
     pagecolor="#ffffff"
     bordercolor="#666666"
     borderopacity="1"
     objecttolerance="10"
     gridtolerance="10"
     guidetolerance="10"
     inkscape:pageopacity="0"
     inkscape:pageshadow="2"
     inkscape:window-width="716"
     inkscape:window-height="480"
     id="namedview30"
     showgrid="false"
     inkscape:zoom="3.9333333"
     inkscape:cx="19.2"
     inkscape:cy="17.5"
     inkscape:window-x="0"
     inkscape:window-y="0"
     inkscape:window-maximized="0"
     inkscape:current-layer="svg28" /><g
     id="g22"
     transform="translate(-4.8,-0.5)"><g
       id="g4"><path
         d="M 9.1,47.5 C 8.6,47.5 8.2,47.3 7.8,47 7,46.3 6.9,45 7.7,44.2 l 6.4,-7.1 1.7,-5.2 -3.9,-11.5 c -0.3,-1 0.2,-2.1 1.2,-2.5 1,-0.3 2.1,0.2 2.5,1.2 l 4.1,12.2 c 0.1,0.4 0.1,0.8 0,1.2 l -2,6.2 c -0.1,0.3 -0.2,0.5 -0.4,0.7 l -6.7,7.4 c -0.4,0.5 -1,0.7 -1.5,0.7 z"
         id="path2"
         inkscape:connector-curvature="0"
         style="fill:#000000" /></g><g
       id="g8"><path
         d="m 26.6,47.5 c -1,0 -1.8,-0.7 -1.9,-1.7 l -1.1,-7.9 -6.8,-4.4 c -0.9,-0.6 -1.2,-1.8 -0.6,-2.7 0.6,-0.9 1.8,-1.2 2.7,-0.6 l 7.5,4.9 c 0.5,0.3 0.8,0.8 0.9,1.4 l 1.2,8.8 c 0.1,1.1 -0.6,2.1 -1.7,2.2 0,0 -0.1,0 -0.2,0 z"
         id="path6"
         inkscape:connector-curvature="0"
         style="fill:#000000" /></g><g
       id="g12"><path
         d="m 12.8,20.6 c -4.4,0 -8,-3.6 -8,-8 0,-4.4 3.6,-8 8,-8 4.4,0 8,3.6 8,8 0,4.5 -3.6,8 -8,8 z m 0,-12 c -2.2,0 -4,1.8 -4,4 0,2.2 1.8,4 4,4 2.2,0 4,-1.8 4,-4 0.1,-2.1 -1.7,-4 -4,-4 z"
         id="path10"
         inkscape:connector-curvature="0"
         style="fill:#000000" /></g><g
       id="g16"><path
         d="M 40.7,28.8 H 24.9 c -0.3,0 -0.5,-0.1 -0.8,-0.2 L 14,24.4 c -1,-0.4 -1.5,-1.6 -1.1,-2.6 0.4,-1 1.6,-1.5 2.6,-1.1 l 9.8,4.1 h 15.4 c 1.1,0 2,0.9 2,2 -0.1,1.1 -0.9,2 -2,2 z"
         id="path14"
         inkscape:connector-curvature="0"
         style="fill:#000000" /></g><g
       id="g20"><path
         d="m 41.2,20.1 h -16 c -1.1,0 -2,-0.9 -2,-2 V 2.5 c 0,-1.1 0.9,-2 2,-2 h 15.9 c 1.1,0 2,0.9 2,2 v 15.7 c 0,1 -0.9,1.9 -1.9,1.9 z m -14,-3.9 h 12 V 4.4 h -12 z"
         id="path18"
         inkscape:connector-curvature="0"
         style="fill:#000000" /></g></g></svg>