<?xml version="1.0" encoding="UTF-8"?>
<!DOCTYPE svg PUBLIC "-//W3C//DTD SVG 1.1//EN" "http://www.w3.org/Graphics/SVG/1.1/DTD/svg11.dtd">
<svg version="1.2" width="109.25mm" height="68.14mm" viewBox="4700 8788 10925 6814" preserveAspectRatio="xMidYMid" fill-rule="evenodd" stroke-width="28.222" stroke-linejoin="round" xmlns="http://www.w3.org/2000/svg" xmlns:ooo="http://xml.openoffice.org/svg/export" xmlns:xlink="http://www.w3.org/1999/xlink" xmlns:presentation="http://sun.com/xmlns/staroffice/presentation" xmlns:smil="http://www.w3.org/2001/SMIL20/" xmlns:anim="urn:oasis:names:tc:opendocument:xmlns:animation:1.0" xml:space="preserve">
 <defs class="EmbeddedBulletChars">
  <g id="bullet-char-template-57356" transform="scale(0.00048828125,-0.00048828125)">
   <path d="M 580,1141 L 1163,571 580,0 -4,571 580,1141 Z"/>
  </g>
  <g id="bullet-char-template-57354" transform="scale(0.00048828125,-0.00048828125)">
   <path d="M 8,1128 L 1137,1128 1137,0 8,0 8,1128 Z"/>
  </g>
  <g id="bullet-char-template-10146" transform="scale(0.00048828125,-0.00048828125)">
   <path d="M 174,0 L 602,739 174,1481 1456,739 174,0 Z M 1358,739 L 309,1346 659,739 1358,739 Z"/>
  </g>
  <g id="bullet-char-template-10132" transform="scale(0.00048828125,-0.00048828125)">
   <path d="M 2015,739 L 1276,0 717,0 1260,543 174,543 174,936 1260,936 717,1481 1274,1481 2015,739 Z"/>
  </g>
  <g id="bullet-char-template-10007" transform="scale(0.00048828125,-0.00048828125)">
   <path d="M 0,-2 C -7,14 -16,27 -25,37 L 356,567 C 262,823 215,952 215,954 215,979 228,992 255,992 264,992 276,990 289,987 310,991 331,999 354,1012 L 381,999 492,748 772,1049 836,1024 860,1049 C 881,1039 901,1025 922,1006 886,937 835,863 770,784 769,783 710,716 594,584 L 774,223 C 774,196 753,168 711,139 L 727,119 C 717,90 699,76 672,76 641,76 570,178 457,381 L 164,-76 C 142,-110 111,-127 72,-127 30,-127 9,-110 8,-76 1,-67 -2,-52 -2,-32 -2,-23 -1,-13 0,-2 Z"/>
  </g>
  <g id="bullet-char-template-10004" transform="scale(0.00048828125,-0.00048828125)">
   <path d="M 285,-33 C 182,-33 111,30 74,156 52,228 41,333 41,471 41,549 55,616 82,672 116,743 169,778 240,778 293,778 328,747 346,684 L 369,508 C 377,444 397,411 428,410 L 1163,1116 C 1174,1127 1196,1133 1229,1133 1271,1133 1292,1118 1292,1087 L 1292,965 C 1292,929 1282,901 1262,881 L 442,47 C 390,-6 338,-33 285,-33 Z"/>
  </g>
  <g id="bullet-char-template-9679" transform="scale(0.00048828125,-0.00048828125)">
   <path d="M 813,0 C 632,0 489,54 383,161 276,268 223,411 223,592 223,773 276,916 383,1023 489,1130 632,1184 813,1184 992,1184 1136,1130 1245,1023 1353,916 1407,772 1407,592 1407,412 1353,268 1245,161 1136,54 992,0 813,0 Z"/>
  </g>
  <g id="bullet-char-template-8226" transform="scale(0.00048828125,-0.00048828125)">
   <path d="M 346,457 C 273,457 209,483 155,535 101,586 74,649 74,723 74,796 101,859 155,911 209,963 273,989 346,989 419,989 480,963 531,910 582,859 608,796 608,723 608,648 583,586 532,535 482,483 420,457 346,457 Z"/>
  </g>
  <g id="bullet-char-template-8211" transform="scale(0.00048828125,-0.00048828125)">
   <path d="M -4,459 L 1135,459 1135,606 -4,606 -4,459 Z"/>
  </g>
  <g id="bullet-char-template-61548" transform="scale(0.00048828125,-0.00048828125)">
   <path d="M 173,740 C 173,903 231,1043 346,1159 462,1274 601,1332 765,1332 928,1332 1067,1274 1183,1159 1299,1043 1357,903 1357,740 1357,577 1299,437 1183,322 1067,206 928,148 765,148 601,148 462,206 346,322 231,437 173,577 173,740 Z"/>
  </g>
 </defs>
 <g class="Page">
  <g class="Group">
   <g class="com.sun.star.drawing.ClosedBezierShape">
    <g id="id3">
     <rect class="BoundingBox" stroke="none" fill="none" x="4700" y="8788" width="3806" height="5262"/>
     <path fill="rgb(255,165,0)" stroke="none" d="M 6293,13639 L 6293,12183 C 6293,11957 6476,11774 6702,11774 6974,11774 7228,11665 7415,11467 7603,11270 7698,11011 7684,10738 7658,10226 7235,9817 6723,9807 6223,9797 5797,10161 5728,10653 5722,10698 5719,10744 5719,10790 5719,11016 5536,11199 5310,11199 5084,11199 4901,11016 4901,10790 4901,10707 4907,10622 4918,10540 5043,9650 5806,8989 6702,8989 6715,8989 6727,8989 6739,8990 7678,9009 8452,9758 8501,10695 8527,11194 8352,11669 8008,12030 7765,12287 7451,12464 7111,12544 L 7111,13639 C 7111,13864 6928,14048 6702,14048 6476,14048 6293,13864 6293,13639 Z"/>
     <path fill="none" stroke="rgb(255,165,0)" d="M 6293,13639 L 6293,12183 C 6293,11957 6476,11774 6702,11774 6974,11774 7228,11665 7415,11467 7603,11270 7698,11011 7684,10738 7658,10226 7235,9817 6723,9807 6223,9797 5797,10161 5728,10653 5722,10698 5719,10744 5719,10790 5719,11016 5536,11199 5310,11199 5084,11199 4901,11016 4901,10790 4901,10707 4907,10622 4918,10540 5043,9650 5806,8989 6702,8989 6715,8989 6727,8989 6739,8990 7678,9009 8452,9758 8501,10695 8527,11194 8352,11669 8008,12030 7765,12287 7451,12464 7111,12544 L 7111,13639 C 7111,13864 6928,14048 6702,14048 6476,14048 6293,13864 6293,13639 Z"/>
     <path fill="rgb(5,133,45)" stroke="none" d="M 6093,13439 L 6093,11983 C 6093,11757 6276,11574 6502,11574 6774,11574 7028,11465 7215,11267 7403,11070 7498,10811 7484,10538 7458,10026 7035,9617 6523,9607 6023,9597 5597,9961 5528,10453 5522,10498 5519,10544 5519,10590 5519,10816 5336,10999 5110,10999 4884,10999 4701,10816 4701,10590 4701,10507 4707,10422 4718,10340 4843,9450 5606,8789 6502,8789 6515,8789 6527,8789 6539,8790 7478,8809 8252,9558 8301,10495 8327,10994 8152,11469 7808,11830 7565,12087 7251,12264 6911,12344 L 6911,13439 C 6911,13664 6728,13848 6502,13848 6276,13848 6093,13664 6093,13439 Z"/>
     <path fill="none" stroke="rgb(52,101,164)" d="M 6093,13439 L 6093,11983 C 6093,11757 6276,11574 6502,11574 6774,11574 7028,11465 7215,11267 7403,11070 7498,10811 7484,10538 7458,10026 7035,9617 6523,9607 6023,9597 5597,9961 5528,10453 5522,10498 5519,10544 5519,10590 5519,10816 5336,10999 5110,10999 4884,10999 4701,10816 4701,10590 4701,10507 4707,10422 4718,10340 4843,9450 5606,8789 6502,8789 6515,8789 6527,8789 6539,8790 7478,8809 8252,9558 8301,10495 8327,10994 8152,11469 7808,11830 7565,12087 7251,12264 6911,12344 L 6911,13439 C 6911,13664 6728,13848 6502,13848 6276,13848 6093,13664 6093,13439 Z"/>
    </g>
   </g>
   <g class="com.sun.star.drawing.ClosedBezierShape">
    <g id="id4">
     <rect class="BoundingBox" stroke="none" fill="none" x="6046" y="14488" width="1114" height="1114"/>
     <path fill="rgb(255,165,0)" stroke="none" d="M 7158,15145 C 7158,15224 7137,15303 7097,15372 7057,15441 6999,15499 6930,15539 6861,15579 6782,15600 6702,15600 6622,15600 6543,15579 6474,15539 6404,15499 6348,15441 6308,15372 6268,15303 6247,15224 6247,15145 6247,15065 6268,14986 6308,14917 6348,14848 6404,14790 6474,14750 6543,14710 6622,14689 6702,14689 6782,14689 6861,14710 6930,14750 6999,14790 7057,14848 7097,14917 7137,14986 7158,15065 7158,15145 Z"/>
     <path fill="none" stroke="rgb(255,165,0)" d="M 7158,15145 C 7158,15224 7137,15303 7097,15372 7057,15441 6999,15499 6930,15539 6861,15579 6782,15600 6702,15600 6622,15600 6543,15579 6474,15539 6404,15499 6348,15441 6308,15372 6268,15303 6247,15224 6247,15145 6247,15065 6268,14986 6308,14917 6348,14848 6404,14790 6474,14750 6543,14710 6622,14689 6702,14689 6782,14689 6861,14710 6930,14750 6999,14790 7057,14848 7097,14917 7137,14986 7158,15065 7158,15145 Z"/>
     <path fill="rgb(5,133,45)" stroke="none" d="M 6958,14945 C 6958,15024 6937,15103 6897,15172 6857,15241 6799,15299 6730,15339 6661,15379 6582,15400 6502,15400 6422,15400 6343,15379 6274,15339 6204,15299 6148,15241 6108,15172 6068,15103 6047,15024 6047,14945 6047,14865 6068,14786 6108,14717 6148,14648 6204,14590 6274,14550 6343,14510 6422,14489 6502,14489 6582,14489 6661,14510 6730,14550 6799,14590 6857,14648 6897,14717 6937,14786 6958,14865 6958,14945 Z"/>
     <path fill="none" stroke="rgb(52,101,164)" d="M 6958,14945 C 6958,15024 6937,15103 6897,15172 6857,15241 6799,15299 6730,15339 6661,15379 6582,15400 6502,15400 6422,15400 6343,15379 6274,15339 6204,15299 6148,15241 6108,15172 6068,15103 6047,15024 6047,14945 6047,14865 6068,14786 6108,14717 6148,14648 6204,14590 6274,14550 6343,14510 6422,14489 6502,14489 6582,14489 6661,14510 6730,14550 6799,14590 6857,14648 6897,14717 6937,14786 6958,14865 6958,14945 Z"/>
    </g>
   </g>
   <g class="com.sun.star.drawing.CustomShape">
    <g id="id5">
     <rect class="BoundingBox" stroke="none" fill="none" x="9899" y="10488" width="5726" height="3672"/>
     <path fill="rgb(255,165,0)" stroke="none" d="M 10323,11406 L 14298,11406 14298,10489 15623,12323 14298,14158 14298,13240 10323,13240 10323,11406 Z"/>
     <path fill="none" stroke="rgb(255,165,0)" d="M 10323,11406 L 14298,11406 14298,10489 15623,12323 14298,14158 14298,13240 10323,13240 10323,11406 Z"/>
     <path fill="rgb(5,133,45)" stroke="none" d="M 9900,11406 L 13875,11406 13875,10489 15200,12323 13875,14158 13875,13240 9900,13240 9900,11406 Z"/>
     <path fill="none" stroke="rgb(52,101,164)" d="M 9900,11406 L 13875,11406 13875,10489 15200,12323 13875,14158 13875,13240 9900,13240 9900,11406 Z"/>
    </g>
   </g>
  </g>
 </g>
</svg>