<?xml version="1.0" encoding="UTF-8"?>
<!DOCTYPE svg PUBLIC "-//W3C//DTD SVG 1.1//EN" "http://www.w3.org/Graphics/SVG/1.1/DTD/svg11.dtd">
<svg version="1.2" width="109.96mm" height="68.14mm" viewBox="4400 17200 10996 6814" preserveAspectRatio="xMidYMid" fill-rule="evenodd" stroke-width="28.222" stroke-linejoin="round" xmlns="http://www.w3.org/2000/svg" xmlns:ooo="http://xml.openoffice.org/svg/export" xmlns:xlink="http://www.w3.org/1999/xlink" xmlns:presentation="http://sun.com/xmlns/staroffice/presentation" xmlns:smil="http://www.w3.org/2001/SMIL20/" xmlns:anim="urn:oasis:names:tc:opendocument:xmlns:animation:1.0" xml:space="preserve">
 <defs class="EmbeddedBulletChars">
  <g id="bullet-char-template-57356" transform="scale(0.00048828125,-0.00048828125)">
   <path d="M 580,1141 L 1163,571 580,0 -4,571 580,1141 Z"/>
  </g>
  <g id="bullet-char-template-57354" transform="scale(0.00048828125,-0.00048828125)">
   <path d="M 8,1128 L 1137,1128 1137,0 8,0 8,1128 Z"/>
  </g>
  <g id="bullet-char-template-10146" transform="scale(0.00048828125,-0.00048828125)">
   <path d="M 174,0 L 602,739 174,1481 1456,739 174,0 Z M 1358,739 L 309,1346 659,739 1358,739 Z"/>
  </g>
  <g id="bullet-char-template-10132" transform="scale(0.00048828125,-0.00048828125)">
   <path d="M 2015,739 L 1276,0 717,0 1260,543 174,543 174,936 1260,936 717,1481 1274,1481 2015,739 Z"/>
  </g>
  <g id="bullet-char-template-10007" transform="scale(0.00048828125,-0.00048828125)">
   <path d="M 0,-2 C -7,14 -16,27 -25,37 L 356,567 C 262,823 215,952 215,954 215,979 228,992 255,992 264,992 276,990 289,987 310,991 331,999 354,1012 L 381,999 492,748 772,1049 836,1024 860,1049 C 881,1039 901,1025 922,1006 886,937 835,863 770,784 769,783 710,716 594,584 L 774,223 C 774,196 753,168 711,139 L 727,119 C 717,90 699,76 672,76 641,76 570,178 457,381 L 164,-76 C 142,-110 111,-127 72,-127 30,-127 9,-110 8,-76 1,-67 -2,-52 -2,-32 -2,-23 -1,-13 0,-2 Z"/>
  </g>
  <g id="bullet-char-template-10004" transform="scale(0.00048828125,-0.00048828125)">
   <path d="M 285,-33 C 182,-33 111,30 74,156 52,228 41,333 41,471 41,549 55,616 82,672 116,743 169,778 240,778 293,778 328,747 346,684 L 369,508 C 377,444 397,411 428,410 L 1163,1116 C 1174,1127 1196,1133 1229,1133 1271,1133 1292,1118 1292,1087 L 1292,965 C 1292,929 1282,901 1262,881 L 442,47 C 390,-6 338,-33 285,-33 Z"/>
  </g>
  <g id="bullet-char-template-9679" transform="scale(0.00048828125,-0.00048828125)">
   <path d="M 813,0 C 632,0 489,54 383,161 276,268 223,411 223,592 223,773 276,916 383,1023 489,1130 632,1184 813,1184 992,1184 1136,1130 1245,1023 1353,916 1407,772 1407,592 1407,412 1353,268 1245,161 1136,54 992,0 813,0 Z"/>
  </g>
  <g id="bullet-char-template-8226" transform="scale(0.00048828125,-0.00048828125)">
   <path d="M 346,457 C 273,457 209,483 155,535 101,586 74,649 74,723 74,796 101,859 155,911 209,963 273,989 346,989 419,989 480,963 531,910 582,859 608,796 608,723 608,648 583,586 532,535 482,483 420,457 346,457 Z"/>
  </g>
  <g id="bullet-char-template-8211" transform="scale(0.00048828125,-0.00048828125)">
   <path d="M -4,459 L 1135,459 1135,606 -4,606 -4,459 Z"/>
  </g>
  <g id="bullet-char-template-61548" transform="scale(0.00048828125,-0.00048828125)">
   <path d="M 173,740 C 173,903 231,1043 346,1159 462,1274 601,1332 765,1332 928,1332 1067,1274 1183,1159 1299,1043 1357,903 1357,740 1357,577 1299,437 1183,322 1067,206 928,148 765,148 601,148 462,206 346,322 231,437 173,577 173,740 Z"/>
  </g>
 </defs>
 <g class="Page">
  <g class="Group">
   <g class="com.sun.star.drawing.ClosedBezierShape">
    <g id="id3">
     <rect class="BoundingBox" stroke="none" fill="none" x="4400" y="17200" width="3806" height="5262"/>
     <path fill="rgb(180,199,220)" stroke="none" d="M 5993,22051 L 5993,20595 C 5993,20369 6176,20186 6402,20186 6674,20186 6928,20077 7115,19879 7303,19682 7398,19423 7384,19150 7358,18638 6935,18229 6423,18219 5923,18209 5497,18573 5428,19065 5422,19110 5419,19156 5419,19202 5419,19428 5236,19611 5010,19611 4784,19611 4601,19428 4601,19202 4601,19119 4607,19034 4618,18952 4743,18062 5506,17401 6402,17401 6415,17401 6427,17401 6439,17402 7378,17421 8152,18170 8201,19107 8227,19606 8052,20081 7708,20442 7465,20699 7151,20876 6811,20956 L 6811,22051 C 6811,22276 6628,22460 6402,22460 6176,22460 5993,22276 5993,22051 Z"/>
     <path fill="none" stroke="rgb(180,199,220)" d="M 5993,22051 L 5993,20595 C 5993,20369 6176,20186 6402,20186 6674,20186 6928,20077 7115,19879 7303,19682 7398,19423 7384,19150 7358,18638 6935,18229 6423,18219 5923,18209 5497,18573 5428,19065 5422,19110 5419,19156 5419,19202 5419,19428 5236,19611 5010,19611 4784,19611 4601,19428 4601,19202 4601,19119 4607,19034 4618,18952 4743,18062 5506,17401 6402,17401 6415,17401 6427,17401 6439,17402 7378,17421 8152,18170 8201,19107 8227,19606 8052,20081 7708,20442 7465,20699 7151,20876 6811,20956 L 6811,22051 C 6811,22276 6628,22460 6402,22460 6176,22460 5993,22276 5993,22051 Z"/>
     <path fill="rgb(0,81,252)" stroke="none" d="M 5793,21851 L 5793,20395 C 5793,20169 5976,19986 6202,19986 6474,19986 6728,19877 6915,19679 7103,19482 7198,19223 7184,18950 7158,18438 6735,18029 6223,18019 5723,18009 5297,18373 5228,18865 5222,18910 5219,18956 5219,19002 5219,19228 5036,19411 4810,19411 4584,19411 4401,19228 4401,19002 4401,18919 4407,18834 4418,18752 4543,17862 5306,17201 6202,17201 6215,17201 6227,17201 6239,17202 7178,17221 7952,17970 8001,18907 8027,19406 7852,19881 7508,20242 7265,20499 6951,20676 6611,20756 L 6611,21851 C 6611,22076 6428,22260 6202,22260 5976,22260 5793,22076 5793,21851 Z"/>
     <path fill="none" stroke="rgb(52,101,164)" d="M 5793,21851 L 5793,20395 C 5793,20169 5976,19986 6202,19986 6474,19986 6728,19877 6915,19679 7103,19482 7198,19223 7184,18950 7158,18438 6735,18029 6223,18019 5723,18009 5297,18373 5228,18865 5222,18910 5219,18956 5219,19002 5219,19228 5036,19411 4810,19411 4584,19411 4401,19228 4401,19002 4401,18919 4407,18834 4418,18752 4543,17862 5306,17201 6202,17201 6215,17201 6227,17201 6239,17202 7178,17221 7952,17970 8001,18907 8027,19406 7852,19881 7508,20242 7265,20499 6951,20676 6611,20756 L 6611,21851 C 6611,22076 6428,22260 6202,22260 5976,22260 5793,22076 5793,21851 Z"/>
    </g>
   </g>
   <g class="com.sun.star.drawing.ClosedBezierShape">
    <g id="id4">
     <rect class="BoundingBox" stroke="none" fill="none" x="5746" y="22900" width="1114" height="1114"/>
     <path fill="rgb(180,199,220)" stroke="none" d="M 6858,23557 C 6858,23636 6837,23715 6797,23784 6757,23853 6699,23911 6630,23951 6561,23991 6482,24012 6402,24012 6322,24012 6243,23991 6174,23951 6104,23911 6048,23853 6008,23784 5968,23715 5947,23636 5947,23557 5947,23477 5968,23398 6008,23329 6048,23260 6104,23202 6174,23162 6243,23122 6322,23101 6402,23101 6482,23101 6561,23122 6630,23162 6699,23202 6757,23260 6797,23329 6837,23398 6858,23477 6858,23557 Z"/>
     <path fill="none" stroke="rgb(180,199,220)" d="M 6858,23557 C 6858,23636 6837,23715 6797,23784 6757,23853 6699,23911 6630,23951 6561,23991 6482,24012 6402,24012 6322,24012 6243,23991 6174,23951 6104,23911 6048,23853 6008,23784 5968,23715 5947,23636 5947,23557 5947,23477 5968,23398 6008,23329 6048,23260 6104,23202 6174,23162 6243,23122 6322,23101 6402,23101 6482,23101 6561,23122 6630,23162 6699,23202 6757,23260 6797,23329 6837,23398 6858,23477 6858,23557 Z"/>
     <path fill="rgb(0,81,252)" stroke="none" d="M 6658,23357 C 6658,23436 6637,23515 6597,23584 6557,23653 6499,23711 6430,23751 6361,23791 6282,23812 6202,23812 6122,23812 6043,23791 5974,23751 5904,23711 5848,23653 5808,23584 5768,23515 5747,23436 5747,23357 5747,23277 5768,23198 5808,23129 5848,23060 5904,23002 5974,22962 6043,22922 6122,22901 6202,22901 6282,22901 6361,22922 6430,22962 6499,23002 6557,23060 6597,23129 6637,23198 6658,23277 6658,23357 Z"/>
     <path fill="none" stroke="rgb(52,101,164)" d="M 6658,23357 C 6658,23436 6637,23515 6597,23584 6557,23653 6499,23711 6430,23751 6361,23791 6282,23812 6202,23812 6122,23812 6043,23791 5974,23751 5904,23711 5848,23653 5808,23584 5768,23515 5747,23436 5747,23357 5747,23277 5768,23198 5808,23129 5848,23060 5904,23002 5974,22962 6043,22922 6122,22901 6202,22901 6282,22901 6361,22922 6430,22962 6499,23002 6557,23060 6597,23129 6637,23198 6658,23277 6658,23357 Z"/>
    </g>
   </g>
   <g class="com.sun.star.drawing.CustomShape">
    <g id="id5">
     <rect class="BoundingBox" stroke="none" fill="none" x="9599" y="18900" width="5797" height="3672"/>
     <path fill="rgb(180,199,220)" stroke="none" d="M 10094,19818 L 14069,19818 14069,18901 15394,20735 14069,22570 14069,21652 10094,21652 10094,19818 Z"/>
     <path fill="none" stroke="rgb(180,199,220)" d="M 10094,19818 L 14069,19818 14069,18901 15394,20735 14069,22570 14069,21652 10094,21652 10094,19818 Z"/>
     <path fill="rgb(8,54,153)" stroke="none" d="M 9600,19818 L 13575,19818 13575,18901 14900,20735 13575,22570 13575,21652 9600,21652 9600,19818 Z"/>
     <path fill="none" stroke="rgb(52,101,164)" d="M 9600,19818 L 13575,19818 13575,18901 14900,20735 13575,22570 13575,21652 9600,21652 9600,19818 Z"/>
    </g>
   </g>
  </g>
 </g>
</svg>