<?xml version="1.0" encoding="UTF-8" standalone="no"?>
<svg
   xmlns:dc="http://purl.org/dc/elements/1.1/"
   xmlns:cc="http://creativecommons.org/ns#"
   xmlns:rdf="http://www.w3.org/1999/02/22-rdf-syntax-ns#"
   xmlns:svg="http://www.w3.org/2000/svg"
   xmlns="http://www.w3.org/2000/svg"
   xmlns:sodipodi="http://sodipodi.sourceforge.net/DTD/sodipodi-0.dtd"
   xmlns:inkscape="http://www.inkscape.org/namespaces/inkscape"
   xml:space="preserve"
   version="1.1"
   style="clip-rule:evenodd;fill-rule:evenodd;image-rendering:optimizeQuality;shape-rendering:geometricPrecision;text-rendering:geometricPrecision"
   viewBox="0 0 668 351"
   x="0px"
   y="0px"
   id="svg24"
   sodipodi:docname="team.svg"
   width="668"
   height="351"
   inkscape:version="0.92.4 (5da689c313, 2019-01-14)"><metadata
     id="metadata28"><rdf:RDF><cc:Work
         rdf:about=""><dc:format>image/svg+xml</dc:format><dc:type
           rdf:resource="http://purl.org/dc/dcmitype/StillImage" /></cc:Work></rdf:RDF></metadata><sodipodi:namedview
     pagecolor="#ffffff"
     bordercolor="#666666"
     borderopacity="1"
     objecttolerance="10"
     gridtolerance="10"
     guidetolerance="10"
     inkscape:pageopacity="0"
     inkscape:pageshadow="2"
     inkscape:window-width="1366"
     inkscape:window-height="705"
     id="namedview26"
     showgrid="false"
     inkscape:zoom="0.53443114"
     inkscape:cx="334"
     inkscape:cy="131.625"
     inkscape:window-x="-8"
     inkscape:window-y="-8"
     inkscape:window-maximized="1"
     inkscape:current-layer="svg24" /><defs
     id="defs4"><style
       type="text/css"
       id="style2">
   
    .fil0 {fill:black}
   
  </style></defs><g
     id="g18"><path
       class="fil0"
       d="m 334,43 c 42,0 76,34 76,76 0,42 -34,77 -76,77 -42,0 -76,-35 -76,-77 0,-42 34,-76 76,-76 z"
       id="path6"
       inkscape:connector-curvature="0"
       style="fill:#000000" /><path
       class="fil0"
       d="m 281,230 h 106 c 30,0 55,22 60,51 l 11,70 H 210 l 11,-70 c 5,-29 30,-51 60,-51 z"
       id="path8"
       inkscape:connector-curvature="0"
       style="fill:#000000" /><path
       class="fil0"
       d="m 544,0 c 42,0 76,34 76,76 0,42 -34,76 -76,76 -42,0 -76,-34 -76,-76 0,-42 34,-76 76,-76 z"
       id="path10"
       inkscape:connector-curvature="0"
       style="fill:#000000" /><path
       class="fil0"
       d="m 491,187 h 106 c 30,0 55,21 60,51 l 11,70 H 480 l -5,-31 c -4,-25 -18,-46 -37,-60 11,-18 30,-30 53,-30 z"
       id="path12"
       inkscape:connector-curvature="0"
       style="fill:#000000" /><path
       class="fil0"
       d="m 124,0 c 42,0 76,34 76,76 0,42 -34,76 -76,76 C 82,152 48,118 48,76 48,34 82,0 124,0 Z"
       id="path14"
       inkscape:connector-curvature="0"
       style="fill:#000000" /><path
       class="fil0"
       d="m 71,187 h 106 c 23,0 42,12 53,30 -20,14 -33,35 -37,60 l -5,31 H 0 l 11,-70 c 5,-30 30,-51 60,-51 z"
       id="path16"
       inkscape:connector-curvature="0"
       style="fill:#000000" /></g></svg>