<?xml version="1.0" encoding="UTF-8"?>
<!DOCTYPE svg PUBLIC "-//W3C//DTD SVG 1.1//EN" "http://www.w3.org/Graphics/SVG/1.1/DTD/svg11.dtd">
<svg version="1.2" width="170.58mm" height="170.55mm" viewBox="2100 5598 17058 17055" preserveAspectRatio="xMidYMid" fill-rule="evenodd" stroke-width="28.222" stroke-linejoin="round" xmlns="http://www.w3.org/2000/svg" xmlns:ooo="http://xml.openoffice.org/svg/export" xmlns:xlink="http://www.w3.org/1999/xlink" xmlns:presentation="http://sun.com/xmlns/staroffice/presentation" xmlns:smil="http://www.w3.org/2001/SMIL20/" xmlns:anim="urn:oasis:names:tc:opendocument:xmlns:animation:1.0" xml:space="preserve">
 <defs class="EmbeddedBulletChars">
  <g id="bullet-char-template-57356" transform="scale(0.00048828125,-0.00048828125)">
   <path d="M 580,1141 L 1163,571 580,0 -4,571 580,1141 Z"/>
  </g>
  <g id="bullet-char-template-57354" transform="scale(0.00048828125,-0.00048828125)">
   <path d="M 8,1128 L 1137,1128 1137,0 8,0 8,1128 Z"/>
  </g>
  <g id="bullet-char-template-10146" transform="scale(0.00048828125,-0.00048828125)">
   <path d="M 174,0 L 602,739 174,1481 1456,739 174,0 Z M 1358,739 L 309,1346 659,739 1358,739 Z"/>
  </g>
  <g id="bullet-char-template-10132" transform="scale(0.00048828125,-0.00048828125)">
   <path d="M 2015,739 L 1276,0 717,0 1260,543 174,543 174,936 1260,936 717,1481 1274,1481 2015,739 Z"/>
  </g>
  <g id="bullet-char-template-10007" transform="scale(0.00048828125,-0.00048828125)">
   <path d="M 0,-2 C -7,14 -16,27 -25,37 L 356,567 C 262,823 215,952 215,954 215,979 228,992 255,992 264,992 276,990 289,987 310,991 331,999 354,1012 L 381,999 492,748 772,1049 836,1024 860,1049 C 881,1039 901,1025 922,1006 886,937 835,863 770,784 769,783 710,716 594,584 L 774,223 C 774,196 753,168 711,139 L 727,119 C 717,90 699,76 672,76 641,76 570,178 457,381 L 164,-76 C 142,-110 111,-127 72,-127 30,-127 9,-110 8,-76 1,-67 -2,-52 -2,-32 -2,-23 -1,-13 0,-2 Z"/>
  </g>
  <g id="bullet-char-template-10004" transform="scale(0.00048828125,-0.00048828125)">
   <path d="M 285,-33 C 182,-33 111,30 74,156 52,228 41,333 41,471 41,549 55,616 82,672 116,743 169,778 240,778 293,778 328,747 346,684 L 369,508 C 377,444 397,411 428,410 L 1163,1116 C 1174,1127 1196,1133 1229,1133 1271,1133 1292,1118 1292,1087 L 1292,965 C 1292,929 1282,901 1262,881 L 442,47 C 390,-6 338,-33 285,-33 Z"/>
  </g>
  <g id="bullet-char-template-9679" transform="scale(0.00048828125,-0.00048828125)">
   <path d="M 813,0 C 632,0 489,54 383,161 276,268 223,411 223,592 223,773 276,916 383,1023 489,1130 632,1184 813,1184 992,1184 1136,1130 1245,1023 1353,916 1407,772 1407,592 1407,412 1353,268 1245,161 1136,54 992,0 813,0 Z"/>
  </g>
  <g id="bullet-char-template-8226" transform="scale(0.00048828125,-0.00048828125)">
   <path d="M 346,457 C 273,457 209,483 155,535 101,586 74,649 74,723 74,796 101,859 155,911 209,963 273,989 346,989 419,989 480,963 531,910 582,859 608,796 608,723 608,648 583,586 532,535 482,483 420,457 346,457 Z"/>
  </g>
  <g id="bullet-char-template-8211" transform="scale(0.00048828125,-0.00048828125)">
   <path d="M -4,459 L 1135,459 1135,606 -4,606 -4,459 Z"/>
  </g>
  <g id="bullet-char-template-61548" transform="scale(0.00048828125,-0.00048828125)">
   <path d="M 173,740 C 173,903 231,1043 346,1159 462,1274 601,1332 765,1332 928,1332 1067,1274 1183,1159 1299,1043 1357,903 1357,740 1357,577 1299,437 1183,322 1067,206 928,148 765,148 601,148 462,206 346,322 231,437 173,577 173,740 Z"/>
  </g>
 </defs>
 <g class="Page">
  <g class="Group">
   <g class="com.sun.star.drawing.ClosedBezierShape">
    <g id="id3">
     <rect class="BoundingBox" stroke="none" fill="none" x="2100" y="5598" width="17058" height="17055"/>
     <path fill="rgb(175,208,149)" stroke="none" d="M 10803,5952 C 6192,5952 2453,9691 2453,14303 2453,18913 6192,22652 10803,22652 L 10806,22652 C 15417,22652 19156,18913 19156,14303 19156,9691 15417,5952 10806,5952 L 10803,5952 Z M 17972,11241 L 14278,11241 C 14063,10468 13763,9721 13383,9014 L 16524,9014 C 17130,9668 17620,10421 17972,11241 Z M 12399,8458 L 9210,8458 C 9661,7773 10196,7148 10804,6600 11412,7148 11948,7773 12399,8458 Z M 8543,8458 L 5660,8458 C 6886,7373 8423,6705 10051,6547 9475,7122 8969,7763 8543,8458 Z M 15953,8458 L 13067,8458 C 12640,7763 12134,7122 11557,6546 13188,6704 14726,7372 15953,8458 Z M 12745,9014 C 13151,9715 13474,10463 13706,11241 L 7907,11241 C 8137,10463 8459,9715 8865,9014 L 12745,9014 Z M 5089,9014 L 8227,9014 C 7848,9721 7548,10468 7334,11241 L 3641,11241 C 3993,10421 4482,9668 5089,9014 Z M 18184,11797 C 18738,13422 18738,15183 18184,16807 L 3429,16807 C 2874,15183 2874,13422 3429,11797 L 18184,11797 Z M 9210,20147 L 12399,20147 C 11948,20831 11412,21455 10804,22005 10196,21455 9661,20831 9210,20147 Z M 13067,20147 L 15953,20147 C 14726,21232 13186,21901 11555,22058 12132,21483 12640,20842 13067,20147 Z M 10051,22058 C 8423,21900 6886,21231 5660,20147 L 8543,20147 C 8969,20841 9475,21482 10051,22058 Z M 8865,19590 C 8459,18888 8137,18141 7907,17363 L 13706,17363 C 13474,18141 13151,18888 12745,19590 L 8865,19590 Z M 3641,17363 L 7334,17363 C 7548,18137 7848,18883 8227,19590 L 5089,19590 C 4482,18936 3993,18183 3641,17363 Z M 13383,19590 C 13763,18883 14063,18137 14278,17363 L 17972,17363 C 17620,18183 17130,18936 16524,19590 L 13383,19590 Z"/>
     <path fill="rgb(5,133,45)" stroke="none" d="M 10450,5599 C 5839,5599 2100,9338 2100,13950 2100,18560 5839,22299 10450,22299 L 10453,22299 C 15064,22299 18803,18560 18803,13950 18803,9338 15064,5599 10453,5599 L 10450,5599 Z M 17619,10888 L 13925,10888 C 13710,10115 13410,9368 13030,8661 L 16171,8661 C 16777,9315 17267,10068 17619,10888 Z M 12046,8105 L 8857,8105 C 9308,7420 9843,6795 10451,6247 11059,6795 11595,7420 12046,8105 Z M 8190,8105 L 5307,8105 C 6533,7020 8070,6352 9698,6194 9122,6769 8616,7410 8190,8105 Z M 15600,8105 L 12714,8105 C 12287,7410 11781,6769 11204,6193 12835,6351 14373,7019 15600,8105 Z M 12392,8661 C 12798,9362 13121,10110 13353,10888 L 7554,10888 C 7784,10110 8106,9362 8512,8661 L 12392,8661 Z M 4736,8661 L 7874,8661 C 7495,9368 7195,10115 6981,10888 L 3288,10888 C 3640,10068 4129,9315 4736,8661 Z M 17831,11444 C 18385,13069 18385,14830 17831,16454 L 3076,16454 C 2521,14830 2521,13069 3076,11444 L 17831,11444 Z M 8857,19794 L 12046,19794 C 11595,20478 11059,21102 10451,21652 9843,21102 9308,20478 8857,19794 Z M 12714,19794 L 15600,19794 C 14373,20879 12833,21548 11202,21705 11779,21130 12287,20489 12714,19794 Z M 9698,21705 C 8070,21547 6533,20878 5307,19794 L 8190,19794 C 8616,20488 9122,21129 9698,21705 Z M 8512,19237 C 8106,18535 7784,17788 7554,17010 L 13353,17010 C 13121,17788 12798,18535 12392,19237 L 8512,19237 Z M 3288,17010 L 6981,17010 C 7195,17784 7495,18530 7874,19237 L 4736,19237 C 4129,18583 3640,17830 3288,17010 Z M 13030,19237 C 13410,18530 13710,17784 13925,17010 L 17619,17010 C 17267,17830 16777,18583 16171,19237 L 13030,19237 Z"/>
    </g>
   </g>
   <g class="com.sun.star.drawing.ClosedBezierShape">
    <g id="id4">
     <rect class="BoundingBox" stroke="none" fill="none" x="3485" y="12189" width="3916" height="3450"/>
     <path fill="rgb(255,165,0)" stroke="none" d="M 4339,15415 C 4373,15534 4481,15618 4605,15620 L 4609,15620 C 4731,15620 4840,15539 4875,15421 L 5443,13527 6012,15421 C 6047,15539 6156,15620 6279,15620 L 6282,15620 C 6406,15618 6515,15534 6547,15415 L 7382,12353 6845,12207 6266,14330 5709,12478 C 5674,12361 5566,12280 5442,12280 5319,12280 5211,12361 5176,12478 L 4619,14330 4040,12207 3503,12353 4339,15415 Z"/>
     <path fill="none" stroke="rgb(5,133,45)" stroke-width="35" stroke-linejoin="miter" d="M 4339,15415 C 4373,15534 4481,15618 4605,15620 L 4609,15620 C 4731,15620 4840,15539 4875,15421 L 5443,13527 6012,15421 C 6047,15539 6156,15620 6279,15620 L 6282,15620 C 6406,15618 6515,15534 6547,15415 L 7382,12353 6845,12207 6266,14330 5709,12478 C 5674,12361 5566,12280 5442,12280 5319,12280 5211,12361 5176,12478 L 4619,14330 4040,12207 3503,12353 4339,15415 Z"/>
    </g>
   </g>
   <g class="com.sun.star.drawing.ClosedBezierShape">
    <g id="id5">
     <rect class="BoundingBox" stroke="none" fill="none" x="8512" y="12206" width="3883" height="3416"/>
     <path fill="rgb(255,165,0)" stroke="none" d="M 9615,15620 L 9618,15620 C 9742,15620 9850,15539 9886,15421 L 10454,13527 11022,15421 C 11058,15539 11166,15620 11289,15620 L 11293,15620 C 11417,15618 11524,15534 11557,15415 L 12393,12353 11855,12207 11276,14330 10719,12478 C 10684,12361 10575,12280 10453,12280 10330,12280 10221,12361 10186,12478 L 9629,14330 9050,12207 8513,12353 9348,15415 C 9381,15535 9490,15619 9615,15620 Z"/>
     <path fill="none" stroke="rgb(5,133,45)" d="M 9615,15620 L 9618,15620 C 9742,15620 9850,15539 9886,15421 L 10454,13527 11022,15421 C 11058,15539 11166,15620 11289,15620 L 11293,15620 C 11417,15618 11524,15534 11557,15415 L 12393,12353 11855,12207 11276,14330 10719,12478 C 10684,12361 10575,12280 10453,12280 10330,12280 10221,12361 10186,12478 L 9629,14330 9050,12207 8513,12353 9348,15415 C 9381,15535 9490,15619 9615,15620 Z"/>
    </g>
   </g>
   <g class="com.sun.star.drawing.ClosedBezierShape">
    <g id="id6">
     <rect class="BoundingBox" stroke="none" fill="none" x="13521" y="12206" width="3882" height="3416"/>
     <path fill="rgb(255,165,0)" stroke="none" d="M 14624,15620 L 14628,15620 C 14750,15620 14859,15539 14894,15421 L 15463,13527 16031,15421 C 16067,15539 16175,15620 16298,15620 L 16301,15620 C 16426,15618 16534,15534 16567,15415 L 17401,12353 16865,12207 16286,14330 15728,12478 C 15694,12361 15585,12280 15462,12280 15339,12280 15231,12361 15195,12478 L 14639,14330 14059,12207 13522,12353 14357,15415 C 14390,15535 14499,15619 14624,15620 Z"/>
     <path fill="none" stroke="rgb(5,133,45)" d="M 14624,15620 L 14628,15620 C 14750,15620 14859,15539 14894,15421 L 15463,13527 16031,15421 C 16067,15539 16175,15620 16298,15620 L 16301,15620 C 16426,15618 16534,15534 16567,15415 L 17401,12353 16865,12207 16286,14330 15728,12478 C 15694,12361 15585,12280 15462,12280 15339,12280 15231,12361 15195,12478 L 14639,14330 14059,12207 13522,12353 14357,15415 C 14390,15535 14499,15619 14624,15620 Z"/>
    </g>
   </g>
  </g>
 </g>
</svg>