<?xml version="1.0" encoding="UTF-8" standalone="no"?>
<svg
   xmlns:dc="http://purl.org/dc/elements/1.1/"
   xmlns:cc="http://creativecommons.org/ns#"
   xmlns:rdf="http://www.w3.org/1999/02/22-rdf-syntax-ns#"
   xmlns:svg="http://www.w3.org/2000/svg"
   xmlns="http://www.w3.org/2000/svg"
   xmlns:sodipodi="http://sodipodi.sourceforge.net/DTD/sodipodi-0.dtd"
   xmlns:inkscape="http://www.inkscape.org/namespaces/inkscape"
   version="1.2"
   width="170.58mm"
   height="170.55mm"
   viewBox="2100 5598 17058 17055"
   preserveAspectRatio="xMidYMid"
   fill-rule="evenodd"
   stroke-width="28.222"
   stroke-linejoin="round"
   xml:space="preserve"
   id="svg74"
   sodipodi:docname="websites.svg"
   inkscape:version="0.92.4 (5da689c313, 2019-01-14)"><metadata
   id="metadata78"><rdf:RDF><cc:Work
       rdf:about=""><dc:format>image/svg+xml</dc:format><dc:type
         rdf:resource="http://purl.org/dc/dcmitype/StillImage" /></cc:Work></rdf:RDF></metadata><sodipodi:namedview
   pagecolor="#ffffff"
   bordercolor="#666666"
   borderopacity="1"
   objecttolerance="10"
   gridtolerance="10"
   guidetolerance="10"
   inkscape:pageopacity="0"
   inkscape:pageshadow="2"
   inkscape:window-width="1366"
   inkscape:window-height="705"
   id="namedview76"
   showgrid="false"
   inkscape:zoom="1.0355421"
   inkscape:cx="310.25972"
   inkscape:cy="392.55653"
   inkscape:window-x="-8"
   inkscape:window-y="-8"
   inkscape:window-maximized="1"
   inkscape:current-layer="g70" />
 <defs
   class="EmbeddedBulletChars"
   id="defs32">
  <g
   id="bullet-char-template-57356"
   transform="scale(0.00048828125,-0.00048828125)">
   <path
   d="M 580,1141 L 1163,571 580,0 -4,571 580,1141 Z"
   id="path2" />
  </g>
  <g
   id="bullet-char-template-57354"
   transform="scale(0.00048828125,-0.00048828125)">
   <path
   d="M 8,1128 L 1137,1128 1137,0 8,0 8,1128 Z"
   id="path5" />
  </g>
  <g
   id="bullet-char-template-10146"
   transform="scale(0.00048828125,-0.00048828125)">
   <path
   d="M 174,0 L 602,739 174,1481 1456,739 174,0 Z M 1358,739 L 309,1346 659,739 1358,739 Z"
   id="path8" />
  </g>
  <g
   id="bullet-char-template-10132"
   transform="scale(0.00048828125,-0.00048828125)">
   <path
   d="M 2015,739 L 1276,0 717,0 1260,543 174,543 174,936 1260,936 717,1481 1274,1481 2015,739 Z"
   id="path11" />
  </g>
  <g
   id="bullet-char-template-10007"
   transform="scale(0.00048828125,-0.00048828125)">
   <path
   d="M 0,-2 C -7,14 -16,27 -25,37 L 356,567 C 262,823 215,952 215,954 215,979 228,992 255,992 264,992 276,990 289,987 310,991 331,999 354,1012 L 381,999 492,748 772,1049 836,1024 860,1049 C 881,1039 901,1025 922,1006 886,937 835,863 770,784 769,783 710,716 594,584 L 774,223 C 774,196 753,168 711,139 L 727,119 C 717,90 699,76 672,76 641,76 570,178 457,381 L 164,-76 C 142,-110 111,-127 72,-127 30,-127 9,-110 8,-76 1,-67 -2,-52 -2,-32 -2,-23 -1,-13 0,-2 Z"
   id="path14" />
  </g>
  <g
   id="bullet-char-template-10004"
   transform="scale(0.00048828125,-0.00048828125)">
   <path
   d="M 285,-33 C 182,-33 111,30 74,156 52,228 41,333 41,471 41,549 55,616 82,672 116,743 169,778 240,778 293,778 328,747 346,684 L 369,508 C 377,444 397,411 428,410 L 1163,1116 C 1174,1127 1196,1133 1229,1133 1271,1133 1292,1118 1292,1087 L 1292,965 C 1292,929 1282,901 1262,881 L 442,47 C 390,-6 338,-33 285,-33 Z"
   id="path17" />
  </g>
  <g
   id="bullet-char-template-9679"
   transform="scale(0.00048828125,-0.00048828125)">
   <path
   d="M 813,0 C 632,0 489,54 383,161 276,268 223,411 223,592 223,773 276,916 383,1023 489,1130 632,1184 813,1184 992,1184 1136,1130 1245,1023 1353,916 1407,772 1407,592 1407,412 1353,268 1245,161 1136,54 992,0 813,0 Z"
   id="path20" />
  </g>
  <g
   id="bullet-char-template-8226"
   transform="scale(0.00048828125,-0.00048828125)">
   <path
   d="M 346,457 C 273,457 209,483 155,535 101,586 74,649 74,723 74,796 101,859 155,911 209,963 273,989 346,989 419,989 480,963 531,910 582,859 608,796 608,723 608,648 583,586 532,535 482,483 420,457 346,457 Z"
   id="path23" />
  </g>
  <g
   id="bullet-char-template-8211"
   transform="scale(0.00048828125,-0.00048828125)">
   <path
   d="M -4,459 L 1135,459 1135,606 -4,606 -4,459 Z"
   id="path26" />
  </g>
  <g
   id="bullet-char-template-61548"
   transform="scale(0.00048828125,-0.00048828125)">
   <path
   d="M 173,740 C 173,903 231,1043 346,1159 462,1274 601,1332 765,1332 928,1332 1067,1274 1183,1159 1299,1043 1357,903 1357,740 1357,577 1299,437 1183,322 1067,206 928,148 765,148 601,148 462,206 346,322 231,437 173,577 173,740 Z"
   id="path29" />
  </g>
 </defs>
 <g
   class="Page"
   id="g72">
  <g
   class="Group"
   id="g70">
   <g
   class="com.sun.star.drawing.ClosedBezierShape"
   id="g41">
    <g
   id="id3">
     <rect
   class="BoundingBox"
   stroke="none"
   fill="none"
   x="2100"
   y="5598"
   width="17058"
   height="17055"
   id="rect34" />
     
     <path
   d="m 10552.201,5420.1485 c -4611.0001,0 -8350.0001,3739 -8350.0001,8350.9995 0,4610 3739,8349 8350.0001,8349 h 3 c 4611,0 8350,-3739 8350,-8349 0,-4611.9995 -3739,-8350.9995 -8350,-8350.9995 z m 7169,5288.9995 h -3694 c -215,-772.9997 -515,-1519.9995 -895,-2226.9995 h 3141 c 606,654 1096,1406.9998 1448,2226.9995 z m -5573,-2782.9995 H 8959.2006 c 451,-685 986,-1310 1594.0004,-1858 608,548 1144,1173 1595,1858 z m -3856.0001,0 h -2883 c 1226,-1085 2763,-1753 4390.9997,-1911 -576,575 -1082,1216 -1507.9997,1911 z m 7410.0001,0 h -2886 c -427,-695 -933,-1336 -1510,-1912 1631,158 3169,826 4396,1912 z m -3208,556 c 406,701 729,1448.9998 961,2226.9995 H 7656.2009 c 230,-777.9997 552,-1525.9995 957.9997,-2226.9995 z m -7656.0001,0 h 3138 c -379,707 -679,1453.9998 -893,2226.9995 h -3693 c 352,-819.9997 841,-1572.9995 1448,-2226.9995 z M 17933.201,11265.148 c 554,1625 554,3386 0,5010 H 3178.2009 c -555,-1624 -555,-3385 0,-5010 z m -8974.0004,8350 h 3189.0004 c -451,684 -987,1308 -1595,1858 -608.0004,-550 -1143.0004,-1174 -1594.0004,-1858 z m 3857.0004,0 h 2886 c -1227,1085 -2767,1754 -4398,1911 577,-575 1085,-1216 1512,-1911 z m -3016.0004,1911 c -1627.9997,-158 -3164.9997,-827 -4390.9997,-1911 h 2883 c 425.9997,694 931.9997,1335 1507.9997,1911 z m -1186,-2468 c -405.9997,-702 -727.9997,-1449 -957.9997,-2227 h 5799.0001 c -232,778 -555,1525 -961,2227 z m -5223.9997,-2227 h 3693 c 214,774 514,1520 893,2227 h -3138 c -607,-654 -1096,-1407 -1448,-2227 z m 9742.0001,2227 c 380,-707 680,-1453 895,-2227 h 3694 c -352,820 -842,1573 -1448,2227 z"
   id="path38"
   inkscape:connector-curvature="0"
   style="fill:#05852d;stroke:none" />
    </g>
   </g>
   <g
   class="com.sun.star.drawing.ClosedBezierShape"
   id="g50"
   style="stroke-width:28.23104155;stroke-miterlimit:4;stroke-dasharray:none;stroke:none">
    <g
   id="id4"
   style="stroke-width:28.23104155;stroke-miterlimit:4;stroke-dasharray:none;stroke:none">
     <rect
   class="BoundingBox"
   stroke="none"
   fill="none"
   x="3485"
   y="12189"
   width="3916"
   height="3450"
   id="rect43"
   style="stroke-width:28.23104155;stroke-miterlimit:4;stroke-dasharray:none;stroke:none" />
     <path
   fill="rgb(255,165,0)"
   stroke="none"
   d="M 4339,15415 C 4373,15534 4481,15618 4605,15620 L 4609,15620 C 4731,15620 4840,15539 4875,15421 L 5443,13527 6012,15421 C 6047,15539 6156,15620 6279,15620 L 6282,15620 C 6406,15618 6515,15534 6547,15415 L 7382,12353 6845,12207 6266,14330 5709,12478 C 5674,12361 5566,12280 5442,12280 5319,12280 5211,12361 5176,12478 L 4619,14330 4040,12207 3503,12353 4339,15415 Z"
   id="path45"
   style="stroke-width:28.23104155;stroke-miterlimit:4;stroke-dasharray:none;stroke:none;fill:#065fd4;fill-opacity:1" />
     <path
   fill="none"
   stroke="rgb(5,133,45)"
   stroke-width="35"
   stroke-linejoin="miter"
   d="M 4339,15415 C 4373,15534 4481,15618 4605,15620 L 4609,15620 C 4731,15620 4840,15539 4875,15421 L 5443,13527 6012,15421 C 6047,15539 6156,15620 6279,15620 L 6282,15620 C 6406,15618 6515,15534 6547,15415 L 7382,12353 6845,12207 6266,14330 5709,12478 C 5674,12361 5566,12280 5442,12280 5319,12280 5211,12361 5176,12478 L 4619,14330 4040,12207 3503,12353 4339,15415 Z"
   id="path47"
   style="stroke-width:28.23104155;stroke-miterlimit:4;stroke-dasharray:none;stroke:none" />
    </g>
   </g>
   <g
   class="com.sun.star.drawing.ClosedBezierShape"
   id="g59"
   style="stroke-width:28.23104155;stroke-miterlimit:4;stroke-dasharray:none;stroke:none">
    <g
   id="id5"
   style="stroke-width:28.23104155;stroke-miterlimit:4;stroke-dasharray:none;stroke:none">
     <rect
   class="BoundingBox"
   stroke="none"
   fill="none"
   x="8512"
   y="12206"
   width="3883"
   height="3416"
   id="rect52"
   style="stroke-width:28.23104155;stroke-miterlimit:4;stroke-dasharray:none;stroke:none" />
     <path
   fill="rgb(255,165,0)"
   stroke="none"
   d="M 9615,15620 L 9618,15620 C 9742,15620 9850,15539 9886,15421 L 10454,13527 11022,15421 C 11058,15539 11166,15620 11289,15620 L 11293,15620 C 11417,15618 11524,15534 11557,15415 L 12393,12353 11855,12207 11276,14330 10719,12478 C 10684,12361 10575,12280 10453,12280 10330,12280 10221,12361 10186,12478 L 9629,14330 9050,12207 8513,12353 9348,15415 C 9381,15535 9490,15619 9615,15620 Z"
   id="path54"
   style="stroke-width:28.23104155;stroke-miterlimit:4;stroke-dasharray:none;stroke:none;fill:#065fd4;fill-opacity:1" />
     <path
   fill="none"
   stroke="rgb(5,133,45)"
   d="M 9615,15620 L 9618,15620 C 9742,15620 9850,15539 9886,15421 L 10454,13527 11022,15421 C 11058,15539 11166,15620 11289,15620 L 11293,15620 C 11417,15618 11524,15534 11557,15415 L 12393,12353 11855,12207 11276,14330 10719,12478 C 10684,12361 10575,12280 10453,12280 10330,12280 10221,12361 10186,12478 L 9629,14330 9050,12207 8513,12353 9348,15415 C 9381,15535 9490,15619 9615,15620 Z"
   id="path56"
   style="stroke-width:28.23104155;stroke-miterlimit:4;stroke-dasharray:none;stroke:none" />
    </g>
   </g>
   <g
   class="com.sun.star.drawing.ClosedBezierShape"
   id="g68">
    <g
   id="id6">
     <rect
   class="BoundingBox"
   stroke="none"
   fill="none"
   x="13521"
   y="12206"
   width="3882"
   height="3416"
   id="rect61" />
     <path
   fill="rgb(255,165,0)"
   stroke="none"
   d="M 14624,15620 L 14628,15620 C 14750,15620 14859,15539 14894,15421 L 15463,13527 16031,15421 C 16067,15539 16175,15620 16298,15620 L 16301,15620 C 16426,15618 16534,15534 16567,15415 L 17401,12353 16865,12207 16286,14330 15728,12478 C 15694,12361 15585,12280 15462,12280 15339,12280 15231,12361 15195,12478 L 14639,14330 14059,12207 13522,12353 14357,15415 C 14390,15535 14499,15619 14624,15620 Z"
   id="path63"
   style="fill:#065fd4;fill-opacity:1" />
     <path
   fill="none"
   stroke="rgb(5,133,45)"
   d="M 14624,15620 L 14628,15620 C 14750,15620 14859,15539 14894,15421 L 15463,13527 16031,15421 C 16067,15539 16175,15620 16298,15620 L 16301,15620 C 16426,15618 16534,15534 16567,15415 L 17401,12353 16865,12207 16286,14330 15728,12478 C 15694,12361 15585,12280 15462,12280 15339,12280 15231,12361 15195,12478 L 14639,14330 14059,12207 13522,12353 14357,15415 C 14390,15535 14499,15619 14624,15620 Z"
   id="path65"
   style="stroke-width:28.23104155;stroke-miterlimit:4;stroke-dasharray:none;stroke:none" />
    </g>
   </g>
  </g>
 </g>
</svg>