<?xml version="1.0" encoding="UTF-8"?>
<!DOCTYPE svg PUBLIC "-//W3C//DTD SVG 1.1//EN" "http://www.w3.org/Graphics/SVG/1.1/DTD/svg11.dtd">
<svg version="1.2" width="172.85mm" height="172.82mm" viewBox="2100 5371 17285 17282" preserveAspectRatio="xMidYMid" fill-rule="evenodd" stroke-width="28.222" stroke-linejoin="round" xmlns="http://www.w3.org/2000/svg" xmlns:ooo="http://xml.openoffice.org/svg/export" xmlns:xlink="http://www.w3.org/1999/xlink" xmlns:presentation="http://sun.com/xmlns/staroffice/presentation" xmlns:smil="http://www.w3.org/2001/SMIL20/" xmlns:anim="urn:oasis:names:tc:opendocument:xmlns:animation:1.0" xml:space="preserve">
 <defs class="EmbeddedBulletChars">
  <g id="bullet-char-template-57356" transform="scale(0.00048828125,-0.00048828125)">
   <path d="M 580,1141 L 1163,571 580,0 -4,571 580,1141 Z"/>
  </g>
  <g id="bullet-char-template-57354" transform="scale(0.00048828125,-0.00048828125)">
   <path d="M 8,1128 L 1137,1128 1137,0 8,0 8,1128 Z"/>
  </g>
  <g id="bullet-char-template-10146" transform="scale(0.00048828125,-0.00048828125)">
   <path d="M 174,0 L 602,739 174,1481 1456,739 174,0 Z M 1358,739 L 309,1346 659,739 1358,739 Z"/>
  </g>
  <g id="bullet-char-template-10132" transform="scale(0.00048828125,-0.00048828125)">
   <path d="M 2015,739 L 1276,0 717,0 1260,543 174,543 174,936 1260,936 717,1481 1274,1481 2015,739 Z"/>
  </g>
  <g id="bullet-char-template-10007" transform="scale(0.00048828125,-0.00048828125)">
   <path d="M 0,-2 C -7,14 -16,27 -25,37 L 356,567 C 262,823 215,952 215,954 215,979 228,992 255,992 264,992 276,990 289,987 310,991 331,999 354,1012 L 381,999 492,748 772,1049 836,1024 860,1049 C 881,1039 901,1025 922,1006 886,937 835,863 770,784 769,783 710,716 594,584 L 774,223 C 774,196 753,168 711,139 L 727,119 C 717,90 699,76 672,76 641,76 570,178 457,381 L 164,-76 C 142,-110 111,-127 72,-127 30,-127 9,-110 8,-76 1,-67 -2,-52 -2,-32 -2,-23 -1,-13 0,-2 Z"/>
  </g>
  <g id="bullet-char-template-10004" transform="scale(0.00048828125,-0.00048828125)">
   <path d="M 285,-33 C 182,-33 111,30 74,156 52,228 41,333 41,471 41,549 55,616 82,672 116,743 169,778 240,778 293,778 328,747 346,684 L 369,508 C 377,444 397,411 428,410 L 1163,1116 C 1174,1127 1196,1133 1229,1133 1271,1133 1292,1118 1292,1087 L 1292,965 C 1292,929 1282,901 1262,881 L 442,47 C 390,-6 338,-33 285,-33 Z"/>
  </g>
  <g id="bullet-char-template-9679" transform="scale(0.00048828125,-0.00048828125)">
   <path d="M 813,0 C 632,0 489,54 383,161 276,268 223,411 223,592 223,773 276,916 383,1023 489,1130 632,1184 813,1184 992,1184 1136,1130 1245,1023 1353,916 1407,772 1407,592 1407,412 1353,268 1245,161 1136,54 992,0 813,0 Z"/>
  </g>
  <g id="bullet-char-template-8226" transform="scale(0.00048828125,-0.00048828125)">
   <path d="M 346,457 C 273,457 209,483 155,535 101,586 74,649 74,723 74,796 101,859 155,911 209,963 273,989 346,989 419,989 480,963 531,910 582,859 608,796 608,723 608,648 583,586 532,535 482,483 420,457 346,457 Z"/>
  </g>
  <g id="bullet-char-template-8211" transform="scale(0.00048828125,-0.00048828125)">
   <path d="M -4,459 L 1135,459 1135,606 -4,606 -4,459 Z"/>
  </g>
  <g id="bullet-char-template-61548" transform="scale(0.00048828125,-0.00048828125)">
   <path d="M 173,740 C 173,903 231,1043 346,1159 462,1274 601,1332 765,1332 928,1332 1067,1274 1183,1159 1299,1043 1357,903 1357,740 1357,577 1299,437 1183,322 1067,206 928,148 765,148 601,148 462,206 346,322 231,437 173,577 173,740 Z"/>
  </g>
 </defs>
 <g class="Page">
  <g class="Group">
   <g class="com.sun.star.drawing.ClosedBezierShape">
    <g id="id3">
     <rect class="BoundingBox" stroke="none" fill="none" x="2100" y="5371" width="17285" height="17282"/>
     <path fill="rgb(180,199,220)" stroke="none" d="M 10917,5724 C 6243,5724 2453,9514 2453,14189 2453,18862 6243,22652 10917,22652 L 10920,22652 C 15594,22652 19384,18862 19384,14189 19384,9514 15594,5724 10920,5724 L 10917,5724 Z M 18184,11085 L 14439,11085 C 14221,10302 13917,9545 13532,8828 L 16716,8828 C 17330,9491 17827,10254 18184,11085 Z M 12535,8264 L 9302,8264 C 9759,7570 10302,6937 10918,6381 11534,6937 12078,7570 12535,8264 Z M 8626,8264 L 5704,8264 C 6946,7165 8504,6487 10155,6327 9571,6910 9058,7560 8626,8264 Z M 16137,8264 L 13212,8264 C 12779,7560 12266,6910 11681,6326 13334,6486 14893,7164 16137,8264 Z M 12885,8828 C 13297,9539 13624,10297 13859,11085 L 7981,11085 C 8215,10297 8541,9539 8952,8828 L 12885,8828 Z M 5125,8828 L 8306,8828 C 7922,9545 7618,10302 7401,11085 L 3657,11085 C 4014,10254 4510,9491 5125,8828 Z M 18399,11649 C 18960,13296 18960,15081 18399,16727 L 3442,16727 C 2880,15081 2880,13296 3442,11649 L 18399,11649 Z M 9302,20113 L 12535,20113 C 12078,20806 11534,21439 10918,21996 10302,21439 9759,20806 9302,20113 Z M 13212,20113 L 16137,20113 C 14893,21213 13332,21891 11679,22050 12264,21467 12779,20817 13212,20113 Z M 10155,22050 C 8504,21890 6946,21212 5704,20113 L 8626,20113 C 9058,20816 9571,21466 10155,22050 Z M 8952,19548 C 8541,18837 8215,18079 7981,17291 L 13859,17291 C 13624,18079 13297,18837 12885,19548 L 8952,19548 Z M 3657,17291 L 7401,17291 C 7618,18075 7922,18832 8306,19548 L 5125,19548 C 4510,18885 4014,18122 3657,17291 Z M 13532,19548 C 13917,18832 14221,18075 14439,17291 L 18184,17291 C 17827,18122 17330,18885 16716,19548 L 13532,19548 Z"/>
     <path fill="rgb(0,81,252)" stroke="none" d="M 10564,5371 C 5890,5371 2100,9161 2100,13836 2100,18509 5890,22299 10564,22299 L 10567,22299 C 15241,22299 19031,18509 19031,13836 19031,9161 15241,5371 10567,5371 L 10564,5371 Z M 17831,10732 L 14086,10732 C 13868,9949 13564,9192 13179,8475 L 16363,8475 C 16977,9138 17474,9901 17831,10732 Z M 12182,7911 L 8949,7911 C 9406,7217 9949,6584 10565,6028 11181,6584 11725,7217 12182,7911 Z M 8273,7911 L 5351,7911 C 6593,6812 8151,6134 9802,5974 9218,6557 8705,7207 8273,7911 Z M 15784,7911 L 12859,7911 C 12426,7207 11913,6557 11328,5973 12981,6133 14540,6811 15784,7911 Z M 12532,8475 C 12944,9186 13271,9944 13506,10732 L 7628,10732 C 7862,9944 8188,9186 8599,8475 L 12532,8475 Z M 4772,8475 L 7953,8475 C 7569,9192 7265,9949 7048,10732 L 3304,10732 C 3661,9901 4157,9138 4772,8475 Z M 18046,11296 C 18607,12943 18607,14728 18046,16374 L 3089,16374 C 2527,14728 2527,12943 3089,11296 L 18046,11296 Z M 8949,19760 L 12182,19760 C 11725,20453 11181,21086 10565,21643 9949,21086 9406,20453 8949,19760 Z M 12859,19760 L 15784,19760 C 14540,20860 12979,21538 11326,21697 11911,21114 12426,20464 12859,19760 Z M 9802,21697 C 8151,21537 6593,20859 5351,19760 L 8273,19760 C 8705,20463 9218,21113 9802,21697 Z M 8599,19195 C 8188,18484 7862,17726 7628,16938 L 13506,16938 C 13271,17726 12944,18484 12532,19195 L 8599,19195 Z M 3304,16938 L 7048,16938 C 7265,17722 7569,18479 7953,19195 L 4772,19195 C 4157,18532 3661,17769 3304,16938 Z M 13179,19195 C 13564,18479 13868,17722 14086,16938 L 17831,16938 C 17474,17769 16977,18532 16363,19195 L 13179,19195 Z"/>
    </g>
   </g>
   <g class="com.sun.star.drawing.ClosedBezierShape">
    <g id="id4">
     <rect class="BoundingBox" stroke="none" fill="none" x="3522" y="12069" width="3933" height="3462"/>
     <path fill="rgb(0,81,252)" stroke="none" d="M 4370,15321 C 4404,15442 4513,15527 4639,15529 L 4643,15529 C 4767,15529 4877,15447 4913,15327 L 5489,13407 6065,15327 C 6101,15447 6211,15529 6336,15529 L 6339,15529 C 6465,15527 6575,15442 6608,15321 L 7454,12217 6910,12069 6323,14221 5758,12344 C 5723,12225 5613,12143 5488,12143 5363,12143 5253,12225 5218,12344 L 4653,14221 4066,12069 3522,12217 4370,15321 Z"/>
    </g>
   </g>
   <g class="com.sun.star.drawing.ClosedBezierShape">
    <g id="id5">
     <rect class="BoundingBox" stroke="none" fill="none" x="8600" y="12069" width="3934" height="3462"/>
     <path fill="rgb(0,81,252)" stroke="none" d="M 9718,15529 L 9721,15529 C 9846,15529 9956,15447 9992,15327 L 10568,13407 11144,15327 C 11180,15447 11290,15529 11414,15529 L 11418,15529 C 11544,15527 11653,15442 11686,15321 L 12533,12217 11988,12069 11401,14221 10837,12344 C 10801,12225 10691,12143 10567,12143 10442,12143 10332,12225 10296,12344 L 9732,14221 9145,12069 8600,12217 9447,15321 C 9480,15443 9591,15528 9718,15529 Z"/>
    </g>
   </g>
   <g class="com.sun.star.drawing.ClosedBezierShape">
    <g id="id6">
     <rect class="BoundingBox" stroke="none" fill="none" x="13677" y="12069" width="3934" height="3462"/>
     <path fill="rgb(0,81,252)" stroke="none" d="M 14795,15529 L 14799,15529 C 14923,15529 15033,15447 15069,15327 L 15645,13407 16221,15327 C 16257,15447 16367,15529 16492,15529 L 16495,15529 C 16621,15527 16731,15442 16764,15321 L 17610,12217 17066,12069 16479,14221 15914,12344 C 15879,12225 15769,12143 15644,12143 15520,12143 15410,12225 15374,12344 L 14810,14221 14222,12069 13678,12217 14524,15321 C 14558,15443 14668,15528 14795,15529 Z"/>
    </g>
   </g>
  </g>
 </g>
</svg>