<?xml version="1.0" encoding="UTF-8"?>
<!DOCTYPE svg PUBLIC "-//W3C//DTD SVG 1.1//EN" "http://www.w3.org/Graphics/SVG/1.1/DTD/svg11.dtd">
<svg version="1.2" width="180.62mm" height="180.62mm" viewBox="0 0 18062 18062" preserveAspectRatio="xMidYMid" fill-rule="evenodd" stroke-width="28.222" stroke-linejoin="round" xmlns="http://www.w3.org/2000/svg" xmlns:ooo="http://xml.openoffice.org/svg/export" xmlns:xlink="http://www.w3.org/1999/xlink" xmlns:presentation="http://sun.com/xmlns/staroffice/presentation" xmlns:smil="http://www.w3.org/2001/SMIL20/" xmlns:anim="urn:oasis:names:tc:opendocument:xmlns:animation:1.0" xml:space="preserve">
 <defs class="ClipPathGroup">
  <clipPath id="presentation_clip_path" clipPathUnits="userSpaceOnUse">
   <rect x="0" y="0" width="18062" height="18062"/>
  </clipPath>
 </defs>
 <defs class="TextShapeIndex">
  <g ooo:slide="id1" ooo:id-list="id3 id4 id5 id6 id7 id8 id9 id10 id11 id12 id13 id14 id15 id16 id17"/>
 </defs>
 <defs class="EmbeddedBulletChars">
  <g id="bullet-char-template(57356)" transform="scale(0.00048828125,-0.00048828125)">
   <path d="M 580,1141 L 1163,571 580,0 -4,571 580,1141 Z"/>
  </g>
  <g id="bullet-char-template(57354)" transform="scale(0.00048828125,-0.00048828125)">
   <path d="M 8,1128 L 1137,1128 1137,0 8,0 8,1128 Z"/>
  </g>
  <g id="bullet-char-template(10146)" transform="scale(0.00048828125,-0.00048828125)">
   <path d="M 174,0 L 602,739 174,1481 1456,739 174,0 Z M 1358,739 L 309,1346 659,739 1358,739 Z"/>
  </g>
  <g id="bullet-char-template(10132)" transform="scale(0.00048828125,-0.00048828125)">
   <path d="M 2015,739 L 1276,0 717,0 1260,543 174,543 174,936 1260,936 717,1481 1274,1481 2015,739 Z"/>
  </g>
  <g id="bullet-char-template(10007)" transform="scale(0.00048828125,-0.00048828125)">
   <path d="M 0,-2 C -7,14 -16,27 -25,37 L 356,567 C 262,823 215,952 215,954 215,979 228,992 255,992 264,992 276,990 289,987 310,991 331,999 354,1012 L 381,999 492,748 772,1049 836,1024 860,1049 C 881,1039 901,1025 922,1006 886,937 835,863 770,784 769,783 710,716 594,584 L 774,223 C 774,196 753,168 711,139 L 727,119 C 717,90 699,76 672,76 641,76 570,178 457,381 L 164,-76 C 142,-110 111,-127 72,-127 30,-127 9,-110 8,-76 1,-67 -2,-52 -2,-32 -2,-23 -1,-13 0,-2 Z"/>
  </g>
  <g id="bullet-char-template(10004)" transform="scale(0.00048828125,-0.00048828125)">
   <path d="M 285,-33 C 182,-33 111,30 74,156 52,228 41,333 41,471 41,549 55,616 82,672 116,743 169,778 240,778 293,778 328,747 346,684 L 369,508 C 377,444 397,411 428,410 L 1163,1116 C 1174,1127 1196,1133 1229,1133 1271,1133 1292,1118 1292,1087 L 1292,965 C 1292,929 1282,901 1262,881 L 442,47 C 390,-6 338,-33 285,-33 Z"/>
  </g>
  <g id="bullet-char-template(9679)" transform="scale(0.00048828125,-0.00048828125)">
   <path d="M 813,0 C 632,0 489,54 383,161 276,268 223,411 223,592 223,773 276,916 383,1023 489,1130 632,1184 813,1184 992,1184 1136,1130 1245,1023 1353,916 1407,772 1407,592 1407,412 1353,268 1245,161 1136,54 992,0 813,0 Z"/>
  </g>
  <g id="bullet-char-template(8226)" transform="scale(0.00048828125,-0.00048828125)">
   <path d="M 346,457 C 273,457 209,483 155,535 101,586 74,649 74,723 74,796 101,859 155,911 209,963 273,989 346,989 419,989 480,963 531,910 582,859 608,796 608,723 608,648 583,586 532,535 482,483 420,457 346,457 Z"/>
  </g>
  <g id="bullet-char-template(8211)" transform="scale(0.00048828125,-0.00048828125)">
   <path d="M -4,459 L 1135,459 1135,606 -4,606 -4,459 Z"/>
  </g>
 </defs>
 <defs class="TextEmbeddedBitmaps"/>
 <g>
  <g id="id2" class="Master_Slide">
   <g id="bg-id2" class="Background"/>
   <g id="bo-id2" class="BackgroundObjects"/>
  </g>
 </g>
 <g class="SlideGroup">
  <g>
   <g id="id1" class="Slide" clip-path="url(#presentation_clip_path)">
    <g class="Page">
     <g class="com.sun.star.drawing.PolyPolygonShape">
      <g id="id3">
       <rect class="BoundingBox" stroke="none" fill="none" x="1977" y="1238" width="14110" height="16826"/>
       <path fill="rgb(255,209,123)" stroke="none" d="M 1977,1955 L 1977,18063 16086,18063 16086,1955 11266,1955 9032,1238 6797,1955 1977,1955 Z"/>
      </g>
     </g>
     <g class="com.sun.star.drawing.PolyPolygonShape">
      <g id="id4">
       <rect class="BoundingBox" stroke="none" fill="none" x="9031" y="1238" width="7056" height="16826"/>
       <path fill="rgb(255,182,76)" stroke="none" d="M 11265,1955 L 9031,1238 9031,18063 16086,18063 16086,1955 11265,1955 Z"/>
      </g>
     </g>
     <g class="com.sun.star.drawing.PolyPolygonShape">
      <g id="id5">
       <rect class="BoundingBox" stroke="none" fill="none" x="3923" y="3924" width="10218" height="12145"/>
       <path fill="rgb(253,246,200)" stroke="none" d="M 3923,3924 L 14140,3924 14140,16068 3923,16068 3923,3924 Z"/>
      </g>
     </g>
     <g class="com.sun.star.drawing.PolyPolygonShape">
      <g id="id6">
       <rect class="BoundingBox" stroke="none" fill="none" x="9031" y="3924" width="5110" height="12145"/>
       <path fill="rgb(255,232,152)" stroke="none" d="M 9031,3924 L 14140,3924 14140,16068 9031,16068 9031,3924 Z"/>
      </g>
     </g>
     <g class="com.sun.star.drawing.ClosedBezierShape">
      <g id="id7">
       <rect class="BoundingBox" stroke="none" fill="none" x="6796" y="0" width="4471" height="4908"/>
       <path fill="rgb(171,171,197)" stroke="none" d="M 6797,1973 L 7825,1973 7825,3700 C 7825,4367 8365,4907 9031,4907 9698,4907 10238,4367 10238,3700 L 10238,1973 11266,1973 C 11266,883 10382,0 9293,0 L 8770,0 C 7680,0 6797,883 6797,1973 Z"/>
      </g>
     </g>
     <g class="com.sun.star.drawing.ClosedBezierShape">
      <g id="id8">
       <rect class="BoundingBox" stroke="none" fill="none" x="6796" y="0" width="4471" height="4908"/>
       <path fill="rgb(171,171,197)" stroke="none" d="M 6797,1973 L 7825,1973 7825,3700 C 7825,4367 8365,4907 9031,4907 9698,4907 10238,4367 10238,3700 L 10238,1973 11266,1973 C 11266,883 10382,0 9293,0 L 8770,0 C 7680,0 6797,883 6797,1973 Z"/>
      </g>
     </g>
     <g class="com.sun.star.drawing.PolyPolygonShape">
      <g id="id9">
       <rect class="BoundingBox" stroke="none" fill="none" x="9043" y="7038" width="2797" height="1063"/>
       <path fill="rgb(171,171,197)" stroke="none" d="M 9043,7038 L 11839,7038 11839,8100 9043,8100 9043,7038 Z"/>
      </g>
     </g>
     <g class="Group">
      <g class="com.sun.star.drawing.PolyPolygonShape">
       <g id="id10">
        <rect class="BoundingBox" stroke="none" fill="none" x="6248" y="11749" width="5592" height="1063"/>
        <path fill="rgb(189,189,210)" stroke="none" d="M 6248,11749 L 11839,11749 11839,12811 6248,12811 6248,11749 Z"/>
       </g>
      </g>
      <g class="com.sun.star.drawing.PolyPolygonShape">
       <g id="id11">
        <rect class="BoundingBox" stroke="none" fill="none" x="9031" y="11749" width="2810" height="1063"/>
        <path fill="rgb(171,171,197)" stroke="none" d="M 9031,11749 L 11839,11749 11839,12811 9031,12811 9031,11749 Z"/>
       </g>
      </g>
     </g>
     <g class="com.sun.star.drawing.ClosedBezierShape">
      <g id="id12">
       <rect class="BoundingBox" stroke="none" fill="none" x="9031" y="0" width="2236" height="4908"/>
       <path fill="rgb(138,138,169)" stroke="none" d="M 9292,0 L 9031,0 9031,4907 C 9697,4907 10238,4367 10238,3700 L 10238,1973 11266,1973 C 11266,883 10382,0 9292,0 Z"/>
      </g>
     </g>
     <g class="com.sun.star.drawing.CustomShape">
      <g id="id13">
       <rect class="BoundingBox" stroke="none" fill="none" x="5985" y="6280" width="2568" height="2567"/>
       <path fill="rgb(114,159,207)" stroke="none" d="M 7267,6280 C 7994,6280 8550,6835 8550,7562 8550,8289 7994,8845 7267,8845 6540,8845 5985,8289 5985,7562 5985,6835 6540,6280 7267,6280 Z M 5985,6280 L 5985,6280 Z M 8551,8846 L 8551,8846 Z"/>
      </g>
     </g>
     <g class="Group">
      <g class="com.sun.star.drawing.PolyPolygonShape">
       <g id="id14">
        <rect class="BoundingBox" stroke="none" fill="none" x="6248" y="13649" width="5593" height="1063"/>
        <path fill="rgb(189,189,210)" stroke="none" d="M 6249,13649 L 11840,13649 11840,14711 6249,14711 6249,13649 Z"/>
       </g>
      </g>
      <g class="com.sun.star.drawing.PolyPolygonShape">
       <g id="id15">
        <rect class="BoundingBox" stroke="none" fill="none" x="9032" y="13649" width="2810" height="1063"/>
        <path fill="rgb(171,171,197)" stroke="none" d="M 9032,13649 L 11840,13649 11840,14711 9032,14711 9032,13649 Z"/>
       </g>
      </g>
     </g>
     <g class="Group">
      <g class="com.sun.star.drawing.PolyPolygonShape">
       <g id="id16">
        <rect class="BoundingBox" stroke="none" fill="none" x="6248" y="9849" width="5593" height="1063"/>
        <path fill="rgb(189,189,210)" stroke="none" d="M 6249,9849 L 11840,9849 11840,10911 6249,10911 6249,9849 Z"/>
       </g>
      </g>
      <g class="com.sun.star.drawing.PolyPolygonShape">
       <g id="id17">
        <rect class="BoundingBox" stroke="none" fill="none" x="9032" y="9849" width="2810" height="1063"/>
        <path fill="rgb(171,171,197)" stroke="none" d="M 9032,9849 L 11840,9849 11840,10911 9032,10911 9032,9849 Z"/>
       </g>
      </g>
     </g>
    </g>
   </g>
  </g>
 </g>
</svg>