<?xml version="1.0" encoding="UTF-8"?>
<!DOCTYPE svg PUBLIC "-//W3C//DTD SVG 1.1//EN" "http://www.w3.org/Graphics/SVG/1.1/DTD/svg11.dtd">
<svg version="1.2" width="52.36mm" height="81.39mm" viewBox="22104 4982 5236 8139" preserveAspectRatio="xMidYMid" fill-rule="evenodd" stroke-width="28.222" stroke-linejoin="round" xmlns="http://www.w3.org/2000/svg" xmlns:ooo="http://xml.openoffice.org/svg/export" xmlns:xlink="http://www.w3.org/1999/xlink" xmlns:presentation="http://sun.com/xmlns/staroffice/presentation" xmlns:smil="http://www.w3.org/2001/SMIL20/" xmlns:anim="urn:oasis:names:tc:opendocument:xmlns:animation:1.0" xml:space="preserve">
 <defs class="ClipPathGroup">
  <clipPath id="presentation_clip_path" clipPathUnits="userSpaceOnUse">
   <rect x="22104" y="4982" width="5236" height="8139"/>
  </clipPath>
 </defs>
 <defs class="TextShapeIndex">
  <g ooo:slide="id1" ooo:id-list="id3 id4 id5 id6"/>
 </defs>
 <defs class="EmbeddedBulletChars">
  <g id="bullet-char-template(57356)" transform="scale(0.00048828125,-0.00048828125)">
   <path d="M 580,1141 L 1163,571 580,0 -4,571 580,1141 Z"/>
  </g>
  <g id="bullet-char-template(57354)" transform="scale(0.00048828125,-0.00048828125)">
   <path d="M 8,1128 L 1137,1128 1137,0 8,0 8,1128 Z"/>
  </g>
  <g id="bullet-char-template(10146)" transform="scale(0.00048828125,-0.00048828125)">
   <path d="M 174,0 L 602,739 174,1481 1456,739 174,0 Z M 1358,739 L 309,1346 659,739 1358,739 Z"/>
  </g>
  <g id="bullet-char-template(10132)" transform="scale(0.00048828125,-0.00048828125)">
   <path d="M 2015,739 L 1276,0 717,0 1260,543 174,543 174,936 1260,936 717,1481 1274,1481 2015,739 Z"/>
  </g>
  <g id="bullet-char-template(10007)" transform="scale(0.00048828125,-0.00048828125)">
   <path d="M 0,-2 C -7,14 -16,27 -25,37 L 356,567 C 262,823 215,952 215,954 215,979 228,992 255,992 264,992 276,990 289,987 310,991 331,999 354,1012 L 381,999 492,748 772,1049 836,1024 860,1049 C 881,1039 901,1025 922,1006 886,937 835,863 770,784 769,783 710,716 594,584 L 774,223 C 774,196 753,168 711,139 L 727,119 C 717,90 699,76 672,76 641,76 570,178 457,381 L 164,-76 C 142,-110 111,-127 72,-127 30,-127 9,-110 8,-76 1,-67 -2,-52 -2,-32 -2,-23 -1,-13 0,-2 Z"/>
  </g>
  <g id="bullet-char-template(10004)" transform="scale(0.00048828125,-0.00048828125)">
   <path d="M 285,-33 C 182,-33 111,30 74,156 52,228 41,333 41,471 41,549 55,616 82,672 116,743 169,778 240,778 293,778 328,747 346,684 L 369,508 C 377,444 397,411 428,410 L 1163,1116 C 1174,1127 1196,1133 1229,1133 1271,1133 1292,1118 1292,1087 L 1292,965 C 1292,929 1282,901 1262,881 L 442,47 C 390,-6 338,-33 285,-33 Z"/>
  </g>
  <g id="bullet-char-template(9679)" transform="scale(0.00048828125,-0.00048828125)">
   <path d="M 813,0 C 632,0 489,54 383,161 276,268 223,411 223,592 223,773 276,916 383,1023 489,1130 632,1184 813,1184 992,1184 1136,1130 1245,1023 1353,916 1407,772 1407,592 1407,412 1353,268 1245,161 1136,54 992,0 813,0 Z"/>
  </g>
  <g id="bullet-char-template(8226)" transform="scale(0.00048828125,-0.00048828125)">
   <path d="M 346,457 C 273,457 209,483 155,535 101,586 74,649 74,723 74,796 101,859 155,911 209,963 273,989 346,989 419,989 480,963 531,910 582,859 608,796 608,723 608,648 583,586 532,535 482,483 420,457 346,457 Z"/>
  </g>
  <g id="bullet-char-template(8211)" transform="scale(0.00048828125,-0.00048828125)">
   <path d="M -4,459 L 1135,459 1135,606 -4,606 -4,459 Z"/>
  </g>
 </defs>
 <defs class="TextEmbeddedBitmaps"/>
 <g class="SlideGroup">
  <g>
   <g id="id1" class="Slide" clip-path="url(#presentation_clip_path)">
    <g class="Page">
     <g class="Group">
      <g class="com.sun.star.drawing.CustomShape">
       <g id="id3">
        <rect class="BoundingBox" stroke="none" fill="none" x="22472" y="4981" width="1238" height="8141"/>
        <path fill="rgb(5,133,45)" stroke="none" d="M 22473,4982 L 22473,4982 22473,13119 22473,13119 23708,13119 23708,13119 23708,4982 23708,4982 22473,4982 Z M 22473,4982 L 22473,4982 Z M 23708,13120 L 23708,13120 Z"/>
        <path fill="none" stroke="rgb(0,120,38)" d="M 22473,4982 L 22473,4982 22473,13119 22473,13119 23708,13119 23708,13119 23708,4982 23708,4982 22473,4982 Z"/>
        <path fill="none" stroke="rgb(0,120,38)" d="M 22473,4982 L 22473,4982 Z"/>
        <path fill="none" stroke="rgb(0,120,38)" d="M 23708,13120 L 23708,13120 Z"/>
       </g>
      </g>
      <g class="com.sun.star.drawing.CustomShape">
       <g id="id4">
        <rect class="BoundingBox" stroke="none" fill="none" x="23607" y="4981" width="1231" height="268"/>
        <path fill="rgb(5,133,45)" stroke="none" d="M 24222,5247 L 23608,5247 23608,4982 24836,4982 24836,5247 24222,5247 Z"/>
        <path fill="none" stroke="rgb(0,120,38)" d="M 24222,5247 L 23608,5247 23608,4982 24836,4982 24836,5247 24222,5247 Z"/>
       </g>
      </g>
      <g class="com.sun.star.drawing.CustomShape">
       <g id="id5">
        <rect class="BoundingBox" stroke="none" fill="none" x="22104" y="4981" width="5238" height="4011"/>
        <path fill="rgb(5,133,45)" stroke="none" d="M 24732,8990 L 24864,8987 24996,8979 25127,8966 25257,8948 25386,8925 25513,8896 25638,8863 25761,8826 25881,8783 25998,8736 26112,8684 26223,8628 26329,8568 26431,8504 26529,8436 26623,8364 26711,8289 26795,8210 26873,8129 26946,8044 27013,7957 27074,7867 27129,7775 27178,7681 27221,7585 27257,7487 27287,7389 27310,7289 27327,7188 27337,7087 27340,6986 27337,6885 27327,6784 27310,6683 27287,6583 27257,6485 27221,6387 27178,6291 27129,6197 27074,6105 27013,6015 26946,5928 26873,5843 26795,5762 26711,5683 26623,5608 26529,5536 26431,5468 26329,5404 26223,5344 26112,5288 25998,5236 25881,5189 25761,5146 25638,5109 25513,5076 25386,5047 25257,5024 25127,5006 24996,4993 24864,4985 24732,4982 24731,5244 24846,5247 24960,5254 25074,5265 25188,5281 25300,5301 25410,5325 25519,5354 25625,5387 25730,5424 25832,5465 25931,5510 26027,5558 26119,5610 26208,5666 26293,5725 26375,5788 26451,5853 26524,5921 26592,5992 26655,6066 26713,6142 26767,6220 26814,6300 26857,6382 26894,6465 26926,6550 26952,6635 26972,6722 26986,6809 26995,6897 26998,6985 26995,7073 26986,7161 26972,7248 26952,7335 26926,7420 26894,7505 26857,7588 26814,7670 26767,7750 26713,7828 26655,7904 26592,7978 26524,8049 26451,8117 26375,8182 26293,8245 26208,8304 26119,8360 26027,8412 25931,8460 25832,8505 25730,8546 25625,8583 25519,8616 25410,8645 25300,8669 25188,8689 25074,8705 24960,8716 24846,8723 24731,8726 24732,8990 Z M 27340,4982 L 27340,4982 Z M 22105,8990 L 22105,8990 Z"/>
        <path fill="none" stroke="rgb(0,120,38)" d="M 24732,8990 L 24864,8987 24996,8979 25127,8966 25257,8948 25386,8925 25513,8896 25638,8863 25761,8826 25881,8783 25998,8736 26112,8684 26223,8628 26329,8568 26431,8504 26529,8436 26623,8364 26711,8289 26795,8210 26873,8129 26946,8044 27013,7957 27074,7867 27129,7775 27178,7681 27221,7585 27257,7487 27287,7389 27310,7289 27327,7188 27337,7087 27340,6986 27337,6885 27327,6784 27310,6683 27287,6583 27257,6485 27221,6387 27178,6291 27129,6197 27074,6105 27013,6015 26946,5928 26873,5843 26795,5762 26711,5683 26623,5608 26529,5536 26431,5468 26329,5404 26223,5344 26112,5288 25998,5236 25881,5189 25761,5146 25638,5109 25513,5076 25386,5047 25257,5024 25127,5006 24996,4993 24864,4985 24732,4982 24731,5244 24846,5247 24960,5254 25074,5265 25188,5281 25300,5301 25410,5325 25519,5354 25625,5387 25730,5424 25832,5465 25931,5510 26027,5558 26119,5610 26208,5666 26293,5725 26375,5788 26451,5853 26524,5921 26592,5992 26655,6066 26713,6142 26767,6220 26814,6300 26857,6382 26894,6465 26926,6550 26952,6635 26972,6722 26986,6809 26995,6897 26998,6985 26995,7073 26986,7161 26972,7248 26952,7335 26926,7420 26894,7505 26857,7588 26814,7670 26767,7750 26713,7828 26655,7904 26592,7978 26524,8049 26451,8117 26375,8182 26293,8245 26208,8304 26119,8360 26027,8412 25931,8460 25832,8505 25730,8546 25625,8583 25519,8616 25410,8645 25300,8669 25188,8689 25074,8705 24960,8716 24846,8723 24731,8726 24732,8990 Z"/>
        <path fill="none" stroke="rgb(0,120,38)" d="M 27340,4982 L 27340,4982 Z"/>
        <path fill="none" stroke="rgb(0,120,38)" d="M 22105,8990 L 22105,8990 Z"/>
       </g>
      </g>
      <g class="com.sun.star.drawing.ClosedBezierShape">
       <g id="id6">
        <rect class="BoundingBox" stroke="none" fill="none" x="23969" y="8273" width="1033" height="1169"/>
        <path fill="rgb(255,102,0)" stroke="none" d="M 24006,8795 C 23995,8801 23986,8810 23980,8822 23973,8833 23970,8845 23970,8858 23970,8871 23973,8883 23980,8894 23987,8905 23995,8914 24006,8921 L 24891,9430 C 24903,9437 24914,9440 24928,9440 24941,9440 24952,9437 24964,9430 24975,9423 24983,9415 24991,9404 24997,9392 25000,9381 25000,9367 L 25000,8346 C 25000,8333 24997,8322 24991,8310 24984,8299 24975,8291 24964,8283 24952,8277 24941,8274 24928,8274 24914,8274 24903,8277 24891,8283 L 24006,8795 Z"/>
        <path fill="none" stroke="rgb(255,102,0)" d="M 24006,8795 C 23995,8801 23986,8810 23980,8822 23973,8833 23970,8845 23970,8858 23970,8871 23973,8883 23980,8894 23987,8905 23995,8914 24006,8921 L 24891,9430 C 24903,9437 24914,9440 24928,9440 24941,9440 24952,9437 24964,9430 24975,9423 24983,9415 24991,9404 24997,9392 25000,9381 25000,9367 L 25000,8346 C 25000,8333 24997,8322 24991,8310 24984,8299 24975,8291 24964,8283 24952,8277 24941,8274 24928,8274 24914,8274 24903,8277 24891,8283 L 24006,8795 Z"/>
       </g>
      </g>
     </g>
    </g>
   </g>
  </g>
 </g>
</svg>