<svg width="72.988" height="72.9" version="1.1" viewBox="0 0 72.988 72.9" xmlns="http://www.w3.org/2000/svg">
 <path d="m71.775 66-17.9-17.9c9-11.7 8.1-28.6-2.7-39.3-5.9-5.9-13.5-8.8-21.2-8.8s-15.3 2.9-21.2 8.8c-11.7 11.7-11.7 30.7 0 42.4 5.9 5.9 13.5 8.8 21.2 8.8 6.4 0 12.8-2 18.1-6.1l18 17.8c0.8 0.8 1.8 1.2 2.9 1.2 1 0 2.1-0.4 2.9-1.2 1.5-1.5 1.5-4.1-0.1-5.7zm-41.7-14.1c-5.9 0-11.3-2.3-15.5-6.4-8.5-8.5-8.5-22.4 0-31 4.1-4.1 9.6-6.4 15.5-6.4s11.3 2.3 15.5 6.4 6.4 9.6 6.4 15.5-2.3 11.3-6.4 15.5-9.7 6.4-15.5 6.4z"/>
 <text x="-15.225" y="99.699997" fill="#000000" font-family="'Helvetica Neue', Helvetica, Arial-Unicode, Arial, Sans-serif" font-size="5px" font-weight="bold"/>
 <flowRoot transform="translate(-15.225,-15.3)" fill="#000000" font-family="sans-serif" font-size="40px" letter-spacing="0px" word-spacing="0px" style="line-height:1.25" xml:space="preserve"><flowRegion><rect x="-5.2966" y="102.75" width="77.331" height="48.199"/></flowRegion><flowPara/></flowRoot>
 <flowRoot transform="translate(-15.225,-15.3)" fill="#000000" font-family="sans-serif" font-size="40px" letter-spacing="0px" word-spacing="0px" style="line-height:1.25" xml:space="preserve"><flowRegion><rect x="-17.479" y="91.631" width="88.453" height="46.61"/></flowRegion><flowPara/></flowRoot>
</svg>
