<?xml version="1.0" encoding="UTF-8" standalone="no"?>
<!-- Created with Inkscape (http://www.inkscape.org/) -->

<svg
   xmlns:dc="http://purl.org/dc/elements/1.1/"
   xmlns:cc="http://creativecommons.org/ns#"
   xmlns:rdf="http://www.w3.org/1999/02/22-rdf-syntax-ns#"
   xmlns:svg="http://www.w3.org/2000/svg"
   xmlns="http://www.w3.org/2000/svg"
   xmlns:sodipodi="http://sodipodi.sourceforge.net/DTD/sodipodi-0.dtd"
   xmlns:inkscape="http://www.inkscape.org/namespaces/inkscape"
   width="744.09448819"
   height="1052.3622047"
   id="svg4093"
   version="1.1"
   inkscape:version="0.48.5 r10040"
   sodipodi:docname="New document 8">
  <defs
     id="defs4095" />
  <sodipodi:namedview
     id="base"
     pagecolor="#ffffff"
     bordercolor="#666666"
     borderopacity="1.0"
     inkscape:pageopacity="0.0"
     inkscape:pageshadow="2"
     inkscape:zoom="0.35"
     inkscape:cx="375"
     inkscape:cy="520"
     inkscape:document-units="px"
     inkscape:current-layer="layer1"
     showgrid="false"
     inkscape:window-width="1920"
     inkscape:window-height="1035"
     inkscape:window-x="1440"
     inkscape:window-y="0"
     inkscape:window-maximized="1" />
  <metadata
     id="metadata4098">
    <rdf:RDF>
      <cc:Work
         rdf:about="">
        <dc:format>image/svg+xml</dc:format>
        <dc:type
           rdf:resource="http://purl.org/dc/dcmitype/StillImage" />
        <dc:title></dc:title>
      </cc:Work>
    </rdf:RDF>
  </metadata>
  <g
     inkscape:label="Layer 1"
     inkscape:groupmode="layer"
     id="layer1">
    <g
       id="g4085"
       transform="matrix(9.2097056,0,0,9.8105129,-3165.6427,-3483.6964)"
       style="fill:#0088aa">
      <path
         id="path3277"
         d="m 406.5625,407.1875 c -3.2681,5.39211 -12.43034,9.28125 -23.21875,9.28125 -10.53113,0 -19.50666,-3.68308 -22.96875,-8.875 -0.82016,1.36228 -1.28125,2.82775 -1.28125,4.34375 0,7.53154 10.97112,13.625 24.5,13.625 13.52888,0 24.5,-6.09346 24.5,-13.625 0,-1.67438 -0.53951,-3.268 -1.53125,-4.75 z"
         style="fill:#0088aa;fill-opacity:1;stroke:#ffffff;stroke-width:2.85500002;stroke-linecap:round;stroke-linejoin:round;stroke-miterlimit:4;stroke-opacity:1;stroke-dasharray:none;stroke-dashoffset:0"
         inkscape:connector-curvature="0" />
      <path
         style="fill:#0088aa;fill-opacity:1;stroke:none"
         d="m 288.875,349.65625 c -13.02522,0 -23.5625,5.87384 -23.5625,13.125 0,7.25116 10.53728,13.15625 23.5625,13.15625 13.02522,0 23.59375,-5.90509 23.59375,-13.15625 0,-7.25116 -10.56853,-13.125 -23.59375,-13.125 z m -6.90625,2.28125 2.84375,3.15625 c 0.83777,-0.62324 1.69347,-1.28125 3.90625,-2.96875 l -2.6875,7.53125 -8.65625,1.09375 c 2.19975,-1.72709 3.04778,-2.41072 3.84375,-3.03125 l -2.78125,-3.09375 3.53125,-2.6875 z M 292,352.46875 l 8.3125,2.6875 0.78125,7.625 c -1.82875,-1.99959 -2.52934,-2.77517 -3.1875,-3.5 l -3.625,2.3125 -2.8125,-3.25 3.625,-2.3125 c -0.65938,-0.76171 -1.31272,-1.55637 -3.09375,-3.5625 z m -15.90625,9.6875 c 1.82875,1.99959 2.52934,2.77517 3.1875,3.5 l 3.625,-2.3125 2.8125,3.25 -3.625,2.3125 c 0.65938,0.76171 1.31272,1.55637 3.09375,3.5625 l -8.3125,-2.71875 -0.78125,-7.59375 z m 24.09375,2.03125 c -2.19334,1.72205 -3.07829,2.37887 -3.875,3 l 2.8125,3.125 -3.5625,2.65625 -2.8125,-3.09375 c -0.83855,0.62393 -1.70197,1.25648 -3.90625,2.9375 l 2.6875,-7.53125 8.65625,-1.09375 z"
         transform="translate(94.56087,40.04064)"
         id="path3277-4-6"
         inkscape:connector-curvature="0" />
    </g>
  </g>
</svg>
