<svg xmlns="http://www.w3.org/2000/svg" xmlns:xlink="http://www.w3.org/1999/xlink" version="1.1" x="0px" y="0px" viewBox="0 0 32 40" enable-background="new 0 0 32 32" xml:space="preserve"><g><path d="M25,29H7c-0.552,0-1-0.447-1-1V4c0-0.553,0.448-1,1-1h13c0.552,0,1,0.447,1,1s-0.448,1-1,1H8v22h16V10c0-0.553,0.448-1,1-1   s1,0.447,1,1v18C26,28.553,25.552,29,25,29z M25,11h-5c-0.552,0-1-0.447-1-1V4c0-0.421,0.264-0.797,0.66-0.94   c0.395-0.143,0.838-0.023,1.108,0.3l5,6c0.249,0.299,0.302,0.714,0.138,1.064C25.741,10.775,25.388,11,25,11z M21,9h1.865L21,6.762   V9z M21,15H11c-0.552,0-1-0.447-1-1s0.448-1,1-1h10c0.552,0,1,0.447,1,1S21.552,15,21,15z M21,20H11c-0.552,0-1-0.447-1-1   s0.448-1,1-1h10c0.552,0,1,0.447,1,1S21.552,20,21,20z M21,25H11c-0.552,0-1-0.447-1-1s0.448-1,1-1h10c0.552,0,1,0.447,1,1   S21.552,25,21,25z"/></g><text x="0" y="47" fill="#000000" font-size="5px" font-weight="bold" font-family="'Helvetica Neue', Helvetica, Arial-Unicode, Arial, Sans-serif">Created by mim studio</text><text x="0" y="52" fill="#000000" font-size="5px" font-weight="bold" font-family="'Helvetica Neue', Helvetica, Arial-Unicode, Arial, Sans-serif">from the Noun Project</text></svg>