<svg width="100" height="100" data-name="Layer 1" version="1.1" viewBox="0 0 100 100" xmlns="http://www.w3.org/2000/svg">
 <title>Artboard 9</title>
 <path d="m58.4 4.12c-0.96-1.25-2.82-1.31-3.86-0.126l-19.7 22.4-27 7.63c-5.64 1.6-8.93 7.46-7.34 13.1l4.08 14.4c1.6 5.65 7.47 8.93 13.1 7.34l5.73-1.62 1.52 19.2c0.494 6 5.99 10.3 11.9 9.36 5.95-0.954 9.82-6.77 8.42-12.6l-5.03-20.7 4.46-1.26 28.5 8.77c1.5 0.464 3.06-0.56 3.22-2.13 1.11-10.6-1.48-20.6-4.04-30.8-2.96-11.7-6.49-23.3-14-33.1zm-25.7 55.4-7.13-25.3 9-2.54 7.13 25.3zm-23.3 0.736-4.08-14.4c-0.838-2.99 0.903-6.09 3.89-6.94l11.5-3.26 7.13 25.3-11.5 3.26c-2.99 0.845-6.1-0.896-6.95-3.89zm31.1 24.2c0.716 3.02-1.28 6.01-4.35 6.5-3.06 0.493-5.9-1.72-6.17-4.81l-1.61-20.2 7.13-2.01zm31.3-20-24.9-7.71-7.75-27.5 17.2-19.6c6.69 9.38 8.64 16.9 11.4 27.9 4 16 4.62 18.8 4.06 26.8zm25.1-36.7c0.375 1.33-0.398 2.71-1.73 3.09l-13.3 3.74c-3.21 0.906-4.57-3.91-1.36-4.81l13.3-3.74c1.33-0.375 2.71 0.398 3.09 1.73zm-19.7-4.51c-2.56 0.722-4.32-2.51-2.34-4.28l10.3-9.15c2.48-2.02 5.62 1.52 3.31 3.74l-10.3 9.15c-0.28 0.249-0.612 0.431-0.971 0.534zm22 23.9c-0.237 1.36-1.53 2.27-2.9 2.03l-13.6-2.4c-3.13-0.682-2.31-5.35 0.866-4.92l13.6 2.4c1.36 0.239 2.26 1.53 2.03 2.89z"/>
</svg>
