<svg width="100" height="100" data-name="Layer 1" version="1.1" viewBox="0 0 100 100" xmlns="http://www.w3.org/2000/svg">
 <defs>
  <style>.cls-1{fill:none;stroke:#000;stroke-linecap:round;stroke-linejoin:round;}</style>
 </defs>
 <title>Artboard 15</title>
 <g fill="none" stroke="#000" stroke-linecap="round" stroke-linejoin="round">
  <path class="cls-1" d="m55.9 50.1a17.2 17.2 0 1 1-7.82-7.43"/>
  <path class="cls-1" d="m48.1 42.7 22.9-22.9a1 1 0 0 1 0.68-0.29c1.58 0 7.34-0.31 7.44-0.28s0.06 0.09 0.06 0.09l-0.26 7.43a1 1 0 0 1-0.29 0.67l-3.49 3.47-0.39 6.56a1 1 0 0 1-1 0.94l-5.32 0.1a1 1 0 0 0-1 0.94l-0.35 5.69a1 1 0 0 1-1 0.94l-6.21 0.06-4 4"/>
  <rect class="cls-1" transform="rotate(-45)" x="-22.3" y="64.8" width="10" height="10" rx="5" ry="5"/>
 </g>
</svg>
