<svg enable-background="new 0 0 100 100" version="1.1" viewBox="0 0 100 125" xmlns="http://www.w3.org/2000/svg">
 <path d="m40.7 80h41c1.1 0 2-0.9 2-2v-3.5c0-1.1-0.9-2-2-2h-41c-1.1 0-2 0.9-2 2v3.5c0 1.1 0.9 2 2 2z"/>
 <path d="m40.7 53.7h41c1.1 0 2-0.9 2-2v-3.5c0-1.1-0.9-2-2-2h-41c-1.1 0-2 0.9-2 2v3.5c0 1.1 0.9 2 2 2z"/>
 <path d="m40.7 27.5h41c1.1 0 2-0.9 2-2v-3.5c0-1.1-0.9-2-2-2h-41c-1.1 0-2 0.9-2 2v3.5c0 1.1 0.9 2 2 2z"/>
 <circle cx="23.8" cy="76.2" r="7.5"/>
 <circle cx="23.8" cy="50" r="7.5"/>
 <circle cx="23.8" cy="23.7" r="7.5"/>
</svg>
